<mxfile host="app.diagrams.net" agent="Mozilla/5.0 (X11; Linux x86_64) AppleWebKit/537.36 (KHTML, like Gecko) Chrome/131.0.0.0 Safari/537.36" version="25.0.3">
  <diagram name="第 1 页" id="hwGAMa8Qym_tdzRik-dT">
    <mxGraphModel dx="1135" dy="630" grid="1" gridSize="10" guides="1" tooltips="1" connect="1" arrows="1" fold="1" page="1" pageScale="1" pageWidth="827" pageHeight="1169" math="0" shadow="0">
      <root>
        <mxCell id="0" />
        <mxCell id="1" parent="0" />
        <mxCell id="DEDyVDNNjn7AEogCk7KL-1" value="源码地址：&lt;div&gt;https://github.com/Geonhee-LEE/mpc_ros&lt;/div&gt;" style="text;html=1;align=left;verticalAlign=middle;resizable=0;points=[];autosize=1;strokeColor=none;fillColor=none;" vertex="1" parent="1">
          <mxGeometry x="20" y="10" width="250" height="40" as="geometry" />
        </mxCell>
        <mxCell id="DEDyVDNNjn7AEogCk7KL-4" value="" style="edgeStyle=orthogonalEdgeStyle;rounded=0;orthogonalLoop=1;jettySize=auto;html=1;" edge="1" parent="1" source="DEDyVDNNjn7AEogCk7KL-2" target="DEDyVDNNjn7AEogCk7KL-3">
          <mxGeometry relative="1" as="geometry" />
        </mxCell>
        <mxCell id="DEDyVDNNjn7AEogCk7KL-2" value="开始" style="rounded=1;whiteSpace=wrap;html=1;" vertex="1" parent="1">
          <mxGeometry x="115" y="80" width="120" height="60" as="geometry" />
        </mxCell>
        <mxCell id="DEDyVDNNjn7AEogCk7KL-8" value="" style="edgeStyle=orthogonalEdgeStyle;rounded=0;orthogonalLoop=1;jettySize=auto;html=1;" edge="1" parent="1" source="DEDyVDNNjn7AEogCk7KL-3" target="DEDyVDNNjn7AEogCk7KL-7">
          <mxGeometry relative="1" as="geometry" />
        </mxCell>
        <mxCell id="DEDyVDNNjn7AEogCk7KL-3" value="在MPCNode()的构造中加载配置参数、MPC的参数、定义发布者订阅者、开启一个定时器以10HZ的频率持续调用MPCNode::controlLoopCB函数实现&lt;b&gt;&lt;font color=&quot;#cc0000&quot;&gt;控制闭环（有详细的流程图）&lt;/font&gt;&lt;/b&gt;" style="whiteSpace=wrap;html=1;rounded=0;" vertex="1" parent="1">
          <mxGeometry x="40" y="220" width="270" height="60" as="geometry" />
        </mxCell>
        <mxCell id="DEDyVDNNjn7AEogCk7KL-10" value="" style="edgeStyle=orthogonalEdgeStyle;rounded=0;orthogonalLoop=1;jettySize=auto;html=1;" edge="1" parent="1" source="DEDyVDNNjn7AEogCk7KL-7" target="DEDyVDNNjn7AEogCk7KL-9">
          <mxGeometry relative="1" as="geometry" />
        </mxCell>
        <mxCell id="DEDyVDNNjn7AEogCk7KL-7" value="额外开两个线程，由ROS的调度机制决定在线程中需要执行的东西" style="whiteSpace=wrap;html=1;rounded=0;" vertex="1" parent="1">
          <mxGeometry x="80" y="360" width="190" height="60" as="geometry" />
        </mxCell>
        <mxCell id="DEDyVDNNjn7AEogCk7KL-9" value="结束" style="whiteSpace=wrap;html=1;rounded=1;" vertex="1" parent="1">
          <mxGeometry x="115" y="500" width="120" height="60" as="geometry" />
        </mxCell>
        <mxCell id="DEDyVDNNjn7AEogCk7KL-11" value="" style="edgeStyle=orthogonalEdgeStyle;rounded=0;orthogonalLoop=1;jettySize=auto;html=1;" edge="1" source="DEDyVDNNjn7AEogCk7KL-12" target="DEDyVDNNjn7AEogCk7KL-14" parent="1">
          <mxGeometry relative="1" as="geometry" />
        </mxCell>
        <mxCell id="DEDyVDNNjn7AEogCk7KL-18" value="只画出条件的主分支，其他分支相对不重要就不画了" style="edgeLabel;html=1;align=center;verticalAlign=middle;resizable=0;points=[];" vertex="1" connectable="0" parent="DEDyVDNNjn7AEogCk7KL-11">
          <mxGeometry x="-0.025" y="2" relative="1" as="geometry">
            <mxPoint as="offset" />
          </mxGeometry>
        </mxCell>
        <mxCell id="DEDyVDNNjn7AEogCk7KL-12" value="MPCNode::&lt;div&gt;controlLoopCB()&lt;/div&gt;&lt;div&gt;&lt;b&gt;&lt;font color=&quot;#cc0000&quot;&gt;控制闭环&lt;/font&gt;&lt;/b&gt;&lt;/div&gt;" style="rounded=1;whiteSpace=wrap;html=1;" vertex="1" parent="1">
          <mxGeometry x="505" y="80" width="120" height="60" as="geometry" />
        </mxCell>
        <mxCell id="DEDyVDNNjn7AEogCk7KL-13" value="" style="edgeStyle=orthogonalEdgeStyle;rounded=0;orthogonalLoop=1;jettySize=auto;html=1;" edge="1" source="DEDyVDNNjn7AEogCk7KL-14" target="DEDyVDNNjn7AEogCk7KL-16" parent="1">
          <mxGeometry relative="1" as="geometry" />
        </mxCell>
        <mxCell id="DEDyVDNNjn7AEogCk7KL-14" value="将初始状态赋值给局部变量，将路网点转到车体坐标系下并进行三次多项式拟合：&lt;div&gt;y = a_3x&lt;sup&gt;3&lt;/sup&gt; +&amp;nbsp;&lt;span style=&quot;background-color: initial;&quot;&gt;a_2x&lt;/span&gt;&lt;sup style=&quot;background-color: initial;&quot;&gt;2&lt;/sup&gt;&lt;span style=&quot;background-color: initial;&quot;&gt;&amp;nbsp;&lt;/span&gt;&lt;span style=&quot;background-color: initial;&quot;&gt;+&amp;nbsp;&lt;/span&gt;&lt;span style=&quot;background-color: initial;&quot;&gt;a_1x&lt;span style=&quot;font-size: 10px;&quot;&gt;&amp;nbsp;+ a_0&lt;/span&gt;&lt;/span&gt;&lt;/div&gt;" style="whiteSpace=wrap;html=1;rounded=0;" vertex="1" parent="1">
          <mxGeometry x="455" y="220" width="220" height="60" as="geometry" />
        </mxCell>
        <mxCell id="DEDyVDNNjn7AEogCk7KL-20" value="" style="edgeStyle=orthogonalEdgeStyle;rounded=0;orthogonalLoop=1;jettySize=auto;html=1;" edge="1" parent="1" source="DEDyVDNNjn7AEogCk7KL-16" target="DEDyVDNNjn7AEogCk7KL-19">
          <mxGeometry relative="1" as="geometry" />
        </mxCell>
        <mxCell id="DEDyVDNNjn7AEogCk7KL-16" value="计算车体坐标系下，车辆和轨迹的初始横向误差cte和初始角度误差etheta" style="whiteSpace=wrap;html=1;rounded=0;" vertex="1" parent="1">
          <mxGeometry x="460" y="360" width="210" height="60" as="geometry" />
        </mxCell>
        <mxCell id="DEDyVDNNjn7AEogCk7KL-22" value="" style="edgeStyle=orthogonalEdgeStyle;rounded=0;orthogonalLoop=1;jettySize=auto;html=1;" edge="1" parent="1" source="DEDyVDNNjn7AEogCk7KL-19" target="DEDyVDNNjn7AEogCk7KL-21">
          <mxGeometry relative="1" as="geometry" />
        </mxCell>
        <mxCell id="DEDyVDNNjn7AEogCk7KL-19" value="&lt;font color=&quot;#cc0000&quot;&gt;重新计算一遍etheta，但是没看懂为什么&lt;/font&gt;" style="whiteSpace=wrap;html=1;rounded=0;" vertex="1" parent="1">
          <mxGeometry x="460" y="500" width="210" height="60" as="geometry" />
        </mxCell>
        <mxCell id="DEDyVDNNjn7AEogCk7KL-24" value="" style="edgeStyle=orthogonalEdgeStyle;rounded=0;orthogonalLoop=1;jettySize=auto;html=1;" edge="1" parent="1" source="DEDyVDNNjn7AEogCk7KL-21" target="DEDyVDNNjn7AEogCk7KL-23">
          <mxGeometry relative="1" as="geometry" />
        </mxCell>
        <mxCell id="DEDyVDNNjn7AEogCk7KL-21" value="建立车辆的状态向量，包括车体坐标系下车辆的x、y、theta，v，横向误差和角度误差" style="whiteSpace=wrap;html=1;rounded=0;" vertex="1" parent="1">
          <mxGeometry x="460" y="640" width="210" height="60" as="geometry" />
        </mxCell>
        <mxCell id="DEDyVDNNjn7AEogCk7KL-26" value="" style="edgeStyle=orthogonalEdgeStyle;rounded=0;orthogonalLoop=1;jettySize=auto;html=1;" edge="1" parent="1" source="DEDyVDNNjn7AEogCk7KL-23" target="DEDyVDNNjn7AEogCk7KL-25">
          <mxGeometry relative="1" as="geometry" />
        </mxCell>
        <mxCell id="DEDyVDNNjn7AEogCk7KL-23" value="调用MPC::Solve函数&lt;b&gt;&lt;font color=&quot;#cc0000&quot;&gt;求解优化问题&lt;/font&gt;&lt;/b&gt;，最后转换成线速度和角速度下发。另外，可视化MPC的轨迹" style="whiteSpace=wrap;html=1;rounded=0;" vertex="1" parent="1">
          <mxGeometry x="460" y="780" width="210" height="60" as="geometry" />
        </mxCell>
        <mxCell id="DEDyVDNNjn7AEogCk7KL-25" value="结束" style="whiteSpace=wrap;html=1;rounded=1;" vertex="1" parent="1">
          <mxGeometry x="505" y="920" width="120" height="60" as="geometry" />
        </mxCell>
        <mxCell id="DEDyVDNNjn7AEogCk7KL-27" value="" style="edgeStyle=orthogonalEdgeStyle;rounded=0;orthogonalLoop=1;jettySize=auto;html=1;" edge="1" source="DEDyVDNNjn7AEogCk7KL-29" target="DEDyVDNNjn7AEogCk7KL-31" parent="1">
          <mxGeometry relative="1" as="geometry" />
        </mxCell>
        <mxCell id="DEDyVDNNjn7AEogCk7KL-29" value="MPC::Solve()&lt;div&gt;&lt;b&gt;&lt;font color=&quot;#cc0000&quot;&gt;求解优化问题&lt;/font&gt;&lt;/b&gt;&lt;/div&gt;" style="rounded=1;whiteSpace=wrap;html=1;" vertex="1" parent="1">
          <mxGeometry x="870" y="80" width="120" height="60" as="geometry" />
        </mxCell>
        <mxCell id="DEDyVDNNjn7AEogCk7KL-30" value="" style="edgeStyle=orthogonalEdgeStyle;rounded=0;orthogonalLoop=1;jettySize=auto;html=1;" edge="1" source="DEDyVDNNjn7AEogCk7KL-31" target="DEDyVDNNjn7AEogCk7KL-33" parent="1">
          <mxGeometry relative="1" as="geometry" />
        </mxCell>
        <mxCell id="DEDyVDNNjn7AEogCk7KL-31" value="计算决策变量数量（包括状态变量和控制变量），计算约束数量" style="whiteSpace=wrap;html=1;rounded=0;" vertex="1" parent="1">
          <mxGeometry x="820" y="220" width="220" height="60" as="geometry" />
        </mxCell>
        <mxCell id="DEDyVDNNjn7AEogCk7KL-32" value="" style="edgeStyle=orthogonalEdgeStyle;rounded=0;orthogonalLoop=1;jettySize=auto;html=1;" edge="1" source="DEDyVDNNjn7AEogCk7KL-33" target="DEDyVDNNjn7AEogCk7KL-35" parent="1">
          <mxGeometry relative="1" as="geometry" />
        </mxCell>
        <mxCell id="DEDyVDNNjn7AEogCk7KL-33" value="定义一个向量vars存放决策变量，其中元素都初始化为0，然后根据预测时域找到各个变量的起始的索引，将对应的初始值设置为当前值" style="whiteSpace=wrap;html=1;rounded=0;" vertex="1" parent="1">
          <mxGeometry x="825" y="360" width="210" height="60" as="geometry" />
        </mxCell>
        <mxCell id="DEDyVDNNjn7AEogCk7KL-34" value="" style="edgeStyle=orthogonalEdgeStyle;rounded=0;orthogonalLoop=1;jettySize=auto;html=1;" edge="1" source="DEDyVDNNjn7AEogCk7KL-35" target="DEDyVDNNjn7AEogCk7KL-37" parent="1">
          <mxGeometry relative="1" as="geometry" />
        </mxCell>
        <mxCell id="DEDyVDNNjn7AEogCk7KL-35" value="填充存放决策向量的幅值的向量（这个不是约束向量，相当于限幅而已）&lt;div&gt;填充约束向量&lt;/div&gt;" style="whiteSpace=wrap;html=1;rounded=0;" vertex="1" parent="1">
          <mxGeometry x="825" y="500" width="210" height="60" as="geometry" />
        </mxCell>
        <mxCell id="DEDyVDNNjn7AEogCk7KL-36" value="" style="edgeStyle=orthogonalEdgeStyle;rounded=0;orthogonalLoop=1;jettySize=auto;html=1;" edge="1" source="DEDyVDNNjn7AEogCk7KL-37" target="DEDyVDNNjn7AEogCk7KL-39" parent="1">
          <mxGeometry relative="1" as="geometry" />
        </mxCell>
        <mxCell id="DEDyVDNNjn7AEogCk7KL-37" value="建立一个FG_eval类的对象并加载MPC的参数，这个类中有代价函数，是必须这样实现。" style="whiteSpace=wrap;html=1;rounded=0;" vertex="1" parent="1">
          <mxGeometry x="825" y="640" width="210" height="60" as="geometry" />
        </mxCell>
        <mxCell id="DEDyVDNNjn7AEogCk7KL-42" value="" style="edgeStyle=orthogonalEdgeStyle;rounded=0;orthogonalLoop=1;jettySize=auto;html=1;" edge="1" parent="1" source="DEDyVDNNjn7AEogCk7KL-39" target="DEDyVDNNjn7AEogCk7KL-41">
          <mxGeometry relative="1" as="geometry" />
        </mxCell>
        <mxCell id="DEDyVDNNjn7AEogCk7KL-39" value="设置求解器的优化选项，调用CppAD::ipopt::solve方法求解优化问题，将结果存放在solution中" style="whiteSpace=wrap;html=1;rounded=0;" vertex="1" parent="1">
          <mxGeometry x="825" y="780" width="210" height="60" as="geometry" />
        </mxCell>
        <mxCell id="DEDyVDNNjn7AEogCk7KL-44" value="" style="edgeStyle=orthogonalEdgeStyle;rounded=0;orthogonalLoop=1;jettySize=auto;html=1;" edge="1" parent="1" source="DEDyVDNNjn7AEogCk7KL-41" target="DEDyVDNNjn7AEogCk7KL-43">
          <mxGeometry relative="1" as="geometry" />
        </mxCell>
        <mxCell id="DEDyVDNNjn7AEogCk7KL-41" value="将求解出的x y theta存放到mpc_x/y/theta数组中，将控制变量存放到result中并返回" style="whiteSpace=wrap;html=1;rounded=0;" vertex="1" parent="1">
          <mxGeometry x="825" y="920" width="210" height="60" as="geometry" />
        </mxCell>
        <mxCell id="DEDyVDNNjn7AEogCk7KL-43" value="结束" style="whiteSpace=wrap;html=1;rounded=1;" vertex="1" parent="1">
          <mxGeometry x="870" y="1060" width="120" height="60" as="geometry" />
        </mxCell>
        <mxCell id="DEDyVDNNjn7AEogCk7KL-45" value="" style="shape=image;verticalLabelPosition=bottom;labelBackgroundColor=default;verticalAlign=top;aspect=fixed;imageAspect=0;image=data:image/png,iVBORw0KGgoAAAANSUhEUgAAAnsAAAE5CAIAAABnLnE6AAAACXBIWXMAAA7EAAAOxAGVKw4bAAAgAElEQVR4nOzddVwUTR8A8Nm9O0CQDlEkJQQsyqAVn8fAROwW+7HwsR59bBTjsX3MxxYDFRPFlpZGFESRboM84GLj/YPGI5TjAN/f9w8/H/Z2Z2fOvfntzM7MYjRNIwAAAAC0MLy1MwAAAAD8X4CICwAAAIgCRFwAAABAFCDiAgAAAKIAERcAAAAQBYi4AAAAgChAxAUAAABEASIuAAAAIAoQcQEAAABRgIgLAAAAiAJEXAAAAEAUIOICAAAAogARFwAAABAFiLgAAACAKEDEBQAAAEQBIi4AAAAgChBxAQAAAFGAiAsAAACIAkRcAAAAQBQg4gIAAACiABEXAAAAEAWIuAAAAIAoQMQFAAAARAEiLgAAACAKEHEBAAAAUYCICwAAAIgCRFwAAABAFCDiAgAAAKIAERcAAAAQBYi4AAAAgChAxAVtEzfBc89R/7wfPIpMvrHnoG8O1SJZAgCAZoGIC9ogIuni0uXBRhOsFH7wQIb2yBGMows2+/1oqAYAgBYHERe0OWUhe1zOqW5xd1T5ictTwuiPQ9OSVi+7lkkIP2cAANAMGE3TrZ0HAGrgRW6xnlew99VBO+n6diFywjw9Hr4vkjGdNGesoex3n1NppyYNfTn6hcdU1Z++paTY6XHxKTm5nz/nS5k6De0u+bMJAQCEjpt47/CJdwYr1o1SwxFC5Ncwz+OXnkQnf8VUDO3Gz3cZqtukX2xp6L/r78vMWTm9l3wLZ7gSDdorsigj7RvR2rkQMjL9vwldBx5IqrdcRKb3evv+My7EFfJTPZx7jDiWwBOwV6nvUoMern7sn84HkXp7/dRxtjoyGN5p5r3Cn04HACBkRJb32jGj/n6aQ5b/XRK1f7Qqq8bNNS7Xf9OroqYlRn4N2DJs0DyPOE7LZbgGiLjtFpGyz95ibYhorhNR4b9366s29FQaWc/nBX5bLJRM1gaWh8Bij7GaOkufcwUlFL7BUnWCx7dm5Ybru7wPs4Pjf1+rskN+eb57usvRaD7VrIQBAD+H/PzY1dpoikdG5Y+y8Olqc7Mp2849iErNTgm/4zbasAOGMDGzrW+aWjeSuQ9c9HWdzsbzWyrT1eA5bvtF04jgE7/UsFzyzU3Pd3pDh3YWfF0W+W6ad/DLmG1/WcoghBBiKShKZrx89o74/skIs9cwe1kfD6/cZjzNJdOCQ9JRbytbOaxiC5XruXP/Vd9P7F/qWwegvSDTPFbOPiv5x47xauV1BJX7KEDhn2eXN85y7KOhqmk2esP1a2tM5BE/NjSitImJ4iqOe3c7hK6YsSOspOWyXnGulj4BAE1GJj7z/aQzwKYzQ9CnZcHuf51MNV60+veqJ7dcLp/MTE0RFFVZfSxMGGFPfYt/OjdUXrD/2xJtKytNRmXELQ3xjyyU62/dRwxr8FAAgPBRuV6rVnnRTotnarEqNuGdJm5ZZydX4/co3n2wrRYD76qrK9H0lOVHLp6t/XHPsoNvBdy+CxNEXNB2sF8Hx2PdDPSYAuIZlXN7z8lI8cGzZuqKVW76mpZRRHE4HIEtTnEDIx0qPCCK97O54QQGhnJl+lv3qTwf4oUHhhSLDXCwlvrZNAEAP4sbfvjAna+S9o62Df4Ayfz8EtlByxZZStTemuDrdfHksZPnrz+MyObUPYhhNMrRkB96ZKfXF2FnuxZmi6b+A8i86Ls3niVyFI0HjRnaUx7nfX776uHLOELDdtRIUxWBbZ6WVZIaEZ3KbtIND4aJKXU3N1JhCf64LRSNk+p762FUoZL1RCdzxfJTUt+i79352GWsc1+FNnLfRSZ/TCxRse8qLuAzIvb06UeF4r85DVeuyi2R9CGpBJeXVxD4HTLVtbpKZCYksNGgJs/qJfPePnvg9z6/Y4+RzjZZvqH5TDMbS0lUnB6bnE8iKv1+YAbSHKmYGROTg8tqGmnKtZFvDoBfX1nAmYtvCIa1ne330xOqUbmP7mU5nD63yKCqawqVxZ5dNmn1Izmn2cM1SkKPrndJlBi07cbttZYdq49jGvfrLYde3z99PdN5qVqL/bDbRsQtjji67jx3xMIZM7EHSydZeW/c3/nedak5m4aru48bfiD4RtRuG7HGUxEqboyH29bnRWSTdsZYutMOnZxlIOCjtlC00qjDazxVFi6zuTnJwfFjQMD6HkwM8SN2T565N0Htg0bEnv4dmpAK9SXo0tE7MV/S3sZ8lrVwmr983mAt8YpruvDNjQOHL/unU5KIw+rmMHPFH6MNas7t4aY+PrHrjN83mioj5YzNtIrf8RxPuQ2Xrt2WJXKyPvPllZUEBFD+myvXInks8yG/V8/RpVIjo7LKsD5amoKvYpaSkjQdmZVJ0AqCGs11i1cQeXLpkv9KRmx3nzO40GffJvcy/yTUy8lGEc97fnXvhWgeVRL/LIyUNkq88s8uDOtgseCwa8P32gAAoeH53fPOLmNo6BnI1vtzLv10b8vsv+P771grX12L8CMOTFt8LmXIqZTTcxQRoiZq2fVe+XzLxnNTHi9Vr647xPV1dRhYaID3g8+LFqi2WGRs+cFZjSE/310xe09kxVju0qszpFlSuvO98mkibsdAFsbUWfpM0GDU9qBFi0Yk/2NvsjKwtLH9uBFuLuv9Cmma6+9qyhIffYFdPs6WE/2PoyKzi8vDJkyhIb/47542dMHFhBKKptlhO4bI4Qxlh/1v+RRNE2k3/zCU05l4KjKPoGnul7Ajk9TlzVY+zqocS0ikXpymoTftSlIpTdNk0fsbf43UkpQffT6z7oDk0pvjpCQH7I7/fmYQEb2zDwvD5fqMdZlbxWV4D0mMob7Ap54hiZxXS3uLGfwZzK0zrrg4Mdg3MqP298aO2GWnLmu3O4ZTvjOZe2aCNMbUXf6y+j+IfXeKooSs8+WCxr8vAIBw8d9ts2MhxLLdlypoJgMv1tN1qLE8C0MIIQxXsNroV1DxW845NloM4Sozb5dV7Bq0QlcaMbotfVWnErjpLM1CuPKMO8UtV4zWj7jEu33T172s+C5oMmX/MBauufAZm6Zp8nP0gwdhuSIYst0yhFa0kicrTPV1tOtQV+wgJqdWd6uOTvcx/76vPpbru3LS7vcERROR63vIsUw3x1TNbOHHbDK3cxc4n7UW/vsjY9T7b42uCl38t1vNFDFG3x3xXDL1wkhFafNNr0uq9y8OWmcp0XnitWw+TdM0mX7IvpPuilc17i2IzHuu/UcdSq7zyyn1miDdwdzt7XcRl8w5PkYCY2rP+s83oMpz99+7YLi889Uv9WSb83JJLzHDNSG1ZvKQWWcmyOEYQ3WyZ17V6dn+q/uLMw3/DKwuBNdnmRpTaeqt6vDKfblam9lh0FGBv3cAQIvi3JysjSGM5Xi63om2ZTkxT8+ucugmhiGEsbqv9iu/FyfSHmyePf+A/9eK3UpD1/aQRQy1uY9qNza4LxeqSyLEstr7scVK0QYiLpkTH5dbVceyb07WYchNvF78K8x3FF7RyLL8zznZtWWFb7XssfBBcp3NOTnf2DVDFj899n0eSdOcF6u0mWL9dtaMZ3lnF618xmkkP2Sup7OK4shztZqkxTF3T1z0yyb5URutWJLDTuXUuncgs84OkZI02xZd/i0cG6wqP+Zcbq1IxY3zOP+iqPapOY/ndu5o9Ffwd/chXN/lfZi44lSvGitR8IJcdaVxhQlX8+uLgJz7s/RZZlveETXPQrx3dxDDECbhcCSt4jxE8qnB0kyWxfa46j350ZusWeK/H68uFz9miy2LabLl7a81ARqA9iH/v2GqCGHSE66UNLwjP+nEcA0cIabOEt/a/Vslyb6n1kyy62ump8BEjO+693jBK/WlEWIZ/RUs9NxXaf3nuHgnA8OqP/jR/qFfGKYDrCVbe/YFL3T/rJ0vCvlNGzkl3m3y7kNT9epsF17RcAk55bpD3UmOlBhLUr6TqmqDT2GZXY26I4RKn3t4p2HmC8Yb1Hi+EZ+lZOUs3nB+qDzvWz55+n/bKNccTNCx56gFPREiky49j6eNV9jUfvaKqwywNpTY9uQp2tgb4cpj549wn7bWaTln+8qpdtrSOEIIiRlOmWmIamN0Ve8iXlJYTNYdX0DmZOeTeA9z8+qF2/hRPj4pZarTpzjWO3qpNDe3mNlFXY1Rs4CM7gv/OUfezjSeNLfiEQ6ZesvLj40ZD3fUY1TPu/X3/0j3+MO2qlxUrq/fB1pjvL2+qEcUAAAQxScIGiFEEo2NrWFqz9ky58jTrXHZmekEQmIIIUTmBB37e8PRcPmJa9d5bu14ytpmY/T3R4qJNWHARzO1fsStifwYGJjG7T7F6meWsC9PIf3BiaBuCyca1j8EmMyLuLjjcadt64c3NOyFaeC4eIlx08YqI4yl3EO9kYw1u2jNwo968ioDM5k6Wrv6f5z72res59x6Fy+uQMS9+cBlaHYWOJSATEtKK8NN1boyal+pjK7qncWpN58QQgjhquOPvmSoLlu7/rfjqzv3sXccO8ll3kQLle8SZGoadpP+kp5ehlDt4co0j0dg8lo6ylX/q9xQT+8E3GST69B6889P/JhSpuFoUHd5Vbk+Uzb0qfE3LyzkPR9XNuunX50h9mu/qGKN6da6VeVihwZEFcoOszWHmbgAiB4uJScrjiGazynjN7Yvq1e/vvLi73FZWQZCCPHen508dPkr7XUP/df3k8YQES/4MLq0lEMhhGRkW3CN5TYVcanPfsGxlNKUAYaV2SoNvnxfZtIE46pbj8KHCwZes395frKs4MBFfvK/7sucKzjiErGe+zxjS7Oenboou3Vjw3nBZQ2sBwsafPxzhFC0Zp0+601UGld9WH+d6tCY//BRqeVaxeqdBGeAZrM5NEVRAm89aD5B0hiGf5djjIHjiF/10xDv5rTde7RrrI+X590H3scXnt13cMF/ngedtGv/N3UYYNMTOxTzjkdb1wpsDFk5SYaMrHzVafJ9jnvEa866tqSnoJlE5UXOj32bLjXArmcjbVKKXVDAoTF9Q6PqpHhhQSFsSUtbUzFEvLl0jTNxqklEUEgxw8Lesrw/gf/m+nXuqGl9mzLGGwDQfGI6el0YKI0uLMijUGN1JIZhmJS5ZV8WhqjcS6s3386Qn/ff8n7SDd4u02x2CYFwaW3dzsLMeG2tPp+w7P2tHctcT4WX0Ij69vRJJJfZp3+/ioqMTLl+NlyiS42WPjfI5xGhpif1c+0MpvGEtVu3rp/UW0kk7RRRFq0RdFFRCUIqampVEY6M9QzTmDxEttEMMNTUlDA6IyVZ0EoSzE5dVMSpvC+f66xBQX7J/crFVbvWTknB2HHu1lN3wpM+PHZVuTFv+YWsOotF4V0GD+yZHfAioc5dLNO4Rzcmwa/scOCGHdj3QGb6EffhDdyLlgUFRUpYD7XuWP8u5eeU6dJFBkfS1bN6qbxn155lYb0sLTsiIv5BUJYsg0oKjsykjazLu9apzGvHAlla9Uy/BgAIH9O4X295HNGZKSmNPetj+z5+la82ffkEFRwhMin2YyGNEXxuZSXFLyoqIxBNkmStdKi89NR8PsYwNjdrwReFtXbELfHeOHvr0TO3IwpIbvTlZ0WdlMQ6SJa3b3jJ1w/HDVxZs1blxfiFM63se7Z8b7sQtKWiMXRM+qiwPmdklIcy6ovfwavY+BndazQx68sA02iInTYW/+Jpat3nJ1RBbp6WVT81OjYirKT2b4AdGfa+pKuVXfm5bj7JrBWRxboMXLdtVueIp0F1V37B9cfPtPr88O7H2udiaI0YZlGc/LGQRIjKe7FtkYfkVs9/hjW0ckfJ8zt+HcbNGtn4GhXiAycN18DTExPKbynYoQfWHI0uwGW6qisw+NH3kzWG6DJoPp/AJLV0NVgIcWOPbfO3Wub8fa84AKDFSNoPdVAQp7KTEopq1DZEwlXXqePnb/UIzeIhhBCV//ro9EU3um48s3OwLEIIMdS7qUthZM6NzeuuhLx5fffIwjErH3wrQ3RhQmTo81OnfCqXXic+JCSRNMvCcaR6Sy5L1HKDspqESLow3dJy5s7jBzYtXnn6bUma17Khg2bvOHZk5+pFa86/qxqVRqR4H9m6adlv6vK9J6/bvPXwozTBc1q4L9bYLHrU4HBSzrNFPcSHncwXckm+I+yifZd+yr6BZquCG52PW47M8t40uEe/yZsPH9mxbtmqgy+/Vo1ZbiwDRNqFsd1YGpOupNSY4EPmPt6y8mh0CS98p2kHxVHnar7th0g54SQnbbXrHYemaZp4v3P4cPeQ2m/xISL+6qkx466AeW8F3kt0jf8MqjuCmh26d6LDjK37tix2mrDKK6ns+wNrlTbn2jh1a/d3TZztXBxxdHo/hwV7jx3e/ueSTTc+liVdn9XDbPwWt2ULtr/Io2iaJpKvTTfoPnLTgV1rFiw5FNDiFw8AoC7204U9GXjn2fdr1Bul/quNFDCEECYmp65vqNtVvdeov67H1KxZCv132qmIYwghjKUy4I8r73PuzjTAEcaQNf3jdnJlPUi83zmIhcsOPZHYotP/Wjvi0jRNk+ycpIS0vKrakZuXnljjz2rfroxWsN+fWnsiSvajrTOnTq40aUivLt0dJlb9PWX6X56Jted3iiri0nQzi9YYftLLp2/ZPzLXiCz9nJyQlMsWcEk1mAHys982B20prVHbb7/+lBLvf+Pon+PGrPAqf4ktO2TnUCVFW7fX5VNXyXy/bf3k1Yb/G11530OkHB4hrWCx8HTQ54r/Cc6Hc9N19BY8KhCUeTL9gpPJiJOfvl8Hg/MtNeVzI7G2fMfQjQNN17z6sbfj8gvSkjILqmcDFWam1j4ZWfY5Jflzya/2RmIA2gvy08nBcuIaC31q/TBLMqNe3L/peePOoxehn74JrML4Xz/4Pnzo+y6r4sCiBF+fgMSiGr9lMu2QvQpLf7lvSctOTG0LEbepSh/80bX3+ogGX01KZv43a1nbaOP+iKYUrZUzwE19uHvpBAcLI2PzwVP/vv4ur8Znxe88NowdYGoxcLjjwL5mthM33/5Q8ydB5l6ZZGQxYvKUyROcncY5OzkOtB/3t1dCva1zMv3m9H6TLqX95NInpeG7HOw2BPzQvQgAoB3gxuwdJq/sdDFbyOsicUO39ZLUW/iovuV0hKYdRVzu6zX9NOc9bHgBgvYZcZtUtHaQAZIgGu2RIcmmdNoUB/8zZvS2oB9fLYTMvLvw95kXE5vWMw8AaF+IVI/JPfVm3sgRYucvP+HfoYaWm33rXc1KeFp75FTTkVkBwdlm9hbiCLHj3iU17RUD7UOrF01YGcAZjEYvKPz7qUQCdOz/p8eOXjnv2T+YAzIjhj3y5KnpOjCQGIBfEUNjytmbmxgnXHYFFAolQTLXZ+3yu2YHvDbZNrY4gRC0n4hLxEZ/1LGylkOlMdcef2rOmlQkSaF65pe2DuEVrb1mQBBJ49FjLX70J8DQGDpluBYsCwXAr0tCf9ppz83KPn/v9skV+G7spuPEnF21PcT6wD23IZ1EEgzbzwwHpv4Ac4nk8EfnkjK1p89Vre/bYUh2Uq7vZU5k6sPj5wLjg3yS+cVnlq3L0u89du1kk9avnptYtF84AwAA0HS4gsU8NzMej2pmZSXWfereo+IiDIMYTbehxl4jSHZmamFHTTXZn50uRXBKCGYHCSaOEEIkt4SLSUm2fsBFSAhFa/cZAACAX127irgAAABAuwUdiAAAAIAoQMQFAAAARAEiLgAAACAKEHEBAAAAUYCICwAAAIgCRFwAAABAFCDiAgAAAKIAERcAAAAQBYi4AAAAgChAxAUAAABEASIuAAAAIAoQcQEAAABRgIgLAAAAiAJEXAAAAEAUIOICAAAAogARF7QhvASvnUd9C3/sIDL5xp6DvjlUy2QJAACEBSIuaCuIpCvzlvv1mWAl+2PHMbRHjmAcXbDZL69l8gUAAMIBERe0DWVhbi5ntLbsGK7C/OFjJYz+ODQtafWya5lEC+QMANCeUey09ymFbaMTDCIuaAu44bvX3OmzYW1fqXp3IXJDrhzYsnHzgduxxd99iHcZ5+7C27bqerM6lyl2+rtw/2fet65c9okvbUZCAIAWw0m6775254O0it86+TX88s5ls5xHjnR2WXvYJ4ldtSOV//7+/mXDjbV0HbYH8mkBSZWG/rti46WYfNFkHCGEaNCekEUZad+I1s5FOTLn+T+uC9dfiimhmptS+oWRaoMOJvPq24HI9FltbzXjwttiftr5cWaOx98L+A5KfZca9HD1Y/90NojU2+unjrPVkcHwTjPvFf50OgCAFkJk+qxzHP3380yy/G/2m/2/a7Ow6oiGy/Xf6J9P0zRNpD49fWjLWEMmhhid53hzBFdT5NeALcMGzfOI44gk/xBx2xUiZZ+9xdoQ0VwbjSASD1uzcITJjL/WzODEj3UbpDD0eBZZz+cFgest1Pqsq4ilxR7T5HSWvOJ+//vhh2+wVJ3g8a1ZmeH6Lu/D7OD439fq3JBfXu2YPvdYdJv42gH4v0V+frbSrOeUa6mVP87Cp0utzaZuPfcwIjUnJdzLfUw3GQxhYmZb3vAr6gde4AZ9JtZAxKVpmsx94KKv63Q2nt/yRYBe5faFphHBJ9rEEwmGxtBFi5xGTF3/x2/1dwU3Bfnu6vWYXsOGdBJ8MRa92LRs/5ehO9dZl59GTEFeKt33yTved3syew2zl/Xx8MptxtNcMi04JB31trKVq7ptpnI892+/4pvAbhNfOwD/p8h0j4WLzirOd3PWKK8qqJynAZ23Pbu8adYwU41OmmZj112/uc6EhfFjwsLLKg7CO0pJYfWnWb6PiuPe3Q6hK2bsCCtp0RIgeI4Lfh5Tb8qhG/cvrbVTYDQnGSrx1fNPnS2tuwi8FsuC9684GW+2eOXvshW/G5rL41JZqan873dm9bEwYYQ99f3+OW+TM5MX7P+2RNvKSpNR9TMtDfR7y5fra9NH4qeTBQA0D5V7/e9V90vGLp2uXVnf4Krjtvw1UK7GTmLG9raaUgyNbnrilZsYDAZqLOQiJD9y8Wztj3uWHXxLCHrcKzwQcUErK34d9g7T6a4nJuAzKtdz9/k48YFzZuhX/sqoL2mZRRSnjCOoxSluYKRDhQdEfd/+bSJOYGAoV6a/dZ/q3PCi/EK/dLAcaNvorTIAoIXwog7vuvdV2na4nUxDuxEFBWzJga4LLMUqf61YjZ8tVRD7+OrZS/dCkgvIOgcyjEY5GvJDj+z0+iLcjNfx4zMxWgI36/X9h2HflGwnjOwtX6PBRLLzilgK8uL1H9ki2KlR0alFZFPudTBMTMnAwqiTgO+x9QvFTfH18o7KV7EZP85MuaIf5lvM7TvvNcY6WzSvYSo8xKePybxOpuqCvg8y9sK/PpmSv/09QrnqC+YnfEglcTkFeUH5Z6prdZXITEhgo0EKTc0Amff22QO/9/kde4x0tsnyDc1nmtlYSiLETotNKiARle7tn8HTGqWYHhOTgctoGWnJwm0qAKJV9vLixbgipoOtnXQDN75U7n3vTKd/zy0y+r52oDN91s6YfyAog08jjKliu/bc1a3DO1fvxzTu11sOvb5/+nqm81K1FvuNt4GIWxp1bM0V1rRF/d/NsR/5IcB3jXF5hx6VfWG81YLkqSFh23ozRdm84EZf3rXlxdemdS5gLN0pR47N1mPUzmHrF6os4tBfNzrNdrXxHjFoVELgq/U9xBHihe6eO2lvlO7Hru93WzWSACftyb97/wvKpakyUt7ITLP0HX/IKbcR0pWfE3nvn3he9Uo1ctsxSRWv3hr38r7XnUdfLHcfmKr08c6xff/djchhdPt98c7NE/TEvy8ymZX5lZZXUhIQQHkRV7yieCzbob8pVaVPpodFZpFIR0uLJSjTLCUlaToyK5OgFZrw9VIFkSeXLvmvZMR29zmDC332bXIv809CvZxsFBlUXsjlvefe8Uh2/Ku3pFSPT9f27MKxDuaLDrtaQ2MXAJHi+t16mk3iGvr69S+PU5Z4223Wxjf99yyV/y5e0rx3B11iJfrM/Wci8+P9i2eeffTdOX4k41nA1gFVz4rE9XV1GFhogPeDz4sWqLZYZGz5wVkN47/bu3CDX1H5QFMxidEXiytHlOVdGd1RTNb5ckGr5u+ntFihiOR/7E1WBpY2uiMvYu+MDS/ZNM3z/0uPKTn6YsUJOdGHBimKd3a539iJ0i6O6643/VISh6JpsijWa/0QfUnZ0edyK0bzkR9urBzZR4GJsaz3JtcY1Zvz4tjy4UaSGMtyi9eJOb/ZTVx14MKVi3tdekuL67u+KBNwptIrTuqsAe4J30/34cds7iOPcLk+Y+fMreIyorskzlCf/1TwyEPOq6W9xQz+DK47krk4Mdg3MqP298aO2GWnLmu3O6YiKTL3zARpjKm7/CW3xk43J+swZJyvFNQ3kBoA0ML4cdvM5BESsz2QJOh3yI27unqogVL5HCEMV7Dc/LKqgiVi95izcKzjgC0h+ZWbMm679GFhCFdw9vhWIz32TWdpFsKVZ9wpbrmitHYblx959a3WVNeOiIh78Og9bTCwV+UtBy8sJKKMYT7QRrrBBNoioRSq9KmrzZJ7+XWmbRNFObnkBOPbtR96Yph4rz9v317cvXID1//yG+MFy6QQEf7oVQrqPrVy1I9478X7//BaIqnb8MmpLO9zDynHJ+O0xTGEMGmjsTu8+/dfNvm0Z+qMJd1whHB95313bLr93msFt+ZxeKeBiw727PCh6/zgK5fzT557bq/GQAihMcofgkd53Qh2tx/4XTOXwcBoPp+PaFR7gAP1LSw4vpipOWXZitn6lV0IPP89nmVIup+tuYDmMkII0TSNcAZe6yaXyj7rYjbvRrHKpKtxl8dX3ACXBGz9Y3NgxyW+S3pWJIXLqanKMOT62ZrUeIgb6fv6M8vcxk4aupIBaCVkQnxiCcIwaVk5Qb9DMcNJe27bz/SLU7IAACAASURBVAx8cGnXtiPP0/OCdyx2+z18r6Vk1R64tKFF78rmMUNtlPvakbdmehUEPAsqnTKiY8V2lqKSHAsVFyQmZCOk10JFae2Ii6tPWTfPgIHxQz2vx5QYr3cyrugMJOKDInIxw3l2qu2vqhNKoSQd3J8HrOPUfppMZ55ynpW9/v5ms1rjZjFMrKNSzQeXDN25G0z1xBDX78LVt8hs3QSjqiDC1NDsY66p3sjZWSwmyktJzqesO1RkldF55IGTxVdSS1C3itsFXEpKkoG43x0r2UEcMXrM27W6ItwihMR0dLtgl7Mz6w5XQAjhHWUk8dIS9ned+OSHj4kELWM5cqKtdeVPhxdwK70Uk3dyHiJXd/cKbDaHlpSs3e9LF37+VkrTVMHnXDaF5HGEEJlyZeuJcMpks0u/DpW7Ee+DIj8zTK2tqic7kR8CgzJ4hrPsVNrfVQjAr6KssKCMRKijlFS9o08kVI0d5u6yG6Q/pu8i728JXtdC9loOrG9nXNHGro+s16v89IxihCojLiYh2YGBED8/79uvG3EZnY0MEUJcf497CZiZ29QeFRmivvj7J9CaE+z1BD6ua1Hc4H0L3F9+aeLIKfFuE/fun96t5pUgnELhEnLKdeejkBwpMZakfCdV1Q4Cj6nE1DDqjhAqfX7jdhrfYuE4/erHzLzYbDmb8ZINHIwQwlVGzHP6Z9qf45eXbV85xU67IwMhhMQMpswyaELOEUIIYTXHCCImg4EoWtDwYoaGRifsWVExWfdiJHJyv5AME4saNxf8tw98EmlVp+nDFes5a2lubjGzi7parcfqjO4L/zlH3s40njRXvfwcZOotLz82ZjzcsfoBPJXr7/+R7vGHbfUjZSrbNyiWUp9np9/avxMA/n9RfIKgEUIkIeCWvRamzrTN808/cQ/JzshoaD9coZNSBwwV4VjNW2kxsZYfMNQ2ahL+mwc+SchsnVO3ylDEDvaLLJAbYWsm1uSvgMy4eyKw+8IJBoz6DiHzIi7ueNxp2/rhDS7ZwDIcMX9pj6aNVUYYS9moq8AbL6EUqll44U8CclHvxaN1qjPIDX9RZrSsofF+CCGE8E7jz3gzNruuXTXk+J+deg8cPnbS3PkT+6oIf4AzU9tQW/JzRloZjWp3FNM8Ph+T19ZRrvpN8EJv307gmW5ePrS+/PMTP6aUaTga1L2hkOszZUOfGn/zwkLe83Fls341Qin7tV9UscZ0a93q64cd5P+WLzvAzhxm4gLQanApWVlxHPH4nDIBs/BrE+tlaSqPh+JyDb+BjOYTJMIV1Lp2rLGttJRDIYRkZOWbm+P6tYmIS+VEhKeUqQ220Kh6XBce+JrNsrCzrG7KFT5cMPCa/cvzk+ubnEEmv7juKzl3goGAqEDEeu7zjC3NenbqouzWjY1kB5czsPytyW25+ginUM3MQWQG0phoqV3dpM73fsKzXFajS7bw3vzhNwbduzTpu1ajuI7TrrujV8f53Lpx98HDE/Ns9h+Y+9+tg04aQu516DBggCm27807LrKu1XBnyMpK49KyclX/nfn3j3mmaE6/80fv+q5aKj/2bbrUALuegub21tyPXVDAoTF9Q6PqOUm8sKAQtqSlrakYIt5cusaZOLUfeuMf+lWsr611BwwhhHjvPDxLxk/r10jiAADhEtfS1ZBEsaWF+fkUUmykrsQwDJM2tzZvaB8iNTm9FJN1+M2qRp1Ds9klBMKltXU7CyPTgrWJx1N0XkEBjXXq2rmyJuVFPvbPoo2sbatnhXCDfB4Rano/OTGDaTxh7dat6yf1VhLZxI6WL1RjqOKiEhKpdKl6moqI9x7hqtOH1LiD44be9ylR1+0o6HiEEGIoGjnO33zqXkjSxyeuMt7zl1zIEvZah3hn+8E9C/1eJtTpMWIaGxowyaolLblhx3Y+wF2O7BgmX+/XVRYUFClhPdS63uJUnlKmSxcZHEnLV01KpvKeXXuWhfWytOyIiPgHQVmyDEQlhYZl8nrYWCvhCCEq4/qpYJZ6m7hFBeD/CqN7P1NlHFGZySmNNXLZvg/8C7SmLJ/QUNSkEh/7xHJ7LnZ1qjESi8pLT83nYwxjc7NGHro1R5uIuAztHj3kmYV5FeuAcN+d3ngmGulY2lXPueTF+IUzrex7inRibrO0fqGYWuZ9VLHPmRnlFyn19dWhq+Ljp9bsdefHBIYw+w+q2yakvr7wepJTa3ViMTW7de4zOwc9D+QJexU0hu7UWZYp3vc+1u7HZ2gOGWVBJCUUUghReb4bFl1U3nZl/zDl+hMqeX7Hr8O4WSMFjmesRXzgpOEaeHpiQvniVOzQA2uORhfgMl3VFRj86PvJGkN0GRjN5xNIUltXg4EQL/a/jf6mK50FL0UJAGhJkvYjbRRwKifxU1GNreQHT9dJE+ZvuxySw0UIISr/9UGXRXfl/r7gNrhj7YkPhZHePskVS9EVRx1YeiTVwf3SxgE1190hPiQkkTTLwnGkeguuDtQ2btllhrudXDZry8aVB8YbkrkZ35IKypB8f2sTMQwhMvXh8QshCQEe8TLWr9y3few/e+FQddEPp/pxLVIoDMNwvKm1vtQwtwOrZqxdN2fzdMsOGQl5XcauXmJSMdCYTHly9GJgkv/lVBmLl+7b3/efsXSoVuWBuIJqyqHZe+Su/dVXtvrCxTEcZ7FqBmearvynJoIgESKJWuuTEgSJaJIUPPABV5+80Gnf6rOhK/cOqHF3ydBbtO/PwL/+2snulhkYK73B+95Y3QZ6dKncBxdfKC14NKgpN6gdh7rd2r948Zrl8uOMOYkf+f3Xenn+vmjUniu7d77Mpqe692IihIwmu068tu3y3kPJ/LiMzvP3zNNpI+t0AfB/Rnb49PEaniejQ15zFoyUqHxOl/P2yf1bcddv/LdjSVftLuJstqT5VPdnpycYVa8EyTBwOXm+dNee46fH9/MfPNROXyI97L3YqFNhqxw61/o5k0nBERm0tMOM8d3qHQkkDC031feHkaW5ySmfOWS+5xxlpuKEa1+qP/p2ZbSC/f7U2i9TInMebHGZMrnSpKHGXQwGT6z6e8r0v64l11pXgfNsUQ/xYSfzaRH60UI1gp/08ulb9g+9j5Ys+ZySkJRTImDq+Lfzo7TsDiQK+IRIPTyws4LFgtMhORVfYdnHc85GeoseVEwt5xZmvrk6s5sUQ23CmTdp+ZVrRvAL0kNPTO3KwGXtNz79kFtG0zTN+frhxVb7Ljijq9PxoNR8ge+8I9MuTDMacTz5+3UwOHkpKblNeE8eJ3TjQNM1r37s7bj8grSkzIKq/wF+YWbq59rLdJBln1OTP7Nh/QsAWhXx6cgoOYbmwqe1lqcoyXjz4t4tzxt3Hr0M+ZRX7wu2aZpfkPbO/+H9p6EJ37iCPifTDtmrsPSX+zb7bd8Nw+jvmigixos5NWveaf7Ms9cW92QghKj048MGuGZMfh6xx6ryXqbMe4n+Btm74W6mDXTAUtnHXXbrnjjwWz1rIyDEfb7Y3DFlac7D+fXN5hQWoRWqRZU9dtH/q/PdYDfT7xc1pj5fdBl49EtvPRmSxyUR4nzNk7BZ4r7BqXylRvL99Y1HX+WXP2PFpPrO3zG7jzhCZOKNnftfVD7qZRpN3b3EmhlxYtXZNxUreeBK9ku2TzQUkBkq8/rMybeHXLgyTfsnem7LInaP/LN4q/d2K1iCEYBfEi/2n9+H7FHcEXNjptBXaeCFbbewv2R5K+j4UCUhJ11Hi8bzJuD6u5oycWnrPdF8mqZpMufWfC0Z07W+NRui3Ndr+mnOe9hIQ4fMOjZr+ZP6Xzsswjau8ArVknivNxlrzn3c0DdWgSRF0sYrCnEfM3Z70A+vgElm3l34+8yLiQ3c4QIA2j0i5foUXYOZXplCro/4Cf8ONbTc7Fsk3GQFafWBIEytnj3tV9++92dvJipL8FzptOPz3Ft3d9jWaIWSWQHB2Wb2FuIIsePeJTU2CboNaBeFIjMCQnPNbPuKY6g4/m1yQ2MAm/7ouFmk+667vMMo50Ppjx1GZsSwR548NV2nPTzdBwD8LIbmhLMPtjAPLtgVnCe0RMlcn7XL75od8NpkK4IVhVt95BTedeahg14Xjm4PoBniMl0dL/oP7iZZu2OQiI3+qGNlLYdKY649ThrRvcdPn4wkKURRLd+NLtJC/SziTVSSsbWVDCqLvv4kdcTiniLPgQBShk5jf/QYhsbQKRotkRkAQBsjbjDplJfe2b1bdhevW/17s+cOcGLO/nUq3fbAvbH6onkpbKtHXIRwWWPnZcbO9e/A1B9gLpEc/uhcUqb29Ln19+AzpDopywh+ikemPjx+LjA+yCeZX3xm2bos/d5j1042acGlDIRWqJbDNLTsJZYc8fBceob2pPkt93YqAAAQHlzRbO4uEx6PEkKtKdZ96t6j4iKs/Fp/5FSTkOzM1MKOmmqyPzs9g+CUEMwOEkwcIYRIbgkXk5Js7bWDml2o5uegODOtqKO6miyEWwAAaHHtJOICAAAA7Vyrj5wCAAAA/i9AxAUAAABEASIuAAAAIAoQcQEAAABRgIgLAAAAiAJEXAAAAEAUIOICAAAAogARFwAAABAFiLgAAACAKEDEBQAAAEQBIi4AAAAgChBxAQAAAFGAiAsAAACIAkRcAAAAQBQg4gIAAACiABEXAAAAEAWIuAAAAIAoQMQFAAAARIHZ2hmoi8gJ8/R4+L5IxnTSnLGGsq2dHeH4JQtVjirOiItPycn9/LlA0sR5iKEE1to5AgD88riJ9w6feGewYt0oNRwhRH4N8zx+6Ul08ldMxdBu/HyXobqSTUmmNPTf9fdl5qyc3ku+hTNciW5DiEzv9fb9Z1yIK+Snejj3GHEsgdfaWWo+4RaKLMpI+0YILXPNRqTe2DTVyV5HEseVZ9wtoVo7PwCAXx2R5b12zKi/n+aQ5X+XRO0frcqq0V+Ly/Xf9KqoaYmRXwO2DBs0zyOO03IZrqENRdwCvy0WSiZrAwtpmqbpYo+xmjpLn3NbOVPNJeRCESn77C3Whojm2mgyXsDybtKSjqe+Vm0hvzx3m+1yLJLfirkCAPx6yM+PXa2NpnhkVIRbuvDpanOzKdvOPYhKzU4Jv+M22rADhjAxs61vmlpPkrkPXPR1nc7Gi6C+ajPPcYt8N807+GXMtr8sZRBCCLEUFCUzXj57R9CtnLHmEH6haBoRfIISWg6FgUoOC03j9bKxkavaknPH3c3DN6G4bWUUANC+kWkeK2eflfxjx3i18thF5T4KUPjn2eWNsxz7aKhqmo3ecP3aGhN5xI8NjShtYqK4iuPe3Q6hK2bsCCtpuaxXnKulT9A0ZcHuf51MNV60+veqh5xcLp/MTE0hWjNbzfNLFup71Df/oBha09Jak1G5qTQwKIIv29+2t1hrZgwA8Euhcr1WrfKinRbP1GJVbMI7Tdyyzk6uxvAR8e6DbbUYeFddXYmmpyw/cvFs7Y97lh1828JtvDYRcamc23tORooPnjVTt7KKpr6mZRRRHA6n3baSfslCCcIJ9I3iyvW1Nqm6vrnhfpHFEv0H2Ui3Zr4AAL8UbvjhA3e+Sto72ko1tBuZn18iO2jZIsu6EZcoTA1/fP3sues+4al1278Mo1GOhvzQIzu9vgg303W0hbHKROzp048KxX9zGq5cdQNAJH1IKsHl5RUYDR3ZQtipUdGpRWRT7nUwTEzJwMKo03ffYxspVGlmeklndeXvbqx42cF3Hxf0mTxMT/wnUiXz3z7x9ov/1rG3o7P1F9/gXJaFtZUEVpwWl1xAICrjvn8K0rZVTH8Xk4HLahlqyrbG/yIA4FdSFnDm4huCYW1n29B0Dyr30b0sh9PnFhkwajR8qa9Bh5Yvv15qOcRC8Zv/1oUuDIc/T53bOLi65mYa9+sth17fP30903mpWos1RdtAxOW/uXItkscyH/K7SlUxqdTIqKwyrI+WZitkkBt9edeWF1+b1rmAsXSnHDk2W49Re1ZMmygUmXZp3Q5ixfHZynU/Kbq7dOhUL3IYSrs9S+GHLi6qMPzM0kUn2eO2uM8eVHT/0CZ/dkAqt+dsa0WU9/zS/guxpRT747O3xdI9P13dswvDOlgsOuBqLSO8QgEA/h/x/O55Z5cxNPQMZOudglj66d6W2X/H99+xVr7GXT715cEfw2ZHDXvwbFu/jhhCBbo5fabdcpuyVD/22tSq5oi4vq4OAwsN8H7wedEC1Zaqo1s/4pJxT3wSijGpvBebF72p/CbprNfRBNbZ1EKHIfr5neLWG64/29CsJNpCocjUK396yK+/py0gonYcuGSF/aud2RmfCaQg+GFrcVJoZGGXfiZda3bNlIYfHDNsB732+eNVfcQRQnP+fDvK7AClucxGh4F3+H3Df78jVHJrrubDRId1l65OUmyRggEA/u8QCaFvPpM0pq6jwxRQf/Ljbqz9c+v553H5fBoFOvcL3nDHe6uNLIYQKvXds+JM+m9XVvTrWH6gjLWDqbRXWkFCfBZFK+MVqeHqWuoSjJCSyKAQzoLRHVuoGK0ecamvwaHxBENzzJIVs7tX3pZw/bc9LMNk+tmb/UyfZ+sTRqFKn7raLLmXz6/d1CaKcnLJCca3a0dJDBPv9eft24u719hW8tT9P4m5N0zEKq4nKuvJQS/mrMWDFHCEcCX7Tac2BMwoqmeYAJV9aarZ3AfFipOvvfFwrmwilwRvme0WqDT71dLeFUXAZdU6SzNkTWxMqx/ihvmGFzJNG+75AQCAH0HGv08jEMaUlpEX1CvHMhq//7bt7ICHF3ftOPwiMS9o1/wdv0XvsRFHpc/O302mjZZZVtVIuMb8Ey+6Ts3XG9y7ZvBmKSrJsVBxQWJCNkJ6LVSMVo+4xIf4FAKTtRw13taqsu+RH3wrqRiTGzZuqEKr5u2nCaNQkg7uzwPWcWo/TaYzTznPyl5/f7NZrUEBGCbWUal2sgVPLr8xXXC4qj+55MmWlese9O0+b+BwcQwhhBidu2krvBV0t4gQQoVfv5SSNFWQm8umUHm/C5lyfteJ2JI+brP7iVceRXwMCstmmi+x7lC15ZNvYBpmNMZeBZ7dAgCEpaygoIxGSEJKqt6aRaJTz8Gz99rb6462X/ww7dMtzxA3a1s8KfLtVxozkJapcRxDxWzkuLqHYxKSHRgI8fPzvv3CEZfMyc4n8R7m5tVrcvGjfHxSylSnT3GUa5Wh1NzgfQvcX35p4sgp8W4T9+6f3q3WVSCUQuEScsp1B9uRHCkxlqR8J1XVDo2UIeDFR9ORfSsbuKjMz/NeIiVuUyNBoriYkpISnBm8+5x/z3LvZBlMddGq2INMu3UtiM0wGjZCr6qsVE5wQHyZsbONEl61JdA/rkR9nq1+fbEcAAB+FMUnCBohRBJkI3sytedsmXPk6da47Mx0AiFWUWExQVNfc3MIpMtq8EgxsZavtVo94tI8HoHJa+koV1Xj3FBP7wTcZJPr0B+bXEJm3D0R2H3hBIN6n5KSeREXdzzutG398AYHl7MMR8xf2qNpY5URxlI26lr3pkt4hfpJZOKbT51Neld1X5Mfo6PyeB1+N+nBqvxy+HFvM+TNFeu7X5Q1nbrOtOYGXlRoTCGuPKqfQXWPNjsgMJLsOt1GtyoVdlBwJF9mmL0ZzMQFAAgNLiUnK44hms8p4ze2L6tXv77y4u9xWVkGQpi0bEcmomL9X+Wu0e1as4VBfYkMy+/RT7+yrqJLSzkUQkhGtgXXWG71iMuQlZNkyMhWd83n+xz3iNecdW1Jz9qPOwsfLhh4zf7l+cmy9bQRyeQX130l504wEBBEiFjPfZ6xpVnPTl2U3bqxkSzhcgaWvxn8aEFqEl6hfhKZ95XdUb9Djb+/FSD53yaNrGqMckPuPFO0ci1/8UATskGxCws4FN7b0KgqZiNumH8ku6O5jZkEIt5eulIycYZJhH9kMcvczqr8loYX43GTM35ydVMbAAB+hpiOXhcGSqMLC/Io1Fh9iWEYJmVu2ZeFIVynp6E8Hp384t/j4dPc+la/aoUbfvT0q4mH+lUdRLPZJQTCpbV1O7dYKVp/BQymcY9uTIJfOYKHG3Zg3wOZ6Ufch9e5zeAG+Twi1PSkfq7uZhpPWLt16/pJvZVEUveLplANYKioSr2P+VC9thWGMbWnrHBWrfj/ZofvXveg17xxnfCmZgOX6dxFjoWk5RSrOpDzXl33ScFNBlhJYmScT3CuNINMDQ7NQD2tbJQYCCEqw+vfYEwLupcBAM3FNO7XWx5HdGZKCr+R7ke27+NX+WrTl09QwRFCUoMn/qbKQJw3+2ctvhxfSiOEEFUQfWbJoiCdMQbV/cxUXnpqPh9jGJubNem1Qz+n1SMuQ2vEMIvi5I+FJEJU3ottizwkt3r+M6zuJFFejF8408q+Z/uovlu9UIxuwwYyzq49GFmEEFUYcWbedj9m2ZtXb/IphEo/3l0zfPL1HlvcHRV/IBvi1hPH6OFpSQnl9xHF4Qddj0ZxCRl1dQWcF3UrseswXQbN5xN0B+1umgwMcd8f3/jS6k9nlVa/xAAA7Z+k/VAHBXEqOymhqEbEJRKuuk4dP3+rR2gWDyGEqPzXR6cvutF145mdgysGJ8uOWO8+RpeFOO/PzeytadDXqn8vLZ2+yyOGbF5Q8xEk8SEhiaRZFo4j1Vty1GfLvyyhUezQvRMdZmzdt2Wx04RVXklltT8lUryPbN207Dd1+d6T123eevhRWj1vu+P6LbNZ9ITTwAvjOM8W9RAfdjJfeFmvn5AKVQeRsm+g2arg0ibsynl3YqqunJKWvp7hIFevlKLYE1N0pGXVdLoqqZlO2/c8i/jxbBRFHZ1g5bBw97HDbn/+selGYkmSx4IeJs5bdqxY4PYsj6Zpmki+PNdAf8Smg7vWzF96KOhrQ6kBAMAPYD9d2JOBd559v7h6W6n/aiMFDCGEicmp6xvqdlXvNeqv6zHFdQ7lJnutGKhc8UQMlzZwcn+eXvutp8T7nYNYuOzQE4kk3YIwmm4TL+fh5qXlkCqa3w3OrZB3dYzeKbuop64aNR48U7ne2zdc+VBaUQA6P8YvubONaeUaIhhTa9S27RO1qu9XuM8XmzumLM15OF8OicLPFKoRRPKrVyUWDj2a2BHN+ZJVIt1FsSIDvIKMjCLJrhq117z4wWwQBRnppR3Vu8iV700UZmfx5DSUq58ZU5yv6TmUsoaKJLRuAQDCQyWeGmK+7OOkux+OD6muVUuzokMiE79ymNKKXfR6m3RTqK8iIwqSI8Pi2UqGZj21ZOvsRKUfdjBflTX5WdQBW8kW7EltKxG3YWXeS/Q3yN4NdzNtoOeTyj7uslv3xIHfxOvbR9QRt2FNKtT/TTYAAKAxvLf/jLHb0+FQzPXpQl2IkRe23cL+kuWtoONDlYSY7PfaRTOEF+MXzuhrbfxLhYQ2Uqg2kg0AAGiUWE/XE0cHJ2xfdydXiG9gIz79t+lqx9X/7WnhcIvaR8QlswKCs83sLcQRYse9S2psAnT70EYK1UayAQAATcHQmHL25ibGCZddAYVCSZDM9Vm7/K7ZAa9NtiJYLKE9RFwiNvqjjpW1HCqNufb4U3P62EmSQhTVJrrRhVeoXyEbAADQRBL60057blb2+Xu3T3NbupyYs6u2h1gfuOc2pJNIgmGrr4DRBEz9AeYSyeGPziVlak+fq1rv98KQ6qQsIzhmkKkPj58LjA/ySeYXn1m2Lku/99i1k01ac12kphbq/yMbAADQdLiCxTw3Mx6PamaVJdZ96t6j4iIMg+1j5BQAAADQ3kGjBgAAABAFiLgAAACAKEDEBQAAAEQBIi4AAAAgChBxAQAAAFGAiAsAAACIAkRcAAAAQBQg4gIAAACiABEXAAAAEAWIuAAAAIAoQMQFAAAARAEiLgAAACAKEHEBAAAAUYCICwAAAIgCRFwAAABAFCDiAgAAAKIAERcAAAAQBYi4AAAA/r/wchOS8kjRnxciLvhJVHHGu7CAZw+8rlz2ec+hWzs7AID/D5yk++5rdz5Io8r/JL+GX965bJbzyJHOLmsP+ySxGzyYyn93d7eLg56O2SqfElQa+u+KjZdi8kWQ6wo0aE/Iooy0b0Rr54KmaZpIvbFpqpO9jiSOK8+4W0K1dn4AAL8+ItNnnePov59nkuV/s9/s/12bhVVHNFyu/0b//HoPz/A7v3e+qRQDYVJjPQppmia/BmwZNmieRxxHJPmHNm67QqafnjZuTwS3tfOBEGJoOG+9fM1tZGcpib7WVpKVlzz19cWOOXOPRxGtmjkAwK+H+vJ8zajVadMPbx3UBUcIoaJnf/3hoTzrlHdEak5KuJf7mG4ydEHI7hWHYgjBvW4MNZuZrqsn9JSr2oIrWm08v5LaOmrKuQ8iqLUg4rYvNI0IPkG1djYqUMlhoWm8XjY2VdcvlXPH3c3DN6G4rWQRAPBrINM9Fi46qzjfzVmjPG5ROU8DOm97dnnTrGGmGp00zcauu35znQkL48eEhZfVnw4mJdWBUXMDruK4d7dD6IoZO8JKWrQECCIuaAbqm39QDK1paa1Zdf2WBgZF8GX72/YWa82MAQB+MVTu9b9X3S8Zu3S6dmV1g6uO2/LXQLkaO4kZ29tqSjE0uumJN5AUjn8X9+RHLp6t/XHPsoNv62kcCwtEXPDTOIG+UVy5vtYmEpVbuOF+kcUS/QfZSLdmvgAAvxhe1OFd975K2w63k2loN6KggC050HWBpRhW+wOyIN735vn/zt/2+1QoaIgyw2iUoyE/9MhOry9CzPX3mC2aelNxUn1vPYwqVLKe6GSuWH4DQ32LvnfnY5exzn0VRH5XwE6Nik4tIptyr4NhYkoGFkadBHyPbaZQZF7skwe+8fmSvUaOc9BpXiwk898+8faL/9axt6Oz9Rff4FyWhbWVBFacFpdcQCAq475/CtK2VUx/F5OBy2oZasoyGk8TAAAaMXEZaAAAIABJREFUVPby4sW4IqaDrZ00Vv9eVO5970ynf88tMqpV7xTHnFrssilIevRkW9n0K+5/kcpEEUJ1qiamcb/ecuj1/dPXM52XqrVY/dwGIm5p1OE1nioLl9ncnOTg+DEgYH0PJob4Ebsnz9yboPZBI2JP/w6izRA3+vKuLS++Nq1zAWPpTjlybLYeo/Z10EYKRRWGn1z5x/nSSTu3TR34xdN9fYhy5vHTEv+895go28CFW19aZ5YuOsket8V99qCi+4c2+bMDUrk9Z1srorznl/ZfiC2l2B+fvS2W7vnp6p5dGNbBYtEBV+sGb0gBAKBxXL9bT7NJXENfX7befcoSb7vN2vim/56l8jXjJZlyfqbzsugBVwL+c+rCQohccW1u32n+CEnWOV5cX1eHgYUGeD/4vGiBaotFRpGMiG4AN8LNZb1fIU1z/V1NWeKjL7DL55lwov9xVGR2cXnIbuUM/owWKxSR/I+9ycrA0qbtXRK2a5iy8tB/E7jlf5Mpxwd1YDI0Fz7nNDSZpygx5FVkelndtPbZKynY7Y2qGENP5p5x7Iox9Jb7VWeGfdNFkSHnfPVr0wsEAACN4MdtM5NHSMz2QBIp4GNu3NXVQw2UyucIYbiC5eaXBRUfkdmXp6swpH87VuNAXpCrnnTV7KBq7JvO0iyEK8+4U9xyRWnt57i81x7v9KdbSiMy9tHTJGTcx6Tiibd47+Xuf/TR09Vrh0NwhFKo0qeuZgbddGrTs3UPiT07wbjO5m7dDMcei6+TQEmA++zNL9QWus3XrTgdrqyuJsWUHWDfV7zeBi6VfWmqmc1Ai74uN2s8zygJ3jLbLVBp1s6lvSuKgsuqdZZmyFrYmFY/xA3zDS9kmtrZ1n8bCgAAP4pMiE8sQRgmLSsnKGKJGU7ac/vVq0en1g5Wl0RUXvCOxW5BpQghRH46f/TRF2Q00KFGPzFDu5u6oC5GlqKSHAtRBYkJ2S1UDtT6vcq4jsvmnvoMjPvyytX4UtNtzkbMymDA7KplYaah3to5/AlCKZSkg/vzgHWc2k+T6cxTzrOy19/fbCZRczOGiXVUUqh1OJl6fsvZWNJk57SeVSfjv3kdUsCwGGhdtz+lpsKvX0pJmirIzWVTSBlHCCEy5fyuE7Elfdxm96sK1cTHoLBspvkS6w5VWz75BqZhRmPsVeDZLQBAeMoKC8pIhDpKSdVbt0ioGjvM3WU3SH9M30Xe3xK8roXstRxI5fo9jy7AGKpqaqwa+2KYwBYHJiHZgYEQPz/vG0J6Qi9EudaOZ8yuRt0RQqXPPbzTMPMF4w2qv1F+fJaSlXP9rbEWww3et8D95ZcmjpwS7zZx7/7p3WpeCcIpFC4hpyxRZxvJkRJjScp3UlVt5DEwmXr/un8u03j2MJ2qS41M9nudTBvPsFNuoGcD7z7n37PcO1kGU120KnYj025dC2IzjIaN0KsqCJUTHBBfZuxso4RXbQn0jytRn2erzxT9fxkA4JdF8QmCRgiRRGMLITN1pm2ef/qJe0h2RgZCiExNTSNIGqfoJo3KERNr+bqrtSNuOX7Uk1cZmMnU0drV+eG+9i3rObc1ZpmwDEfMX9qjaWOVEcZSNuoq8MarVQvFCwt/w0fKFgO6V11DVF6A/3ta29lOm9XgobKmU9eZ1korKjSmEFce1c+gujOcHRAYSXadbqNbVXR2UHAkX2aYvVk7fAwAAGi7cClZWXEc8ficMn5j+4r1sjSVx0NxOVmEKmbe0lR2ehofGTVWM9GlpRwKISQjKy+MXAvWJiIulfUmKo2rPqy/TvWI3/yHj0ot1yr+QCpkxt0Tgd0XTjBg1HefQuZFXNzxuNO29cOlGkoIlzOw/M3gB84skHAK9bMnZxcUchCzr5lp9URwTphfWJ70oAF9xDAy5qYnz3GyeZPGS1PswgIOhfc2NKpevZQb5h/J7mhuYyaBiLeXrpRMnGES4R9ZzDK3syr/ankxHjc54yf3rTsrDgAAfpC4lq6GJIotLczPp5BiI4OPMAzDpM2tzRFCDG0dbTFGfFncyxcZ6410ah9IUXXaVDSbXUIgXFpbt7Nws19Ta4+cQgghRBcVlSCkoqZW1WAiYz3DNCYPqTmDpfDhAtMZVwvrXz2QTH5x3TdN8MqYRKzn7s2bt61dtv5oQEajt0lCIZxC/SRcRq2LPC6ppFTVnKbyHt999o3qNaC/JOKF33iWKVd+s1V4b77V9GvfGkyrcxc5FpKWq7rSqbxX131ScJMBVpIYGecTnCvNIFODQzNQTysbJQZCiMrw+jcY04LuZQBA8zG69zNVxhGVmZzSWO3N9n3gX6A1ZfmEzgghXMlhtE0njC7zP7D9Xk5lbKDLyrgUQhSPw6t5JJWXnprPxxjG5mYNDXRppjYRcRk6Jn1UWJ8zKmIh9cXv4FVs/IzuNTtruUE+jwg1Pamfq8SZxhPWbt26flJvJZEFgZYvVEPEB4531kIpiWnlDz7Y0Wc3XHyLcMVuukp4WdT9TO1h5X3d3ND7PiXquh0bTMt64hg9PC0poXz9s+Lwg65Ho7iEjLq6As6LupXYdZgug+bzCbqDdjdNBoa4749vfGn1p7NKm7i4AADtnaT9SBsFnMpJ/FRUYyv5wdN10oT52y6H5HARQojKf33QZdFdub8vuA3uiCGEEN51htuyATIMftKFKQOn7fHyjw59dHTBvCPv8hFNxDy8eO9VTF5le4f4kJBE0iwLx5HqLTj2s030KiOp37af+jN17d9ztry3FMtKyFcdu26JiWTNOMSL8QtnWm3u2Y6aTS1SKAzDBCwKKujs9jsubZrh6rqcMUqPnfCeHLD6qofNwkkHr+7f8SBdcvYuYwaGEOLHBIYw++/v2fATjo5D/7m4b+6SNUv3jjPiJ37g9d983XPIylH/XN290z9bbLx7D3GEus9cOe7qtiu7D6Vx4jLV5u+c0cjTYgAAaCrZ4dPHa3iejA55zVkwUqKiwuTlvH1y/1bc9Rv/7VjSVbuLOJstaT7V/dnpCUbVC+90MF/l/UTSZeqG2/HX147zXC9t4OS+b2nym7WR8r3UWJKaOpXL/5FJwREZtLTDjPHd6n0uKQQY3bRRXKJAlX1Jy2RLdtZUkaoRU8jUh8cvhCQEnLv02XrBmO5d+s9eOFRdUG3O818++OqIp//+Vu9IYO7zxeaOKUtzHs6Xq2cP4Wtmoeoikl+9KrFw6NHUZjFRkJ5eKtO1i2x54kRhVhZHTr2TJEamPDl6MTDJ//L5LxZLxhip9p+xdKhWY2llpJd2VO9S0R9NFGZn8eQ0lKsfBlOcr+k5lLKGiiS0bgEAwkQmHnUyX/Fmks+744Or++RKM2NCIj995TKklTrr9TbpJl9PLUqVpEWFxrGVTPr16CTB++QfyDG27aFQo8FJpR92MF+VNflZ1AFbyf+TiNuAvKtj9E7ZRT111aj5HeV6b99w5UNpRQHo/Bi/5M42ppVzXzCm1qht2ydq/a+9u46LIn0DAP7OBku3iIC0gGASopKehWIr6FnYdYp1xulPRezWO8+Os5WzReygpUNEpDull2VrZn9/0L3C7gLe8/2Dz4dlmX1m3p155s2payHojIzbimZ3SrQRXJtsdnXEu/frdCFFAgC6NPaXo2PGHlbaF/2vi6qgL1jskD0W9jeGPwg466As4E031DValdtSGegf1nv4TrWGzeukno67LjnW/krknF18SP/ciZbruF1L8zsl0ghCfMIVrHcJb9VuAAAQEDGT9deOR4zaufXJ6CtT1QR51eImXtp5R3rTpcNCTreoi4ycags72ieUPMTapBt14rat83eKEx0QRDazNYEJtACAboCs5XzF041ycvnBwCKBbRTPe7ll7ROzEw932opgpYTukHHxbL/AHDN7CxpC9NiY5LaWHekeOn+n8Ey/4Dwz2yE0DJXHfU4RzZwpAABoP5rhrAsP3VSeuB16nS2AWZXM6Cu/7wmyPvF079ieIkmG3SHjcr9ExutaWcsjRvTdV4kd6dXGcaLpvOfOIbidancEURHJJtZWsqgy8t7rZImfqf0AAPDTIimZLTl4cr29IKYfihnNOXJ611QDWttvFYzu0I9LMRhmLp4S+uJqcpbOvCUt95mTpXr2kG0+ceBpXmev+scFvEzhlF923ZptMHDqll8Hd2ZzKr87JcQI+g4fIJYS5nU1I1Nn1jLhPQ8SAAAEjCQmJoiLJkmMJtprbzcZq4zTs9JKpbXU5do7zIjLrOBSJMQpVc/CYVWwMCnJzu6/7PBOdTyC8qz0Mune6nKQbgEAQOi6ScYFAAAAurnu0I8LAAAAdH+QcQEAAABRgIwLAAAAiAJkXAAAAEAUIOMCAAAAogAZFwAAABAFyLgAAACAKEDGBQAAAEQBMi4AAAAgCpBxAQAAAFGAjAsAAACIAmRcAAAAQBQg4wIAAACiABkXAAAAEAXIuF0KK8Hj8GnfIkFtDk95tP/khwJCUNsDwtCuQsdT7+8/5V2ACyckAIBQQMbtOrjJ19esDTR2tlIU1BbJOuMnkS8vdPtQKqgtAgFrb6GTtSdOop1e6OZTCs+3BqDbgIzbVVQGHV58VdXtgKOKIMuE1u+3I3MSd666mwYV3S6oI4VO67fs1Jzszb/dzoKiBaCbwHi8LnmPTNAzYuNSc/Py84ulTKc5GEl2dkBCxg53s15acuTjSTsZgW+bSL862eH1nPc3ZqlSBL5x0H4dL3Qi48KkSR/mPrs1S6P992n/tXMN/AxYSU//PBdjuG7rJHUSQgj/HuJx9sbryJTvmEpfO6dlix30+foeM4L/3vZMdtGGeQMUhBxwDV6XxE17tG3OdFtdWYzU0+VpaWeHI2x4xiVnjREnkrlC2j7j/Wqzvhs+VApp88KCl2WmFwrrmLQTnv3hmOvKbTcjKzq8JYEUOuP9JsO+63wqiXZv4T92roHuj5v9fMuUSf97k4tX/V4RcXyyKrXePSdJfujOj2X8bQz/7uc27pelt2KZwgu4ni6acXk8Ho/H8l47iCLheOk73tmRCBnn694h6g4X0oW3n9xQ94GqzncKu9WR5KYes7fYEiSaE4FP3KQjY6kIYdIz7lS0P8nxeIIrdG7E9gFaznfzOraVpucaXvDu0LzFpyM5HdtNAAQLz3+13tp49q3Mmq9q6ZtN5maz3a96RqTlpIY+3ju5rwSGMDGz3VH8XjrwPM/FBvrTrsRxhBV0nS7cj4unBwZloIFWtvJYZ4ciXHjUfY+YPg4OvYRXGOQBo0fKfrzxKKdbdfnxeIjL4XapkMlakxatnDpxzo5VY8Q79LUUWKGTjceNUn55/XFeR45T03ONyPPYf/yOdyK9Sx1+8F+Hp9/asPCK5G/7nNSrzhwi74Wf4tG3N3cscBykqaplNnn7vbubBysgzpfgMAafGyWpOB45NDJ43fx9IRXCC736s4T9Ae1GFAX6fq7QsbLSIv/cGRdPeuudqDvMphdZiB9C7T90sFTgax+hf6F+dmQD51MPn97YPEKxQ6eOAAtdbNDQAeSAdx8r2j8go5lzjRHkG14qP9R6kNjPffaB7oTIe/j77w9501a5aFOrXyL1nOm21a5+rYxmNMpWm0zS0NcX53/LChNXLdSJP+x68jNXuAObum7GZfr7B7Nkh1oPEuvsSISM/ikwDtMz7EMR6qWNZmyiWRkaEM7ukgPl/nMEWejixkZ6lWH+4cx2b6HpucYO9Q8qFxs20lqq4/EBIBis0D9PPP4uae9o2+rXEi8urpD7xXXl8EYZlyhPCXx8/dLFG0/8vuaxGv0T2XiSY19O8F/7HxYIOOqGutTgVbzo81tPn6/F0v0mzrDJ9g4uppjZDO+EkZP0tIjItDKcn9yEYWLKhhbGPVs7jnjJl7de3rHfpQY7OtnrNd4fPCU+qULFXoPW8v8XRXjeexfPVjIeNcXBRIHMzv/y3ut9HFfDftLEQSp8liBFS1udnJkYT+fZKQohtbOyPz3zCilUtnWeOFChXr0NpxeVURUVWt45QWGmeT/wiihVtp45zVypKgCiMPLp43i1qTOGdKw+KgStFTpRFPb4tneWwpApTta9xRBipAV4vg5NL+Epm45zGmnQ9FpD1tLSIOclJJQjOwn+I2j+XCvP+JJSjCMi45l/JtKaqJQVHZ1LktMy1pLvaocQ/OdU+l2+HsUlW9vZyrXyLiLvxdPskRevrjSs3zhaEXPZde2VQqNRg6WS3x9ct7BAb87BK3+uMJerfQ/FxHKgPPr07OK9rBlr1IX2de8qGZcoCT+/ZvWligl7DiwaVfry2M4Dlb7JaMA0GyVhtrU2jxV586Db++/8VQYxqv7sv84s7NNC03dZ+BXXZae+T9x1aLkz8eHctj287zf/qfgj8NECtep3cHOz8zkKPZRb2E96yF/b/2GPWT3fhee5aYqV58HjWh73xFbuHK++f97IEwHPIg4P56/dT0xZSY73NSuLgxQFnf8YEWc236bOXTk0ZpH9xG9+3ptNqo4GkXPNyWp5ypygEPeBQq3BMyL+3OyhssLV5v6skY7xfn7b+lEwxAk79KvLkQT1b5phh4fym4qYqW/PHLrkX4gTlbiCialWeRzH8fTe8fI1f+cWfXnncftB2sBd+5zrzkpuYdyHpw8fv8gbfuLYHLmkJ3+duPgsJFdMd8xve3c5GTZzuFsudDz23Kbrin+4Sq2zsH175eWi5DO36ENc5swaIxm1Y6T1n9Me+O21aXzTJqaoLI/CsrIRUuFnH1s+10hF7+4cuRbJJiri3obgMsZJt48exDAJi+V/rm+9VgGA0LF9nj7PqSRr9jGUa/Fiwkh86rbwf3FD921pcN+ffm2+8ymtP30vj5JDCO3Y4Pir3dwbrpO5CuE3ZvWsOY1pBvq6ZCzY77ln/srlwptIKfzBWXyghx206y1ndyiaWTUwEs+77CyDUfTXfmB1cmQdwoz4c5SKvKX7p5qZJBWei/qSyb0WepbXvYlxf7qU5LBDcc1NEsHzn2yZfySk+t8ZD2bISEjpL3lSTOCxR4dQyRTd1R9Y/A4lZX3cpEM1+j2Q0dwfcQ6zsoIflUxO48G1nJgjK7b7lPF4nNDtw8XEJ18vrwmp6PZkaTG5GTdL+AyxEW7KUfvBG/ybDbjBnoXtXbzNp5THY/muN6XSJl+jVwXAjDzqqERRW+xF5/cD027P0DScezuByePx8PJYj50O2rJyky/nVe8y99vdzRP7qVAwMetjiXWHAc/78OcGRwM5jDzc7cm5xSPsnTcfu3bn+lEXCxmq4Trv5j69xUJnem9ZdjKJzWO+WqwqKadnu+p2Ys17mF6LjaiaK94ym5Q4y3eNjqzh735NPqY8KdA7PLPhAeTnXKM/ma0k3v6CA0DwODHudlSEqLbH0pob38/+4rHewUSBiiGEEEZStNrhU1J9ppQ+WakuO+Fyft2/MZ+uVCEhjGp1OJFdtwn6/RkyVETqMf9xOU9oukIdt8Jv92+7/KVXe6/uT6u6eSHJq6vKkuUtbQd3407cyhD3Bbs/Ssx8sXFITaWEIisrjtHMbYbVr6WQyCQeh8NpZgvcb5fvY0sumFW9m8jPzWdylUY5jZXHSLIu5x4Z4RZjzPkf2MLj8RCJTGqmuYT1aqvZwusF/DSjYyQ5h+Of/vm1bk1CTvidz9pz1ksjbqzni688wxEDanpP2CFBYZVk8xE2ba/vwHiz3mb102JOwwi4Zbl5uLPJo4ZfAgyjDdj46NEqo5qP+XQrxmDpVhmER754k4xMJg6urlTSBq498NvdNRJ9+PwSEdmPb3mJObyarkdDCJGk+zrt9rSyXDv9/L2M+Wu0KAiRDWYeemzXZ6zWmgZdpiQV+zXH+tFSNVa+vX298Pzt1/aqVIQQmtzr27upj+4FHrQd1aSa20Khc2LeFRrM1aLgXyMiC9kyY13dZ+rV3KuzCosqCC63uZWUeTweIlEalSyRc2Wx2dJ/y1Vm3Ym96aRQ9Ve+zjV2iF9gKWZmz0fBASAieNzXdC7CKDKyCs01+VKNnY4/sl3o53X94L4/3ycVBRxctm905GEbGmK883idS5BuLJvhWXOx5JXEMRHi4bERkSykVzMIi6qkLE9F5SVJCTkI9RHSbnR+xsVTb+8+F0oM3rXYsrbpj/s1IDyfbGpt1X2bsojMW4fPfC7V2zDPVrKmnPFUX/80bOBMW7n6k7WlZKXJjAp6M+mOpDT5j3WGNbNQKkPDYwiZMb8MoSGESMqDHR1/KCAenVGJJCSlmsnQtLGHY7IP/9DW6gXZe/bWpYZkjBPscS+6wmTbNJPqBmRuXEBYHtZ3qZ1q230ikiMPvPPbymyY83lZF2YsyNn2bJdZgxEQGCYmrVxvFWKS7uJd/Q3IGOvD7TtxDFP3Gca1LdgUDW0LM83e/H7JqVQKrzAtuQS3rukdJ6uNP3GFfiuZjrSqG5ZJ0lKSGNZ0kJKkBA1h/Zcc2VSdbhFCYtp6GrS87OxmcmRLhU5Sn7nBRY/MK/APjiU0Fs53UKo9dpzPIVHFFKP+/ahNSpBXUVFJSEo2Oll4pfmFDB6PKMnPoxNIgYT4Pde437yDMpGRi11P6LsFXUZlSUklDyFxKakWOxrFe/YftfCIvb3+ZPtVXumJDzyC9lrbkpKjYouQ0uQVe7cMatS3hZFletU7azBxSQkyQpziosKfOOPiaQ8e+tAxk/GOdV2hRJ6vbzyv32+2LXVuChcr8NjyAx/4qvIhDKPpzTxyfJ5eo0iJghcPAkoxrXkTTGurDkTRJ/8vDN1V1r3rv5ms0VuNVlFajjctDJJK3761v7DDfMPKyIOGW0n/+B4hhBAjL7+MrKapLugSJ/cy7osQYvneepqAme2d06/6A4gCX98EnpazfR9qq/9fhSQu36PxWH6cKSVGlVToqaraai8sRcPYCCHEeHfreTpmvtzJsO7ocuKyla1m0PhsBiCpTHWZfmD+79PWMfeun22rJ01CCCFqX+cFfdv61xoYVv+zyGQyInjNTWhtqdDJqsZ9EUIV/j6RbCkLG4u6thAiMTAwg913jk0zKzAzCvJKMTVNtYavko1WHL2KP8oymbWk+p6Dv3ONyPP2+cbTdLI36MYNTOBnQ3C4XB5CCG+2lac+is4it0V/vdkdm5OVwUWIWlZazuWVMsk6hoaSrV8KxMSEO2EEoS6QcdkhQV85pB5mlgZ1odA/+USUa86z1hfwTFy8KOz6vlc93beNb7XuTO07YdmafvyNVUYYtYexRtMbA258dFwpkrAcMqiuQbHSPyCULTfOdmCDKxlFq6+eTEFGRiVCrY1o4iZ5+6VhRo7WKu27C2HHx6cTWjZGbXzn2osT5fkyGZltnVbbREMP9AkvkZ9gayaaCZ2ciNcfM7HBcybr1H2PWJ+8K/sv4b9plKQ69dKHm25r/vh91LmNvQaOcJwya8nSmeaqgr/va73QOVG+wQUU0+E2dQ0SRIFPYAzRa4GdQdMzlhOfmEKoOxo2+VLLD5q9fVC93/k71+jBfhGlcuNsf6DDAgBhI0nJy9EwxOMwK5vrgWuAOsByiALtK0lOjowQSVJakkyUB38MYswY0fAcwSvKmZIytWcZj8FgEgghWTkhrrHc2e1GBL2khMnD9Poa11152CEBQXTJIbamYogbdeNmUNUU0lKv5abz75S2vAQOnvnk73vfms+T3C8eh3btct/iuu20X2ZbBUaSNxw+eqwDf8aONOvdzEWTx6hk4uTe+n3qLpqs0PefiqjmTeY7SQyz6Y99jY5pdaYsURDgF1uhbDG0tsmUEXDn7hd23TtaPz5ESXR0psIwmwHCuYwSuWGhqZXqphaaNRdudqj/JzrVwm54Xf20zRLsSADZURHprN5DhurW3aUVe71gDB+jVPcmPgKg6U0+4PU5JdLz2CILFHpp6XDjoWvupwn+KbStFTqRFBiQxjK0sanXqlvp7xPJlhpiO6TpZDmiOPpLhqKl3YC25vvzd66xwwKCyskW9tUFx4m6dzO4sl37CIAAien2USMjxCstKWr7EoJhGCZlPnwIFUNk3X6G8hieenvvhdgGq1sQeXf3HAmq993m0ekVXESS0dHvJfjwa3R2xiXJqqnJkpCMgmJto1bR27tvs7EBw4dLI26cZ0C2HBkhhFgBL19w1fs01w1ZDU95f887ndvs3ygmzlt27942a6CyiO7bKQbGfWQxmnhtviHyX115HN/copUktVEj+uf4vU9ofCdQGft4t+uGi6FlCBGFb94HsyiDhw2pvljiaTevBkup1avPtX58KkN8Iwi7cVZCmt3MKyop4WE9NXrVBMQOf+WbzTO2tlWu/Ya1XYIdCaCsrAIhFXX12voo/sUjRPPXsfUmEvAdAFmpn8Oy3eeehiYkvNos9++qNdfTBR1vi4WOEPHdNzCGUB1ma1RXupwon6ACsrmVbTPBVwb4RIvbjbVus/WCr3ONSA4Mz+IZW9v0ICGEiKy7Z/yp2vz0CwAgVBQTy4EKJMTLSk3ltNH8SPd+9bFYfd5aZxUSQkh2zMxRPUlE8YetYyft+5hXdcbhRUGnl55l2NebN0gUZaQVczCyibmZEBeB6OyMi2gjZo3XJGUkJVRV1+jBJzafjiwhyWr0ViRzIp+laI7VJ2MIsaN9QilW9v2F384uGGStueumaaR+8s3CEUKs1Ncntx19kcXRGW7ddNFKkoGTi1W+15P4hlWpisc7XHefvvwwvJhgRl99W6CnRJOQrGqQZiffPfNthOv4ukF7bRyfinfP30tMWjxBqdm/dhxZp18/BUppUUnVLrBiLu64HIl0h9vVXayFW4Jk3cGDVKj5mdUNGESBz8k7mNN8o3oNwm0FQHx/f/91boPbZzG1ERv2L9ANeB0o8IBbKHSEEDPAJ4olNcTOot61IDEgIJ1lYmPbTCduhfeTD8T0xY7yTf7SBD/nGo/D4WKS2vqaVIRYX864+1q5zuB3lRXqfKv7AAAck0lEQVQAhEjS3mGkIo3ISU4oq5dxuQl31s9xWrb7VnA2GyGEiOJPp+et/Fdjx+X9o6oXylCYsv3AlD5UxM58seOX3j20B1kOHaCrY3tUavVG+3r3qdxvCck4j2rhOLG3EMcPdf65JO2w98HxVas2r1WYbsJMiucM3fLQY8zKSYdvH9r/IYc354BJltfpa0EJfrfiZK0/HnCPH7pwhUPvrn/TTVKZduqj+Kkjh7a6afSUUuw7cqia2z+KQxt14la/V+PXtZOPbf4neOORYXXDfMQtJzuY5bLsiUduGzO1tjx8NNV9wen1B0vMiJSvpSbL97nokBFCCE/zOtvG8SHyH137oL3i3i9C6sRFCMmO33vedYHbjg0nnPrieZmFySWVSGGo9WAxjK8Im4dhGKm52UzNkRq958LGtC3/W+T2dbhYdkKx6tStqwdX7y9/AZAUVOPPLzwsc3frsHpL2pAwEokqVr/QeLyaH/VxuThCOLdBsxXOxRHC8ebbpJsvdITw3MSUMoWR40fI1O45UeAb+IVQc7Ft2olL5D268157sdcvfPVWt3WuDaAgzNhl1cw7brcOnUplxmWqzz88X79Thi8C0Jjc6MUzDP69EPUpiLFsQs0AUk5exOuXD2Jv37+0f7WGdi8agy5pOveA1zbn/nVDTMnaC+68Vdy+eNmp93mc0rSokCzlISuvXT44S6ve1QVPDgzL5MmMnO+kJ9SV/IU31ffHcErSk7NKap+WxCnNSsuve55r4e3JivbH01p9mBLLx9Vm5eum6wPUYb5d2Y827nyxAML9UYxnCwzJEuMv5rfwcDY849q0wRPOJzZaEgGn5yUlpBfXrk3AKk5PqvdrrVaPDzN4r6Xp77504T92DWfkpaTmM/Fij0U9KErOdwv4jLAFnOQPbz7/UNg4Iz8lITmP3sxR5iMAbuq5X2SULVac/5Rf/bbKbzecdI1WvCis+pVVkh19c6kehaI+82JUZlFNOXBK0kPOTTcgk+Tsdr36ls/g8Xi8ysJv7/aNkKeSNaadDUpppsh4LRc6l9sw/oqHc/TIck53y5ocCmboDsshm3x/8KG2rZ9rPB4Pr8xPTcmv6GKPJgb/eXji+VHyNM0VLxt8XSuyIt4/u+/x7+MX74MTC1s5w7klaeFvnz5+GZhc1uS7jaefslehGqz17uBTONuC8ZrcrXdBlc9XG2yXexK617R+kyCR93zP9tvfGNU7wCuO9knpZWPao/q+BaNoT3LfM1O77had9W6VuWPqmlyvZXw0wQkU23eN0fiL6jtjPm5qqcpAZD5YMOP+mH9vzOV7/mit5o9PFUbEnkkb2bsf77GS/fG4+cKOvrBg6UWOy5W7q/qTEUJExtlxw9Zn/vou7LBV7WTiViIUCb4CIPKvz3Y4XWHYR4Zgs3CEWN+LaDau+7ZPrVqpkfv1lvtpv4KqhmdMymLZwYWDKBjCk++7n3iXXz2CgGLy66HVtpRPl36/FlbdSUtStl+7c6ZBM9V6vgqdE7De2OGs1t7k165qDWr8lWF7nDZyNj93hyUYwX8E+/PRKXaHJU5F35sn0IUY2SF7LOxvDH8QcNZBWYCbbYZQ87mAsD5tttRa6tXG84Xx7DML1naFOi439d4CE3Vtp8s1q5HhGdfm9KT1Wfosr/XHj5cHHp0y2T2g/Edvslo+Pnj2g+Xj51+PF2ZtheW73pRCkrE+HMnh8Xg8PPfBMm1Z0y3e9Q8zfyUoRO0IAMc7+rB4vrRZ6Hjs0SFUscFuEQ1v3vGsB65jXP5pXEEG4OfGTbv1a/8+Lv/mCvD05CT87dB3+C7vMsFtsiWdPnKKD3i2X2COmb0FDSF6bEyy4KdqCBg34t2zbxVymmqyJISIkrDzS8fviHE48+CvCc0MfKlPeujGW/sG5H6l/9jntXx88IwYxqS/Ls/rI8yuOIp2//72mx493TiQgioTPDZM25e/5MGTfbb12hE6vQTbEwDfXcgd01ahE9/9AmMItWG2fRrc0uNZ0Yyx5y7Nb7z0CgA/N7Lm7Cv3d5LPLT7oVyqQDeJ5L7esfWJ24uFOWxEsa9r5I6faxv0SGa9rZS2PGNF3XyVPMOrX7i3hOIEIQtjN6LSJux+f6f082e/YjgASIpDi2OsR5wcp8nWoJU0mT/3Rz2v5+JC1Rs/V+tHN/SiShsupkw+vnd7jxyPTZDUcr/uO0ms0REtwJdhOnR5Aq1otdB4dp+mNWr640cQucm+Hub2FHRgAXZG4wdyLHoaXj//vEP1/mxw6tBgpM/rKHxcybE88nWog/EeKItQ9Mi7FYJi5eEroi6vJWTrzlvCxSm9TeJrX2av+cQEvUzjll123ZhsMnLrlV6E9JoGsar30f9ZC2nhTAjg+HUOSM5nhajKj5Td0eoSdHkD7kXVX3Ipe0dlRANClkBQtlu41Y7OJDp7LYkZzjpymiTANdo+RUwinZ6WVSmupy7XShkbkX9920dB9m2VzyypxmRVcioR41fNVcFYFC5OS/ImWjeXn+HSuTo+w0wMAAPzndZOMCwAAAHRz3al9DQAAAOi+IOMCAAAAogAZFwAAABAFyLgAAACAKEDGBQAAAEQBMi4AAAAgCpBxAQAAAFGAjAsAAACIAmRcAAAAQBQg4wIAAACiABkXAAAAEAXIuAAAAIAoQMYFAAAARAEyLgAAACAKkHEBAAAAUYCMCwAAAIgCZNz/OiLn2sx514s7OwwAAPjpQcb9z8Iz3931/EYnSdHEyGI0VBH75M6HbG5nRwUAAD8tyLj/WRgZy/ZwnbnaI19LvejailmbnhWIiWOdHRUAAPy0MB6P19kxgM7DTn+4Yf76Z9xpp28fnahJ7uxwAADgJwYZ9z8LT3/q7noyZtC6CUQw1p/z5K84401ndk9Up3R2YAAA8HOCVuX/LExC3X7b7XtutmIJ6TTHQ3dv/m6rCq3KAID/BIJRkPotKZdBiPRToUIjCty80H9vesWWy5rPWjTZSLYzIsgP/vfWi9hSOXPnJZONpRFCiNTDbEQPhIg8irQ0YiOaps1YTb63R8/J5vZUk+8yN2xEeWZsXGpuXn5+ibSp02gjGtw6APAfwEr1+vN8lPHKLY6aJIQQURx57+L1d+HJhTxlIxvnZYvG6Eg2+R88992pHRcCi+lZIR+DslDP4Wv/ebx3jKJormY8IFzcLK/t9pZzr8SUsNJuzeg/6XwiW+QRvNpsP3zelagyVvo/080nno/jdnSLqcdGWGwJYgokPEHgpv27c85UOx0JEkl53uMKorPjAQAIHTf79faJU7e/yay+oFVEnxynS613s02SH7bTt7jhP+GFXhuN1SZdzuLweHjOU1dDMQxh4iY7IkRzOYOMK1wlPm4WSoM2+5XweDwer/zWVC091/cskUbgv81CfeAW7/LqCObK663xZnUsJ3FTjtoP3uDPEER8gsP2X6cvIzn+fH7tK3jh+/2Ll54N53RiVAAAIcALPvxuMWD23RS8+oXSN2usTX/ddcUrNC03NfThgSl6shjCxMzcojj1Lnfs4C195ShD98dzq15kRF9cNcFxxhhd3WlXv4ngQtFlmgV/SmXeO5eezJ/q/oeVHEIIIaqikmTGhzcxXJGNVit7v9P1eL7D/q020gghhMQUFaTSvV/FsEUVgOgQqcFBaex+1taKta/kPTqw5+aH+HLR9tQAAISMyLyzcvkl+SV7Z2hX5TAi55VPD7e3N90WjjPT7KllNnXrvftbBlExTnRIaEXd9RaPeuGZWIbJyimSq+rCEv2X/P3M896do6OC187fH1oh7MAh4wpP5aeD286nmazaNFa+5iUWi4NnpqWKap2Jyk8n1p+PM/ttw1j56qYWHovNIrLS0jgiikB0iEKfgGhC08pWp3aOE8PPP4wtO9R2oFhnBgYAECwi32PH70/oU9bMqz3bSb2c3HeMVKiX0MRMRthpSZE1dfUl6hqa2SmpmVweoog1vCaQFCf9tlD722HXU8KuDsHIqWbQ0yIj00pxfo48hon1MLTo27PpcSRyHx06F0YbddpFv6Zwie/pmWUEk8kUTZ2LyPM4ePULbcSF+QY1X0uiID2rjGBWiigCUWIGeEew5C2tB4nXvMIK8w0vEx/6i41MZ8YFABAsdsSp/Y/zpceOt5dr7W3ckhK6pP325VZiGEKIYBTnlzJLs75X8hDCGd9zcugIE5NRUpKmIoQQ2XjShL4HD/514PGSWzNUhBd7V8i4RFHY49veWQpDpjhZ9xZDiJEW4Pk6NL2Ep2w63mlkHylRx8OKuHlg9/vvfN7qUPXm/HV2YR9yo8Gx3NhLF1+U0kZPG9+j9raLm/wtuYKkoKAokpUm8Njrf7/Mkhz9vwk9akuZk/AtDSfJKyqIeK2Lyuwshqq6UpMWFXZO4JNXJYNmj+vTnmooXvz59XOfuELpgY4zrAu8A/OoFtbWElh5xteUYg4iMp/6pCIdW6WMmOgssryWkaYcrPABQLdX+eH6jdgyykhbO5lWpiQQec+eZ0/9+59VJmSEECJK3h5bfDq4MuczjhCKvLzUxZOEKLpzTv7tUlUhoZhYDpRHnx5f+Ddr2m/qQmv87fyMi6fd3n2bsmaF5DpL27dXXi5K/vtmqfnc2c6jpaL+N8bqrxkPfd2tm47vFiaazfZ7b7d3bBuc6Ft3wtlU87FjVGrLjkgLj8iuxAZpa/F51AkcJ/hZoATDSGRy468IO/zWgwg21dZhtHLtn/CMkPBsHOlqa1P5i0Ag8PSbW/Zx1p1dqNT4L2VP1jjMeUiMx9Ifuij80HecKA274rr8bNl0twOLfil/dmqnL903jdVvgbUSKnp3/di1LwyCHv/2c7lM/8Q7hw9imITFyhPrrTtjXhYAQJBYPg/eZONY7z4GLddwK5Me7V2wI2roYdea23yS4qS9zyehoksz1JY+IIase/p0YaO0QjPQ1yVjwb7PPPOXL1cVVmbs9IzLCjjvq/vbaX31D6q0/Pu/L5Pcc+XMBj0yQggpTBiudPHarU/brX7pbtMr8a+vXiWUY1JF73etjKqJnZf9KZKL9TK10G1cIW4O693awfNv5TH5ybgkecfTIVdn1p9Qxo1//iqei9GK3rkvj6x5nZfrF1VMVhtsqcN3xmW8WWez+lkxp2EY3LLcPNzZ5FHDmimG0fpvfPR4lVH9F/G02xtvKvzxVKeZjCptv8rV7uPB7Iw8LlJovpZbnhwcUao+ZLC6eL0XGaEnp47bh296+3rzYBpCaNHG6ElmJwjNNTZ6ZJLEmO2XxiBU8WCpllfSyK037sxqkukBAN0UNzk4PBdHZE193eauYuyvd/+3we3qu/jvHB7ynzYscOfD57vsWm19rkbqrd1bnBxUER4QxFw+WVrQcVfr7IzLiXlbYDBXi4J/jYgsZMuMcXWfqVfT9scqLKoguNxu+Dgb4ntA8FcuWWvK6nULjWp3x9fdqxKTtbQ3o/GzDdrIU7FZp9odQWFw4NdyitZs13ULDWoSPNv3sEclkrG0Nef/DkZy5MF3fn8wG3Zq87IuzFiQs+3ZLrP6eRBhGFVKqVF6q3hz4JL4Yg9TsepPJLLfnHpEdln5iyIJIVKPX9wubg+YX9bCaAUi58YcsyWe5Uqz70XdnN6jZpOBbgv3+ikv/Lh2UPWRJMmp95Ihyw6yqYuHFeodUkoxtbPl51wDAHQTeEJcUgXCMBm5ZpvFxPrOOvzI3sXv2fVDe06/yygK2Lty7+jQI8P5aCelKinLU1F5SVJCDkJ9BB54lc7OuCR15/UuemRegX9wLKGx0MWhrq+P8zkkqphi2K8fVcQVXFbgseUHPhTwOXKKpjfzyPF5eg26CLnf4lK5mNywiTNsrWqu+JzAB8nlmPy46Q6KzWxH0PBv8UlcnuywCc621jUd4Wy/BxkMTGHajLqx03wgicv3EG/0Gs6UEqNKKvRUVZVo479LXt+MMl32Z+1IBMYbt/VbPC0Nl4wYX5X1yb30dBQ/U1oo4tLvBQycR5Tk5tIJVNUhjqf+c/Dcl4pBexdY1t43cOMDQ3Io5r9Z1w5K5CZ5+6djxlPsVaDvFoCfSGVpSSWOkLSUVIuntriqyailh+xHGk4ZsvJ5YcLDu0FHho9oe8uYuKQEGSFOcVHhz5txyaomxgihCn+fSLaUhY1F3Z0IkRgYmME2mm2jIuoZTFQjx6W/mZTzN3IKo/boq9G46PHcnGKc1M/com7UFyfi5cvUStV5sx1FsjQiNzevACcPtjCvS4mcz54vk3iq0+aNF10rK8vv/bfBEyxrKrio0vve0ySCZlMvhXPLywkpqeaPCclo0d+XmY9zjGYvrp51h/D0B3cD6GTjcRNqB2AjIjfQL67SeLpN7SA1It/fJ7ai91Jbg5ZyOQCgGyI4XC4PIYRz8TbeSdGdu2vZxdcHgnIyM/nbtpiY8C8XnZ1xq3CifIMLKKbDbaRqd5go8AmMIVRd7A35DRHPfHLO32iFs2GLvaR4Udj1fa96um8b3+r4Z5KCkdVYo9be0RYem83FFLT1etQmBVawx/ME0uCd6x1EM1WFx+ZwMAUdvbqB0uzgR48S2Ka71jq0NsBPsPCkqEQ100G1reh4fGREEVtizOC6dgtO7OdMBXOllm5X5Uzn/mFa/wV2RHB0KanHREvDun5fup9/OK4+10a/3kzcgHCO7Dh7M5iJC8DPhCQlJ0cjITaHWdnmogJiA4abKpCCSfL8dS3xGAwmgRCSlVPoaJQt6xIrYBBJgQFpLEMbm5514VT6+0SypSzthtTUeku9lpvOv1Pa8kRSPOX9Pe/05nt9uV88Du3a5b7Fddtpv0zhr/5AlpOXJMvW62cofnn2VpzWgp2r+zfsw21zp9ofgZwMSUZOvjYHFT8745GqNW/3bwMb3sGUPl1mNe9uocADQAghhBd9p0vLSdT7vbAEKYyeNbF2+DQr6PFbJSub6mcWtR0MQS8tYRIkfWPjur4GVohvOF3a3MZcAnE/37j+iY1YIb7h5VRzO6uqOyt29K3bwWx4KiUA3R9NW19TEiGitLi47esmhmGYjLm1OV9b5tHpFVxEktHR79XRIFvWFTIu8d03MAbvOczWqC4ZcKJ8ggooZla1tV5WwMsXXDV9qfbVzygmzlt27942a6CySOp3FJN+ehQup2Y8ECvkxDFP2Xl/HRjf6N6pYzvVegR9DSk4h0vURHBmvydp8V/7xik0/CxW8LOXFRp6QhqYR1ZRlfoa/a3uLgjDKDqz181Qrf7a0UMPbfUcsHR69Z0WH8GQZHupyVORjHxtfz9R9PHey1TS4OHWkhge+zIwT4aMpwUGZ6L+VjbKZIQQkfnw70BMG5qXAfgJkI0sTXuQEJGVktpW3Ynu7elboj17rXNtBiU4VVdlNpPZ5N1EUUZaMQcjm5ibCXE6alfIuMwAnyiWtKWdRV1liEgMCEhn9bW2ran1sqN9QilWIwZ0j+smWXvCOIvylIRSHCGi6L37yluSuz2Ojmv8OCgh7hRZa+wkC25yYimBEFHkvX3l9R7ut4+P69HobZxo/yDK0JEDfrTxFcMwEqnt7w5Zb9wI8pUtJ8PLECJKwy4v3eNDqYz6GFVMIMSIf7J5/K/3+rkdcFT6gWBo1jOn9CFlJCdU3c6Uh55cfzqCxZXt3VuRxI54kKQxTp/M43C4PAkdPS0yhlhfz+74YLVxhshHAwAAhEHSfqKNIonITUosq/cq/s1j/SznZe43g3JZCCFEFH86uXjlE/n/Xds7SrquszIr5zsPIZSTld5kfgT3W0IyzqNaOE7sLcThll2gHxfPTUwpkx85foRM3VoRBb6BX4heLvYGFISneZ29FpTgdytO1vrjAff4oQtXOPQW5QIO7UEyXHz0j4A/thxi6uX6fBbf/vbxVJ36A36Fv1PkPiuPbfTftv1QpX6mT7TU9udPp+rXT2V46uvT1/2TfW+myVp8OLDn69D5axy0+d64+tSdByv6Nx7C3MwbB6z7Z+fnKSP1/lZRkNCYsO/K2y0vV0wcrXuhhwyLpeKw4fzbtb/0JP1QMNIOR68fW7J6s+sxJ2NWYhzbctc9j9HrJh6/d/SgX6aY04F+NISMXDZMv7PnzuG/Miqj03ot3TeX//nHAICuTW78PCdNj/ORQZ+YyyeK10x9zP38+tmD2Hv/Xtq3WkNHjUanS5rPOfD2orNx9bo3jPgPdx79e+VcMAch7Mul9ZuUF1j2GTjGYVD1EoB4cmBYJk9m5HwnPX7WS2gvjMfPokZCRuA4arBoEuPR3AFOnqY3M+7NqhrmU3RnSp8LduFv1tdfronIe75n++1vjOod4BVH+6T0sjGtGSyEUbQnue+ZqV13v8J6t8rcMXVNrteyH5ke036sovRcXEWryeSaas3ulIAjKE7L5ahqqbQwA7jo2mSzqyPevl+nJ9waILMgu0JGTan6OLBLMjPLJDU0FRtWZn8sGG5JZgZDureafNWx45bmZLPlNXvUayZhfs/IJXpoqkhC7RaAnwqedHqa+bqoWS9jzo6q64RiZEUHhSd+Z5FllHv1GThYT+FH7rOJjD9Hmv+e/evbiBO2kkLMuF2gjosQidywFs+J9AnKp5pZ29Z0cFYG+odpDNup3vBtpJ6Ouy451v5K5JxdfEj/3InRXWaBKpqiplbLf21+pwQcgYJWaxGE+ITLW+3SEHpKEu+hVu+uQ0xeQ7fpLc8PBkOR19CptxGKXC/Nhm8giStraf94qACAro6st2z/9vtjD599sOsXl5pRIUhSfcAI9QHt2yI77J/LwXKLH/xPqOkWdY1+3MaIxMCANFZfW1uVep24JEsbk+7Ricunzt8pTnRAEMnczqRLzKDpUsEAALo0MZP1146Pjj6w9Um2AGZ6cBMv7borvenSYQfljm+sdV0w4xLf/QJjCLVhtn2qK+B4tv+nHDM7CxpC9NiY5LYmPncPnb9TeKZ/SK6ZzRAahsrjPqd07hNzu1QwAICujqzlfMXTjXpy2YGAog5tCM97uWXdU/MTj3baimCxhC6YcXl0nNZn9PLFVjVDtLlfIuN1rKzlESP67qvEjlT6cZxABNH5HddIkDvV7giiIpJMrK1kUWXkvdfJEp3bftClggEAdAM0w1nnH7n3eup28HV7a7rM6Cu/7w22Of7EfYxopjOQ3dzcRPE5P4CkYD59xVzrXrUDxjAsx/ttpqpC1utY7bmzBsi0cGB4lV+D4tR/sdFoZqQZnuZ15uQ/t+89/JCYkplZnPmlQH5Y/16dueQunzsl1AhyfV9nKCpmvYvVdp49QK5Ts1yXCgYA0D1gEr0Gjxo7pLckpcnzSvlCUjAePXGksZLIBjR1ibHKbcPpWWml0lrq7X6mOJdZwaVIiFOqFsNnVbAwKcnO7jLs8E51PILyrPQy6d7qcl1hAF2XCgYAAASvm2RcAAAAoJvrgv24AAAAwE8IMi4AAAAgCpBxAQAAAFGAjAsAAACIAmRcAAAAQBQg4wIAAACiABkXAAAAEAXIuAAAAIAoQMYFAAAARAEyLgAAACAKkHEBAAAAUYCMCwAAAIgCZFwAAABAFCDjAgAAAKIAGRcAAAAQBci4AAAAgChAxgUAAABEATIuAAAAIAqQcQEAAABRgIwLAAAAiAJkXAAAAEAUIOMCAAAAogAZFwAAABAFyLgAAACAKEDGBQAAAEQBMi4AAAAgCpBxAQAAAFGAjAsAAACIAmRcAAAAQBQg4wIAAACiABkXAAAAEAXIuAAAAIAoQMYFAAAARAEyLgAAACAKkHEBAAAAUYCMCwAAAIjC/wH5qTzrZHJghgAAAABJRU5ErkJggg==;imageBorder=default;" vertex="1" parent="1">
          <mxGeometry x="1080" y="89" width="425" height="209.49" as="geometry" />
        </mxCell>
        <mxCell id="DEDyVDNNjn7AEogCk7KL-46" value="" style="shape=image;verticalLabelPosition=bottom;labelBackgroundColor=default;verticalAlign=top;aspect=fixed;imageAspect=0;image=data:image/png,iVBORw0KGgoAAAANSUhEUgAAAlwAAAG6CAYAAADd6ZiyAAAgAElEQVR4AeydB1gT5x/HQcJwi7Nq1Trq1rqqVq2KdVarta2rrjrrwG0diAMnirhAwIXi3qsKWhX31lr3ZMquDAvRhNz9v/8nQEISknDJXQLBH8+Th7v33vu9v/fzvnf3vXedFeiPCBABIkAEiAARIAJEwKQErExqnYwTASJABIgAESACRIAIgAQXVQIiQASIABEgAkSACJiYAAkuEwMm80SACBABIkAEiAARIMFFdYAIEAEiQASIABEgAiYmQILLxIDJPBEgAkSACBABIkAESHBRHSACRIAIEAEiQASIgIkJkOAyMWAyTwSIABEgAkSACBABElxUB4gAESACRIAIEAEiYGICJLhMDNgo82wsgn2WYPZPzVC6VAV08nwCRmlIhid75+GX5lVQrnZHDJu+HsHxMuVR2iACRIAIEAEiQATyHwESXPmvTLI8+oDzy6egf6tSsG2+CE+Y/6l4yiBk3TQs/vuDShhtEgEiQASIABEgAvmVAAmu/Foy4gtY4X4eL9Z+DwdRUyx8JMn2lImA3yIfvMlu9so+RltEgAgQASJABIhAviNAgivfFUmmQ+JAD6y8IgYT5gMnB3t8Nf8eFB2HTOg2LPJ7DTaf+k5uEQEiQASIABEgAuoESHCp88gne2k4vWwVrkn/B7AR2OBUAbaNXHBfJu9WZBDiswR+4Qr5lU9cJjeIABEgAkSACBABnQRIcOlEk4cHUgOxbNU1SDNcYBHh1QtFRA0w544EYEKw0W0LIqh5Kw8LiJImAkSACBABImAYARJchvEyS+z3x1bC41b2gHg2cjM6F7FH3VnX8PHlJrhtC6fuRLOUBCVCBIgAESACREAYAiS4hOEooJUUHF26Grfl3YmKPzYKPp0rwrb2FOxasxjboqk7UYGG/hMBIkAEiAARsAQCFii4WMSeX48p4+dhz+NUS2BsmI/Jx7Fk9W3lAPnMk1lE+/ZFUZuyqDF8C2KpO9EwphSbCBABIkAEiEAeE7A8wcWEYXXbsrCyskaxfnsgzmOAwibP4q3/HCy5nt2dqLDPRvujezFH9NwaxbM7UYYnPiPh1KEDOnTogO9m/6lIgv4TASJABIgAETAjAQYRuyahU9bzqJPz3gLdoGB5ggsyvNg1HT/2HIwVwfE8xYcZ61UuSaXd2Y25I7uhZvGiqNXDGZtvpaifwcbBf8Ro7E7g250oxY2ZX6Nik+7o27cv+i09p54O7REBIkAEiAARMAsBFm8Pz0O/vn3R16keSrdbhdAC3INjgYLLLLXA7IkwEjE+yhiwYJG5bSoX5IKrNTqspnW8TEWY7BIBIkAEiIBhBNJvuKJhBxJchlGj2PmcAAmufF5ABdi993h02Bvui10x29UdO65GZi19UoCzTFkjAkSAEwESXJwwUSTLIkCCy7LKq6B4+x6X17jC91ZCxofYxc/3YkjdqvjO8x5UPlpVUDJL+SACRMBAAiS4DASmFl36L56c2YGlE3/FtL2RYNkkPDywAqN7d0Sr9j9i0tqziMz6FuDH0GB4TR2ITq1aoF3vidh8L1HNlNqOLAlPT2+Gy6g5OBCrMZ5Jlohn53Zi+aTBmLYnAizEeHlyNcb2bo8WLZ0wwPUw3qgut6Bm+FPZIcH1qZR0fsonE+KNnq1GIOCxYpoLizi/vihS4gf4x2tcx/nJcfKFCBABsxAgwWU0Zhkeb5+On5pXhsjaDu3cDmP9b70x4A9PBOwLgMeI1ihlUwytll7Dk32z0PfHsVi6ZQ/2+MxFj2pFYVP2R2yP0nITZl5j/7Qf0aC0HaxF7bBa7fM2LOIueGNSj3ooYm2LNouOYtOorug4YCbWBuzFTo9R+KqEA+rOuIiPRufL2BOTcGJiG1T9rALKly9vkl+FmqNw/KPK2l06XSXBpRPNp3qA/YjUNC3Xm4A8mEer0LJwCTitf5nRwiU3LQ2ahMq29THrFrVxCYiaTBEBiyRAgotnsbHRfuhkJ0KJOoPg9+i/bGvMa7i3LoNCpergp2XnEZfV0iWPkHZhBmqKiqJ3QFJ2fLUtFrEbe8Muh+DKivTvdnS3t0WJL/tgWXCU8uYOfEDQ6PqwrTYewRIuwkQtUZ47DF569YZjIStYWWX9rIugyYiV8PX1zeXng43eXli/ZhWWL3LB9HHD0Pvb+ihnXyjbltymLh45PCfBlQPJJxwgebINY4a7wH36T+jv+cCkJCSpqSpjthiErO4Oh+K9sJVauEzKPU+NpzzG4Q0rsXjebLiu3IErUeZ/3c3T/H/iib9/eAwb3Jdg3mxXrAy4jCg9PUwkuPhWltS96G3vgLY5ZsRJcGJYLdg2X4QnjLr4YeO3oatdYXTdFK8z9dQdA2GvS2CI96OPPE2PVypiS26KwUv3zrBz+BG7xOpp6kxIyANMCHx7VEMhheCysoZtzVE49U5FbRqQnuzdYxx2G4C6xW0yhZdNTUy6nHP9rpwm87/gYiL2YtwIHzxX1I2kk5g+wCNnViiEHwEmHN5dG+K3Y1ex1Kkpftn0RK89Qcsl7QZmNKiI1ouvF7C19PQi/LQOvr+GNS6+uPlO3nr6Ac93jkLdyt/B84GiW/nTwvGp5fb9ZS+4+F5HxiNO/AI7BzdB5e888EBHgwcJLr41JENwFUY7zzca62XpFlxI8Ec3IQRXDpHHIMSjG+zs+iDAVIKLScLTwL3Ysf80HmoRUkzYLvxYwS67ZcpahGrDDyHO6HVHWPx7bg6aFLWBlXVR9NmVzKHE8r/gYp97ok3TObgryxTGbNxWdKs1jkPeKIohBNhX69Cu4gAc+I/bC4hg5cIm4dwUJ3w7+wwSjK77huSU4pqfAIOQNb+g1cjteKQY6sDGw69rRZT4Yav53aEUzUuACcWanm0xMuAf5RAeNs4f3Yo44oft0Vp9IcGlFYsBgZ+Q4JKFHcXkzr0w+3SYxmd5VHmxeLt7GCrZWCtFl7XN5xi4Xz7A39g/GZ6v6pYxbu3rpY81WvW02STBpY2KJYWp1RVWbU8jG/qPRazvBcfuvpwFvzCCS4LHG8dg0PLLSNLnnkZOaNfSCMjwaIkTChd1wrqQ9CznJQgaXQ929f6wtMyQv4YSkD3Bkq/LopjTWrxRdOJIz2FM5WKoN/u6VmskuLRiMSDwUxFcTAjWOVVGY9c7esRWFjc2DocG14WNdfZ4LpvPfsLOCB6DlpNPYliloqg0JpDDFHsSXAbU4PwV9ePfCPDYgOW//YQ/Dv2FA37bsMPTGd37rsLfWa2BcoeTH+7BvOnzsW5LAHasX4KNwf+q5YONv4bNi+fgl/qlUa3bJCxY7IeLcbnXP/6Ci0H4QVc4e9+G4iuo0ssHcTBU8UBWc7OA7zAI8RmMXqseZN0zWCTsGgun+ZcFyDeL/yKf4M6V8/jz8F7s+uuZkTb5+ihBaqo0O20mFKvblUPxXpuzwz7VLSYUPj/3wcpHWRNG2ATsGtYVrte4DAsxEzS+PkpSoVb8IV741qEUem2jFi7TlOAnIriYkA1o5/Alpl7ldrGwCacwsnpRWCvHcxVCuV5+CFG8CRhcGhKcHlkXDt39oGdBjSyrJLgMxptPTnh/bAN8nopx37UtHNssxl1xOp6t7I7KTefiSsa4CBbJwfPwdbPROBGTJaDS/oTbsusqg9WzMpP2J4ZWbI75D7nPEOQnuFgknFuEgWPX4XhQEILkv9NHsXrETBxI49alqbUYUmMRnWz0haPVpHkCGTxf3gVNXW4pBVecT1/UGn+Wf/JMJA7PHYa+39ZCYetCKDfsqJE2hfUx7aoLGpT5Bm63VCZQGemZ4rTUmGgkW2JLKfMSy9t8jbl3FYIrHj5dG2L8+TRF1vL+v6A+puHqjFYo23oRbukY0kMtXHyL/FMRXA+WoonDN3B/w/VNnUVi4FR8aasy07BQaXTxfsqhS1B7oSRtH4hSjeeptXRoj0mCSzuX/B7KIub2LYRIY+HbtRp6bInO2Q3N/A3Xryqg4+oHiIkKwYMLh7Bp1RocfaPSypCVTen5aaheyxmX9cwa0iTCR3Cxr7agexmV8YtZLxu2TVzxUKV1TjNN/fsMwjx7ocmcG7m3LOs3lAdHhRUz2jKQfmUOaomK4futMdoOcwgTzkc2KRhT23TArHOxOestB0+0RmHC4en0NWbf5v7SoNVOXgQKKmZMlAHBfGSRdG422nz7B87p+RYwCS6+5ZiyCz3tHdAmx4xBCY4NqQG7pgvwSONmKx8g3dnOAZ19tDxQsvxJ3T4gY5aiR5iWbpD3u9HL3gGt3Z9riBcGL1d0hp1tL/hzHCTMNftMhuBqC63+6DSSggtTWsBOpWuxUImO8Hxi3M0j/dYCNKgwBMcUA1R1pkuCSycaSziQegwDy7fGshc5RRT7dBW+LtwcUw4G4fyl63gQlqRxDSgyKMWt2a1QcegRGPI+zUdwKVIW9j+D0NU90WD6lZwteMImZAJrwokZ7c4xeOXeGbY2LbHsZc66ov0czVCBfPz4FD7DB2P51X+FE1tyV5kwrO7YFNOvc+tZ0Mxdnu4LJmZMmAuBfJQ83oLhg5bhapL+lmgSXDzK8mPCK1xa1Ref2RRC6e/cEPwiPnO2guw9Iu/uxrBaRWFdrBX++PMR4tIyC0KS+AaXVv6I8oUKoWznxTinOEfphxQp0Y+xe1gjiGw+R/9tfyMqOVugyFLe4o7fYHxuUwglO87HuZdZaUKCdy+D4daxEgrZfI6ffG8gQuU8pXkjN4wTXABSr2NW49JqXYsl2i7DPwa0Oihdfn8DPrP9cENHc60yHkhwZbOwvC1p8AzUrD0FV7XUkfSb81G/4nCczE10My+w9OvK+HFXgkEASHAZhCuXyAKJGV2psAnY+n0liGpNxTUtdUXXaerhAvjIRODQ7CnwvpuSZVqCy/sOqSdj7B4JLmPJcTtPAMHFhB/FbGcv3E3NGjYgvY59B19rTZ8El1YsXAIluLlxGsaNG5f9c/bGDcn/wET8icUTx2eHj3PGmuB3AGT4x382xms5R5mi7AX2zHVWOXc8Zvjfz+pOYPDm4GJMUDt/A67KBYj0LnwnqaY5Aa77jR1IqvRGuSF/0NVz6AwfI+a4i28uRrMiWWtpybtZrIvi60U3lVNplYkItkGCSzCUZjckw2O3Dvhs8CGtLVPsv/vwU41fcUhlTBQbexHeW68pB6nLXWYjfNGpdA9s4jBQXjWLJLhUafDdFkDM6HNBfBrDyhVG2SHa64q+U7OP8fSRTcA5lyEYu+Fo5pi9oCCcPrIGI2bsz06CzxYJLj70cj+Xp+BiE4Ixb+DvWH88MKv8T+OoxxjMOKgQ3+oukOBS50F7Oggk7xmK0tXG4YKOBd10nJYVLMG9xZ1QTKVr0bpwU8y9/l7/aUYf5SC40kJwYac3PL0O458cA5JZJL64iyfx2ePV2KTHOLp1L24m6G8y5uqyIA/2j+G4tNsHazcewn21NdFYJD48gW0HbiMxvwy25exrMnb0rome23R1t0vwdOskjHQ7iMtXzmD/lo1Y73cCT1UEmLwM/t0+EOW+W48oA/MvSLlwrQSc4vHpUhTjzYXd8PL0wuGHiTm6utjEV7jzJC57bBibjEdH/bHnVhwnz3KPxFPMaCTAJD5BYMBGrFm3HedD/oP06lzUEhVF98266oqGAa27fHxk8MqnL8qofl0jY9yeLZrM/1tragYH8hFceXyPA08xA7BIvHcEXp4bsPtqpLJLXRx+HQc2r4fHqnXYfv6V1hczzpz5+Mi8hk+3qioLfWfNyhc10TlRhwQX55L5dCNKo85jZqva6LbhYfbN2VAcksdwb/eZSuW0hkPDabgk8FizTLdyEVxpt7By5FQE/PMW12Z/gzKd12evoyJvHUk8hl8/K4qG8xSzq6S4MrUpRFYineurGIqD94Nd/DfWT5yDfY+jcW9he5RqvQyPFWMF0+9iVt0SsLKRf8MvH4z9MNBX8bsEpOUilJjUWISGxUOsNV4KDgxogF5bInOIjNzKiXe55JaAwceNFVxpuOE+FlMC7iPm2nw0KtMZXsq1ojIqOQ4O+hJ2DecqF9/NHIBuDZFga0jxETMqoNgU3PMdheZN+mD56aeIi76LrdNnYNG4b2Br8zWWPDd2/JY8DYF8VHFX0E1jBVc+uMfxFVxM+C5Mnr4Pr19tRU/HL/DbsRe44jkJYxcE4MqLWCS9PYMJ9cqh2fyrxn/JgY/gMqKgSXAZAe1TOSX9wR7MHN4dTRp3xozDr5RvGMbmP/2pNzqVslUuiGplbYc6k85Ae+OrsanIz9MnuKS4v2QUXK7KW9ckuOjcGLblhuGEypiglP3D4WhTGgMOZH/rUvxgLTo5OqDq+L/4OKY8l9+DXYr7S0fB5Yo8D1Jcm94ctvZ9EKBs5fmAB6t6orSoEkYFGjJkPMs9lgEjk0Fm0I8Bo1X8mNhXJVGAfXUYM39bjHPRx/BbW2ecV4ypUImT2ya/csnNujHHjRNc6fdXYdi8Sxlv/9KLM/GFbQUMP6lYGQxAyhH0d7SH44C9UC5gkPYQq5wqw7aqUF88EELMiHHXvQfKlmwP94fZn8th43aiV3ERRDUnGTQLNWcJCOFjTquChRgluPLHPY6f4JLgytyxmQvKSs5i1GdFULJme0zY+0ZlkowEgaPqZtRX43pe5HrbvEtXkOAS7MoouIakURcwp10dtF98hV/zLXI2wRcq2Q/7jXgw6qetR3BJL2P6AHc8k3/DMP02ZtYuAftvPVTWB5PgzJh6sLHvCl+18T8SBE9ohvartQ+G1O9PzqO8HuzyPAxamfkdRuZvuDQsBdum89WXHmAeYn7zDljxOrtbNKcXWkIk5zG5XiWUKV0apQ36lUHZGsOwX7MP05S+arifvGckmvZdCf8lk7HkkvpCqBpRde7yKhedVnM7IEbg5LaoWaM6qlfP+atSpgjsSlXSeqx6jRqo86MXXim+yZmRlAQXpg2Be0bLj/xaaA6R3bdYrbL4qvTMZFS2KYKuflFqrYCS4Bmo3X5Vbg5zPM5fzKRddUVDezvUnXlFfcHjjBW9i6L0rwd435NMtlYYR0oQ/4UpzWqjhpayr169CsoUtkOpyjnrhbyu1KhRF302PldPKZ/c43iJmfR7WDB6dUa9Zh67o7mtCJ8PO4x3ai9177GrbxXYVBqNs0YNdSHBpV5xhNmzEsbMp20l9fBolC/RD/uUrShG8mDCsa139YyuRWubCuju/VD9RmqkWfXT9Agu2Vs8eZaU8ZCRBM9EDVFROG0IyX7oMA/g2qgURC0W46naQ4zBs2WDMfmCES1G6s5l7PF6sGvkobrIDi2XaX7yKAn+46fjvLE3Ii0+GxVkTl/ZFLy4ehn/xH40ylX5SbzKxehUAfZjCuLjYhEbq/mLwV23zqgz/gQicxyLRWxcHN6laopqGSKePMtcLFNyGc41iqGI01qEKx9WMtx3bQNbUQsseareHcc+80S/KcK04vLurpN/ePy7SrAWfY2lGn4y/yzDV7ZF0cX3bfa1axR//qLQqGTVTmLxMTkBcdrKN+Ye3No0xLhTYVrqRizi4t4hVXPlII1rLq/ucbwEFxOLJ0/lS2ywiPP7CYVtvsAEzXtv+jVMrlEM9k7rEK2s22pgc9+hFq7cGRkYgwSXgcC0RWfuuqGRQzusDte8urXF1hcmwyuv3ihlUxzN5pxHdqedvnMMPaZHcClNiRE4qh5ERbvBT7FiufyBG+mHTvZ2qO58XqML9T0OTnTGQYHGnAnzYBfj9Kh6sLH9Bu6aLVnpN7B0/pHs7iJlvvNqwzJ8FaZchGRsXJeiwgNxoDMqi4qj2yaV8WzsW2xwKg9R9Ym4qLGcwvuD0zHhkFBXJT8xw8g/k2JnA9smGq23YPHW6wfYi5rB7Ym6YFTkm/t/fj5yT8fImEZ1KSrSytt7HC/BpcgC0nDk1xqwkb/sa9x72Wce+NrWDl+5KmbxK0/ivkGCizsrjjFJcHEEpS+a0etwqRll8e+ZWWhcxB41huxGuDAT/tRSyNzhILikVzGpes63o7SDI+BoUwr99ms8dCQXMHvqbg6fFdLijpYgQR7s6dcwpWZxiFouzexeVElHetUdrgeN61ZTMSPcpoX4Kki5CEctY1C38QufSnBp0lcQ2TlhQ7TKi1LaMQx0dEDJfns0BLkEZ2fPwB7NbmGt+WEgy/X65SdmPuwfjhLWNqg48k+NVvD32PdLNdhqEYxaXdUbyM9HvaaFOMhHcOXxPU4QwZV+HVNrFYd9x7UaM44VLV9VMY7Pp4JIcAlRS9VskOBSw2HcjhCC68M/G/BdWXuUcVqFv3NdvFSbnzKI/xNrtDxpi5e74GLCvNHe1g611VbwluLO3NYQidpjjcaHtsVnFuGPQ8IJGCEe7Gz4RnSw09Yal4xj8xbgdAqP7/dpw8ojzFJ8FaJceGDSciqPFi75Z2G+LQtR7Wm4rtKSlX5nERqI7NF+rUpXujxl8Xm4/HEAyVq8UAYxETixaChali+CViueKoO1b/ARMywS/H6EnZUdvvV8o95tKL2ECVWLwXHAvoy115gHexFg9GxcPj5qz7WgoTwEV17f44QQXOzz1Whpa4fG8+9pzJDX3fJlEH8SXAbh4hKZBBcXSrnEYf5ZjqYOrbHcyE9oMBGHMbRGMRRtNAln9XxrSp8bzJv1aFu8N3ZoNC3nPIeD4Hq0As1t7dBqhernkSQ4PaouRMX7Yb+qIGQjsXXKIlxWmcmYM03DQoR4sDNa8wAwT/wwd6OWb1amnMbYpkOxN8XYAQ+G5VE1tqX4KkS5qOab/zYPwSV7gkXNHCFqtUxtUL3ktDMq2pRC/wOq6+CxiNgyEwsvcxijKJ9sUr8Bhw/Z8xMzkpPjUb6QPb73V21tZpF4ehJqiOzh5BUBFjI8XDIJK5WfgUrBiTFtMGSffKFpLn/8fOSSAq84fASX1vuD+e5x/AUXi/jNP6NIoSr4/ZxGvUy/ntG6Lx+/pbbWnqH3OBJcvKqntpNJcGmjYmAYG++PboVrYGKwRsXnYIdNvoa5zcvBtsrP2BFi/JgLadAkfF59PIJzHQieu+DCh4uY8EVxVBkbqFzDhQnZjhFt6qG0bSsVYckgYv9sTN0VojIdmUOmc4kiyIM97QxGVS6K6hPPKVftZxMuw2OuL+5rmdwgCZyEKo1m445iva5cfBT0sIX4Kki5CAqOh+DCB5yf0Ai2VcbgrOIFggnF5t86oE5ph4wWKkWvoPyFaNrUAIQpAvTkgX25Fm0qDsYRLXVM/TSeYib1HH7/ogQazbujbN1Ivb0Bw3q0RGXbchh2PBVIv4+FI1XWoJP8hdFVvsKcO9mfQ1P3SXOPp4+a5oTe5yG48voex19wiXFsSC3YlPglx0uiYvyWfIFZlc5yGHyPI8EldI1FPhBcLFjzNyoIC5IJx6YeX6CW83mlQOGUgOQ5fL6vAVGpdlhyi8+KW/JZgk4o3Hq52tu6dh84CC6wSLruhV9bt8ZPc9dj88YlmPj7SlxODMOJmd3RtONorPDbDK/lC7Bg01WN6cjaUzUkVJgHO4voP+ehU/2WGOS2ET7uLpgycx0uqq06r/BKijtzvkH1cWc0xsMojpv6v2X4Kky5CMmSQZhnLzSaeY1DV3rOdNnEm1g7qB1a/TQbXps3ZnxybNXlBISfcEGnph0xZoUvNnutwPwFfrimtd5o2mQRv+UXlO3ug7hc72n8xUzqfT8MaNUZ4z194bXkD0xccBBvPoZi19DmaDrADSumjMPS4Oyu/vQ7C9Go+u84l+tLmSJf/H1UWDLJf3m3sFNzzLxpzALGQtzjNJ9d8nmDHP/4ihkmBB5ty6NMX3/EqiXKIm7TTyhiUw3j1WYuGnGP4+sjRxSKaLQOl4KESf4ziA4OgNem7diyaBSGrT6M/es3YOdmVwwavZlDiizizm+B52ZvjO85HHsUA1+ZEGwd9is8H3F9i+OQFIcobNxFLPqhM4ZtvAlu9+ZYHB/dFA4O9fD7SfX1fjgkpx4lY2ZVBRTtu5PDujtcBJfCvASJ4S/wPOxfZSuR/AibFoc3LyOQrPr6pDglI0I8grdtxA7fSeg5fFdms3bqKYyo1gjTruR+cxT0wc58QHzYa4TGp2m5GTIIP+0FtwWT0aWKI74aNAcL3TYgKFJzKQHVzJlwO5/7Kmi5CISRCbmCv54olyc1yqokMQLPn4fhnWq3OCtG7JuXiEjWXxfkom3jgkXY4L8bWzzW4o9eX6DlUs1lSLS5JZSYkSE5MhTRKap+ypASHYGErPwwYWexzm0BJneugRJfDYDLQjdsCArT5pRGmFA+apgVbFeG0Ivn8DjX1kR9CRp5j5M8wq5V67FseC9MOnoTp/28sTlgN7bNHoi+7tdzvw8LIGZYhtFyTxPj6OCasCmpmLnI4x4ngI/6yGseI8GlSUTAffblLizzf5bR5Mm+9UWnorUxKfg/xG0bhGrtl+eekvgy1ngGIy39b8xrUlep5tkIHziV6Aa/eF1qIHfTxscQI/zyfvhtPoQ78fr6H1Jxc3EXlLKthB82PTbq7VzVR+m9pWhiZ4uak4M52DJEcKmmwn077a8N8LzyHtJrLqhT/ffM9a7YGOz/tQV+PaSyorcOk2Z/sCfuRZ/SHbGG97IeOjIkZHAe+mr2chGSmylspVzB3HadMO9G5ngvNmYzviv8JaZweKngvQ6XwflJxI7eX6DDWo1B9nrt5HfBpdd5kx58f9wLPk/FuOvyDUo1nYKgrIWgmftL0LQ2hxX+TSVmsmYuOnRar77+ljH3DVP5qKNkSHDpACNEcNrd68qxNPKVnavWcjboMxRs9G3ceJMO6eU5qF11JAKz3nKSdw9B2VY5lwIQwmdhbMjwxn8wPrctiZbzL/H/dM9/d+DWRv4dRju083yt5Y1H02tTCy4Gb2/eRAjzERcnNcXnI45nzJaSe/Hh8Dqs5fBtN3M/2D+cmojPG8/F/bwYv6VZPLns56Wv5jNSuFgAACAASURBVC6XXFDk8WEJbs1tg4r9spdDYR4uR/MKv+IwpxYXM4uZD2cw8vMmcLlvSMu/mX3M4xLlnjyLmNu3ECJ9C69On6Orb/Y6bqn7h6NcyyU5lqLJYdtEYoZ9ljlzsemiB2rjt4y6b5jIxxwssgJIcOkiI2i4DA8WtEO5gZnTmA0zLV+8rgG+GHc2q8vrA/4cUQ8NZl9Xq2yG2TRlbBYJQX+gUREHfDliv/oMEiOSZRJuYkWXarCxtoKVdUn0P6g6s0qXQVMLrqx0xfJB6zUw9i9Fi5YMT/btw22VKfi6PDTvg12KW7NaoeqYwDwav6WLgrbwvPXVvOWiLf/5KEx6FZNrlkOfgIQsp1i89f4Bpbpt5DB+S36KecVM+q0FaFDV0M+8mNfHfFS63FxJPYoB5VqpfCBcgmDnJqg1iUNPg0nETNbMRfnK82oTuIy8b5jER91oSXDpZiPcETYS6ztWQqeMaczy+5D8swXx3OzLp2DXrYxBh7MGnMu/nde4Okb8mYr018/wivPgUG7J8Y0lfrAOncrYo3zXtXhklG9SpEQ8wsVDflgwuifqOdrB2soq84PXNnUw40bu46P0f7yabw6zz0+/OR/1y6u87UsfYffOWxy6PAEmdCv691mFR1ktTuy/BzGy84Js40JuMWHwbF8VfXdnDi5OffpY5duRQiYkgK089tWs5SIALpOaeL8HPxRtAtcHihaj9zjQvyZaLHkE6bvneKIYU6rTCQYRu6di1ObsJUqSjrtg8Jq7Os8w/gCDUM8eKNM3IHMdsf+e45HKtyN12zWnj7q9yK9HpBf/QK1aKt2Hsqdwa14Nvx7hMAGKicTuCWOw+YVi7F0Sjs8cjjUGtUBqkmEQ4vsrvuq+AvdVX2yNvW+YxEdNn7P3SXBlsxB2i43HUedu+GXDQ0hjduD7krWV4x5Sznth/eXslhrpP9vhPG4pzmq7gUkvYXz1Jsppzuyr9WhXogt84sS44bsJN1QrnbA5MNgaG3kEQ6sXhbW1LUpW0v6xVW0f55WHfVGtKip/VgYlHESwlrdmKUSW6n9RB6zTxiiHp+Zp4ZJ3E1erPwM3M8qARdy5g9rLMId/Zg6QnMLQzzpkfpZJ/BBb1hzTmPVjZn/0JWdJvurLR0E4Jr2MCbU6wiMsc6yo9JkvupWritFBqUjY74OdUXkxhlQXWAmODamN9hmLpH7Agy3rcTw2P/mny+/8HM7g6RInVFD5QDgbsxVdHbvBL2s8V77x3kLuGyS4TFVj2LfY8et3GLXpGHZ4bsJOj2EY6HYcwUc3Y83OW2qrOaccn4Rapcqg89qXWrxJxdWFfdDb9RD+OroDftv9MKNjT8w/6IeVux7lo25FBqHbRqFZ/XqoW7euSX71Wk7j+FV4ueBqibr9l8DH1xebA59p4SpAUNoNLHTqBOfd53DhxG4cuBrDYXyZAOkaaoJ5hY09u2PmkZPw9/DF+fx2s1TNjyX5qup3gdyW4eX28RjmdhiB+zdiqWcAfEZ2xKA1O+Gx5mQ+E+0MXmz8BV1mHsSf/p7wPR+dP69Fi6onydjRuyZ+8M9mmXZoFD5ruRjPmPzzFYsMpPn6vsEi+e/j2OTri41zeqHqt6sQqrbMhUVVilydzcN1uGRIik1QLjcgjg/LmLqv1WPJZew7FKn1kDxQHB+OyKSspllJIiKikwVdiFNnwhZ5QC64mkOU1Tpm+z2XJTiMzagECWERSMzvL9NMKqJCopCib2KpsQiEPs+SfBU67/nQniw5BjGKpSPkS0lExBu2Fp/Z8sTgv6hQRKXk94vRbEB4JyROTESaUhxIcXlyM9SecpHTsAneiRtqIN/eNxg8W+oE26znkagtCS5Di1bw+JKbO7DtNpfxSYInXTANsgwYmQwymQyMJYiMglkKlCsiQAQKCgHmBZa2rI7BRzmM3yooeRYqH5/Q8ygPW7g4ltZ/9xHgezafNdFz9J2iEQEiQASIQIEnwCYEoGfZ77E5T9Z/LPB4C0wG87/gkqtfZbNtgeFOGSECRIAIEIGCQiDtKQJPP1KuOVhQskX5EJZA/hdcwua3gFpjkXBjH7x9/RHg74/jD5MKaD4pW0SACBABIkAELJMACS4zlVvKiUloOnQ3/5Xlc/jLIvbIRDgNDUCofDwWG4eTk/tj+tkEmomUgxUFEAEiQASIABHIGwIkuMzCXYLAUfXRaO5N4ZeqSL+JGfUaYOrV7EkFzJOVaN3CFQ8s4FM1ZsFPiRABIkAEiAARyGMCJLjMUQDp9zGnUW2MO5emPTVZLB6cP4ugoCD9vzPncS/yo5oN5q4bGjm0x5pIleneqfvRp3hLlU9OqJ1CO0SACBABIkAEiICZCZDgMiVwJgKB65ZgwaTuqFLiKwx0WQC3DYE5U0x7hhN+G+Hl5aX/5+2Lww/Ux2d9OPAbStr/gO3/qSy2J/kTQ8pWwvCTiu8Y5kySQogAESACRIAIEAHzESDBZQbWiTsGoXQHT4SZYLZl8tZfUKT8bzj5UVVwncawso7ouyf7E0lmyCYlQQSIABEgAkSACOggQIJLBxjhgj/g1Ih6aDzvjp7xW2LEhb7Gy5cv9f9ehyAuTX2l0vfbB6BwyYE4pCa4/sTg0mUx4CC1cAlXjmSJCBABIkAEiIDxBEhwGc+O25npdzGrQU2MOatj/JbcSsptbJvvgjlz5uTym4eNl+LVZh9Kjo1FGdsu8H2n0nz24Qj6layGsX/pSZOb9xSLCBABIkAEiAAREIAACS4BIOozwYR6oUOZvtiVLBdEqXj6KERfdIOPsa/Wo22R1lj2Uqo8l43dgs7FO2Kd6kB65VHaIAJEgAgQASJABMxNgASXiYnLW6AqtvfIGL/14cEOrDkeJWyKTAjWd6qBH/xjlC1f4hPjUbenL8JVGr2ETZSsEQEiQASIABEgAoYQIMFlCC0j4rIvNqNnlxk48ud2ePieQ5wJRFD6swD89sM4bLkTjqiHB/DHwHHY9Tq7xcsIt+kUIkAEiAARIAJEQEACJLgEhKnLFPNfNEKikqE+3F1XbCPDP8bh8aXT+PPCQ8RKVWYsGmmOTiMCRIAIEAEiQASEI0CCSziWZIkIEAEiQASIABEgAloJkODSioUCiQARIAJEgAgQASIgHAESXMKxJEtEgAgQASJABIgAEdBKgASXViwUSASIABEgAkSACBAB4QiQ4BKOJVkiAkSACBABIkAEiIBWAiS4tGKhQCJABIgAESACRIAICEeABJdwLMkSESACRIAIEAEiQAS0EiDBpRULBRIBIkAEiAARIAJEQDgCJLiEY0mWiAARIAJEgAgQASKglQAJLq1YKJAIEAEiQASIABEgAsIRIMElHEuyRASIABEgAkSACBABrQRIcGnFQoFEgAgQASJABIgAERCOAAku4ViSJSJABIgAESACRIAIaCVAgksrFgokAkSACBABIkAEiIBwBEhwCceSLBEBIkAEiAARIAJEQCsBElxasVAgESACRIAIEAEiQASEI0CCSziWZIkIEAEiQASIABEgAloJkODSioUCiQARIAJEgAgQASIgHAELFVwsYi5shtusfmhc2hHlO3ngOfM/JRXm8UHM/qUVKpX7Eh2HTcOG4BjlMcM3GCTe88f0ZaeRZvjJdAYRIAJEgAgQASJABGChgiuz5D6c94Bz/zZwsG0OtydSteJkQnwxacldqIeqRcllR4YnB9yxYMECjG7zGex6bEJyLmfQYSJABIgAESACRIAIaCNgwYJLjLMrViH4hRc6Otij6aIHkClzyCDcbwk2hqQrQ4zfkOD8+IawJ8FlPEI6kwgQASJABIjAJ07AcgWX+ByWr7wECROOdR3Lw/areXggy+pWZMLgu8gPoawQpUuCSwiKZIMIEAEiQASIwKdMwGIFV9qpVVh57QMAFuEbeqGwqDHm3ZdklCUTshWLNr2BIHoLJLg+5QuE8k4EiAARIAJEQAgCFiq4UnFymQduSDNbtNiITehUxB71596EDAzebFyKzZHZHYz8QJHg4sePziYCRIAIEAEiQAQsU3C9P4WlHjeyB8Szb+H93WewrTsTNz++gpfbNkQpm7dSEOw+Br8OGoRB+n6/DsfCk1FaagQJLi1QKIgIEAEiQASIABEwgIBFCq6UI+7wuC3vTlT8sXjr0wdFRXUwbddauPlHCNSdKLdPgktBmf4TASJABIgAESACxhGwQMGVjMNLPHFXMUA+K99s9DZ0K2qHcjWGYWusUN2JcuMkuIyrWnQWESACRIAIEAEioCBgcYKLfbsbM5Zcze5OVOSEjYFft0oo3nMT4pTdiYqDfP5LcHZsfdh380USHzN0LhEgAkSACBABIvDJErAcwZV6HwFzR6NzzVIoXKs7Jm2+gVS1YmMR6z8OI/fECNSdyCD8tBcWukxEl6qFUcixBYbMno/Fe//OKfbU/KAdIkAEiAARIAJEgAioE7AcwcVIIP4oA8MCbNa2elaE35N9TMNHmUpzGSNBmtj4teuF95AsEgEiQASIABEgApZAwHIElyXQJB+JABEgAkSACBABIqCFAAkuLVAoiAgQASJABIgAESACQhIgwSUYTQZv9i/AqBEjMGLECIxee0kwy2SICBAB4QiwsYFwGz0y4zodMWoZgt4xwhknS0SACBABHQQsVnAlnZiBZlUrokL58ihvil+FWhh9Qn1Yvg6GWcFS3Jj5NSo26Y6+ffui39Jz+qPTUSJABPKEAPv2OGb3+wl9+3ZC7dLt4BEm5DIyeZIlSpQIEAELIGCxgot96YcujrawsrLK+lmjSJPf4OHrC99cfj4bveG1fg1WLV8El+njMbR3e9QtVxjWSltym3Zo52nI9xjlgqs1Oqx+LdAsSQuoPRbi4vuHx7DBfQnmzXbFyoDLiMr6JJSFuE9uGkDAoLJOv42ZDZ1IcBnAl6ISASJgPAGLFVyQfzPR92eULaQQXFawFtXC6FPxxgkeWSIeHVqGn+uWRqEM4SVCjUnBBiwBQYLL+GpoujPfX/aCi+91ZPQaiV9g5+AmqPydBx5IMr/DabqUybK5CRhc1iS4zF1ElB4R+KQJWLDgAsCEw79PjSyBJBde1hBVG4ajccZ3EbD/BmN6kzKwtrJGkT47NNb60ldXSHDpo5Mnx5hQrOnZFiMD/sHHLAfYOH90K+KIH7ZH54lLlKiJCBhT1iS4TFQYZJYIEAFtBCxbcAFg3+5Hv0oO2V2L1jb4fOAeRKssn6Ut4/rCmOfr8G0RG4i+XoxnDNeWEBJc+pjmyTHZEyz5uiyKOa3FG8W4aOk5jKlcDPVmX88TlyhRExEwpqxJcJmoMMgsESAC2ghYvOACWMQeGo0qNoWyRZdNRfy0M8S4rsUMSsk4OrQObCuNxlnOXU8kuLRVsDwPk6QiVWWtWibEC986lEKvbdTCledlI7QDhpY1CS6hS4DsEQEioIdAARBc8mauBBwf0RAi6+zxXIXK9sKW0HQ9Wdd/SHLaGZXsu2NzItemMgsSXEwofH7ug5WPJJkQ2ATsGtYVrtc+6IeSF0cF9TUNV2e0QtnWi3BLzLXlMi8ybYI0BeVoAv/kJgX1kUNZk+AyUUGSWSJABLQRyCPBlYaY6CQeLVA5s8ImnsW4L4urzDQshNJdNuAF5y5BDZtJe9C75Fdw/TtLlGgczrlrSYLrJZa3+Rpz7yoEVzx8ujbE+PNpObOV1yGMUL6ySDo3G22+/QPnEowf44fUWEQnK/on8xqOAekLxtGANA2NKpiPHMuaBJehJUTxiQAR4EEgTwQXE+aNTk1m4bZM2FaGlAuzUM9OpWuxUEl0XPMQRj1e0+9idv0qGHqc61pcJLh41EPdpwr0EJY83oLhg5bhahIfscQgzLMXmsy5YVyd0p1L0x8RiKNJHRXIR85lTYLLpMVJxokAEVAnkDeCK9QLTg2m4brg6yGl4sqsb+Cg2rVYoi2W/2NMV9l7XNs4D343/lMnpnOPBJdONHwOCPAQZsKPYrazF+6mZgl86XXsO/jaCK8YhK7uiQbTrxiwXIgRyZjiFAE4msItNZsC+GhQWZPgUsNPO0SACJiWQAETXADEt+HarKxK16I1in69AHc+CtualrNYSHDlZCJACM+HMJsQjHkDf8f644EICgpCUNBpHPUYgxkHU4xwjgSXEdC4n2LusibBxb1sKCYRIAK8CRQ8wQVAcs8drYvZZM9atC6Mpi5XYNoRSiS4eNdGbQb4PISZ1/DpVlVlnbasSRWiJpj/kOvYPFWnSHCp0hB829xlTYJL8CIkg0SACOgmUCAFFyDBQ/duKKG6Cr19I0y/lKybBO8jXASXGG8u7IaXpxcOP0zMMWmATXyFO0/isscHscl4dNQfe27F8fZOzQCfB5uqIXEMovR9+Fcag5v7diDwjWLZUdWTOW4L5SvH5PRH4yO48rjsBebIJD5BYMBGrFm3HedDuHa766cLgX3MJTWABFeuiCgCESACwhEooIILgPQ51jpVVmndsIZdnYk4l2KqrsXcBFcabriPxZSA+4i5Nh+NynSGV4jKshVsIg4O+hJ2DefibtZkgvQrc1BLZA1RvT+EK3G5JSEebEwkdo0dB/8I3VMS3u8ZihLW1ijexx9JxuZACF+NTTvHecYKrnxQ9kJxZFNwz3cUWrboj9XnXiEu8jq8xjlj+cKfUaXSIOznc30J5WOOctMRQIJLBxgKJgJEwBQECq7gki/P9WoLupexy+5aLOSI/gdM1cqlX3Cl31+FYfMuZXRrSi/OxBe2FTD8pMoMyJQj6O9oD8cBe6FsL0h7iFVOlWFbdZywZc/7wcYgfNtQdFt4R+/gcTb+ElzbVoatQSv2a2SVt68a9njtGie48kXZC8JRjLvuPVCuTDd4v8xeTZYJ94GTgw1sqo3DBc4LBWspCEF81GJXVxAJLl1kKJwIEAETEDCZ4BIHzkKzmjVQvXr1nL8qZVHYrhQqaztWvQZq1OkD79cqrT9GZ5xB2LaBKC/vWrS2QYXuG/CEzwNBrx/6BJcEF6YNgftz+UNKHq85RHbfYrXKwqzSM5NR2aYIuvpFqXU1SoJnoHb7VXpTNvgg3wdb2jmMazkUB9+pLgrLIjpwA7yDE9T8Z0K90embhXhs7BIgfH01GI4YgZPbomYNLfW2enVUKVMEdqUq5azT8rpcowbq/OiFV2prv+WTsheAY9pVVzS0t0eT+feyu73lfMWnMLSsA0oP3G/At0e1FIwAPmqxqjuIBJduNnSECBABwQmYTHCB/Yjk+DjExsbm+MXcXYG2dX7HqciYHMdiY+MQ9y5V/YbOI9vMKz90KWWHYs1m4WKSqboT5Q7qE1wyRDx5hmS5PpFchnONYijitBbhSr0iw33XNrAVtcCSp9ktB3Kr7DNP9JvyFw8CWk7l+WBLPjAKracFq7duic9jbNViqDjqT6gNR5cEYvT3Swz4JqWGvzx91bDGaZf9mIL4uJz1NjY2BnfdOqPO+BOI1FKvY+Pi8C5V80Uhn5Q9X45MOLy/qwRrUWusUGndkgNNv+GK2qKi6LZJ/WWBE2zVSHx9VLXFZZsEFxdKFIcIEAGBCJhOcOlxkDHZOlzqibL/nsOUxqVhV2Mw9kVoPgjV4/Lf0ye4sq2LA51RWVQc3TZFZrcEsW+xwak8RNUn4qLG2mTvD07HhENGj4DKTlh1i9eDTYI/R7XD+HPqcz4/nJyACoVsUHX8X+qCK+0g+vdYgwiluFR1hMM2L1852DcoinFdiook8rTseXLM+AalnQ1sv5qHf9RaKxm8dO8MW5uWWPpC/WVBkW/O/3n6yDkdRUQSXAoS9J8IEAEzECi4gkv8CJ6dqkBUxgmr/1aOijIIqUz8H8ScnyFcBJcElyZ9BZGdEzZEqww2TzuGgY4OKNlvT/b4rQxPJTg7ewb2cP6eI8fs8XmwMc+xtP2P2KzWnSjDPwvbwda6OHpujc4WkvLWj5sL0HboAYg5upYjGh9fcxjjG8BHcOVx2fPk+GH/cJSwtkGl0afUBTWbgG09K0NUawquarwsGEybp48Gp0eCy2BkdAIRIALGEyiYgouJxP4hDWFXpDEmn41VEwCcUTEhWNWmEnoHcG1d4iC4mHB4flsWotrqq+yn31mEBiJ7tF8bou6r+Dxc/jgAwYf583mwpd/AtGaDcUDt488SBE9sDFvHvtip9p1CCa5Oa4cftqh0NaWcxtimQ7E3hWOTFx9fORc214g8BFdelz0vjiwS/H6EnbU9OvvGqMMSn8bw8oXhmDV+i3l4CHvvKr7skIITY9pgyL536ufo2uPloy6jesJJcOmBQ4eIABEQmkDBE1xsMi7P/RbFbavg5x0vjR8LJj2H0Z/XwoRg9a4z3QXAQXDJnmBRM0eIWi1TG1gtOe2Mijal0P/AexXzLCK2zMTCy1zTVzk1t00+DzbmNdzbtcS8+6ojtSS46NwUtScHQ3XFrbTbK9C2/gicVFkqQBI4CVUazcYdtW4pPQ7z8VWPWeMO8RBceV32PDlK/pyACjaOGHhIZWYtWCQeHYvKNvbosD4cLKS45fo7PBQTXiR/YXSVrzDnjmpd0UOep496LGs/RIJLOxcKJQJEwCQECpjgkuCpz8/4TOSIdkuv85oxxT5bjZYO32CF4uGRK34OggsfcH5CI9hWGYOzihYiJhSbf+uAOqUd0GrFUyg+rcxEHMa0qQEIUwTkmj7AsuZoNZLhoVtHVHJaiftp/wPk6zL5jUanFvVQtf0i3EqRO/wBr4644NtqDTD2hGoXoxR35nyD6uPOqHdL6cubuR/C+nwBD8Fl4rLX67b8IF+OaRcxsaYjWrtn19HUB1sw7sdvUNm2EkaeTgM+3MK8Ee54kjVLM/3OQjSq/jvOcZ0ZzNfHXCFoRCDBpQGEdokAETAlgbwRXGHe6NRoBm7yHfOhRoZFzHFn1HEogrrjjiGWo/ZQM6HcYRG5oReKFOmL3XJRwemPi+AC2MSbWDuoHVr9NBtemzdi8cTxWHU5AeEnXNCpaUeMWeGLzV4rMH+BH65pW8U9+Sq27HqgPkNQPkfy4lzUKdsRa99wmBzA98H28Rn8fm6IUmWrofaX9dBp+mGEpz2D30/1UbxkJdT4vBwqNxsMz4tRWQKSQfhpL7gtmIwuVRzx1aA5WOi2AUGRZvCVU9lxjcQgzLMXGs28loM/Fwu8y14+azXpNnzmzcPqzbsQ4L0ZG5dPwopg1ZZRHZ7wLXMAKTfWonerrnD29MGGRVPxu+t+vPkYil1DW6DF0KVYPmEMll1JBBN2FuvcFmBy5xoo8dUAuCx0w4agMB2OqQQL4KOKtdw3SXDlzohiEAEiIBiBPBFckIXh4l+PBf22YepNd7QrZY9KP/jiGV8hJ/0b85s4QlRzEi5ztsVNcClKTpIYgefPw/BO9aParBixb14iIlmXEEnD5YUzsVW5ursUEkmWskx7Cu/ebTFBY/agIj21/wI92D7GR+OdWuuFFMmRoYhI0tGFlLgXfUp3xJpwlQkDao5p2RHIVy2WjQpiQq7gryfGTcJQJGhc2QN4fw3z2rbDzCtZH95O2o+fSn2B3//i0O0sGEdZRhlHp6jWURlSoiMQp2i1zchoInb0/gId1r5RH5eogKDtv2A+ajOuJYwElxYoFEQEiICpCOSN4BI4N7I3O/Hz50VQouU8XFUZL2RcMqm45dYZJQtZwbadB0I5t5QZJriM8Y2N2wvnP05nCVUW8ftGoMmoE8ruOcmxBZhrRsFlaB4+nJqIzxvPxX2u47fkCZj7IWxopswWX4o789qgRAdPhGZ1MzNh3uhQoT/2/8ehFdbcHD+cwcjPm8BFbaxfLrDM7SMJrlwKhA4TASIgJAGLF1xswl+Y3Kg07L8cjkNRBrScaKPI/IvrK35ABRtrWFlZo3j/fQYsZ2B6wZV6cCYmn8jqPmLjsaVHZbVp+kk75sL1umKGmLYMZoWZ+8GWkawUt2a1QtUxgUqBqMfD7EN54mt28vlmK/0mptd2xDcrXyjH+SUF/IryXby4dZ+bmWP6rQVoUHU0zqq1gOZC08w+0sercykPOkwEiICgBCxbcKU9hIfT5xCV74r1j41b6UmaEomHF4/AZ8FYdK9XFiJrq6xvL4pQe8ZVA8bqmFpwMQhdOxVuf2d116Xfx5yGVTHw4L+ZFYJNwL4JU3AwYzn7XOqIuR9scneYMHi2r4q+uzP9TX36GCFcJgTkha+54MuTw+ID6Fv0C4y/oOg+lODUyPpovugBpEkv8DS3lw2zcmQQ6tkDZfoGZC5p8t9zPFL5jJVOfmb1Ub5I3G3MbOgEjzCeL2o6M0QHiAARIALZBCxXcLFvcWBIA9haW8O2ZEXt37bT+q3G6qj+RTVUrfwZypRwgMha3pqlEFmq/+3QYX0E9/Enej/tkw2cz1ZSwO8YtP1tpk9JQRjTdiwCM8aAyRB+YBJ+nH9JbVkGnWkxkdg9YQw2v1CMw0nC8ZnDscaQ7h+dxnUckJzC0M86YLV8/Jb4Ibas4TixIS981ZGFPA1Ov4YpdVpi4aNMwc1GH8SAylUw4s/3iN+zAf7KcX06vDQrRwmODamN9p7y8Vsf8GDLehyP5SBqzOojCS4dNYWCiQARMBEBixVcTOhODGnWAPXq1kVdU/zqtcT0s4rWBC70Td3ClTlo2rVHZwxxnohR45bAb9EAdPx5HCYN643ezrvwgvMAfy75ETgO8wobe3bHzCMn4e/hi/NxHB7AArtg2eYYhOyehF/n7EHgka3w9NoNn1EdMWjtLnisOcmtW9FsABi82PgLusw8iD/9PeF7XnVpELM5kXtC1MKVOyOKQQSIgGAELFZwCUZAMENmEFxyX5lUxMYkZy3oyiAlKhSRyTpmBQqWN4EMMamIColCxlJdApn81MwwKbGITlK0TH5AXHgs0jhP7DAnLQb/RYUiKiUfC2sSXOasEJQWEfjkCZDgEqwKyAVXCxQv/wW+/PJL1B+9XzDL/vV0BQAAIABJREFUZIgIEAHhCDAhW/Bzvdr48suqcCzSjsZwCYeWLBEBIqCHAAkuPXAMO8Qi9sourF+7FmvXroXXsceGnU6xiQARMAsBNvEe9m1Yl3Gdrt1wAPe5LKthFs8oESJABAoyARJcBbl0KW9EgAgQASJABIhAviBAgktPMTDv/saW6csQxPnzPnqM0SEiQASIABEgAkTgkyVguYIr5TTGNh2KvSnCjxhmHh/B0gULsGBUe5S27YEtXNa2+mSrEGWcCBABIkAEiAARyI2AxQouSeAkVGk0G3cM+UxMbjQ0jkvPT0M1OxJcGlholwgQASJABIgAETCQgIUKLinuzPkG1ced0fGZGBmiHwTjTFAQgvT+zuD8vQgdNgASXAbWJopOBIgAESACRIAIaCVgYYKLQfhpL7gtmIwuVRzx1aA5WOi2AUGRinWJFHkU4+mJzfD28oKX3p83fI/cR4riNI3/JLg0gNAuESACRIAIEAEiYBQBCxNcWXlM3Is+pTtijfwzMSb8I8FlQrhkmggQASJABIjAJ0TAIgXXh1MT8XnjubivZ/xWWlwYXr98iZd6f68REpeq83uJJLg+oSuBskoEiAARIAJEwIQELFBwSXFrVitUHROoc+wV8B43ty7C3DlzMCeX37yNF/FOx0RHElwmrHlkmggQASJABIjAJ0TA8gQXEwbP9lXRd/e/GcWU+vQxQhjTlBgJLtNwJatEgAgQASJABD41ApYnuCSnMPSzDlgtH78lfogta44hVkcLFd/ClJ6dgip23bApyUQJ8HWQzicCRIAIEAEiQAQsgoDlCS7mFTb27I6ZR07C38MX5+OEHzjPhJ3FuoXzMLFzTdgWckSLoX9gweI9+Ef6P4soVHKSCBABIkAEiAARyF8ELE9wyfkxqYgKiUKKiboSIfuItI8ylcH0DCRpYkjzV9mRN0SACBABIkAEiICFELBMwWUhcMlNIkAEiAARIAJEgAjICZDgonpABIgAESACRIAIEAETEyDBZWLAZJ4IEAEiQASIABEgAiS4qA4QASJABIgAESACRMDEBEhwmRgwmScCRIAIEAEiQASIAAkuqgNEgAgQASJABIgAETAxARJcJgZM5okAESACRIAIEAEiQIKL6gARIAJEgAgQASJABExMgASXiQGTeSJABIgAESACRIAIkOCiOkAEiAARIAJEgAgQARMTIMFlYsBknggQASJABIgAESACJLioDhABIkAEiAARIAJEwMQESHCZGDCZJwJEgAgQASJABIgACS6qA0SACBABIkAEiAARMDEBElwmBkzmiQARIAJEgAgQASJAgssS6gAThbNeS7Bw4UIsXLgEe/4WW4LX5CMRIAJEgAhoEGATrmPz4kWZ9/PFW3E9+X8aMWi3oBIgwWUJJZt+GzPrlELhEiVRsmR5/LIzyRK8Jh+JABEgAkRAgwD7Yj06lXFEyZLFYG/XFh5hMo0YtFtQCZDgsoSSlQuuhk50YVpCWZGPRIAIEAEuBOi+zoVSgYpDgssSipMuTEsoJfKRCBABIsCdAN3XubMqIDFJcGkpSDb6EnzcZuPnxuVRqnwnrH4hzY4le4Z9swaieaXy+NJpCKZtOJ99zFRbdGGaiizZFZzAezw67A33xa6Y7eqOHVcjoXL1CJ4aGSQC+YpAymMc3rASi+fNhuvKHbgS9VG3e3Rf182mgB4hwaWrYD9cxHLngWjt4IDmix+CUY3HhGL9pCX4W2qmwY50YarSp+18S+A9Lq9xhe+thIzrRfx8L4bUrYrvPO9Bkm99JseIgEAE3l/DGhdf3HwnH5P1Ac93jkLdyt/B84GOSU50XxcIvOWYIcGlo6zEZ1bD/eJTrO1QHrZNF+CRLFtcMeH+WOTzUl2E6bAjSDBdmIJgJCOmJcCEeKNnqxEIeKx4wLCI8+uLIiV+gH88DQw2LX2ynrcEGISs+QWtRm7Ho49Zzwo2Hn5dK6LED1u1u5bLfT3l2UUcDNiJ4/diqJVYO0GLC7U4wcWEHcHMgf3Rr18/fr9BC3DqnVq7lUrhiRG0fBWuSGQIW9cTDqKv4PpA8Y7OINR3CXzNObMklwtTxXHaJAJ5RoB5tAotC5eA0/rslxFp0CRUtq2PWbcU10+euUcJEwETEpDh0RInFC7qhHUh6VnpSBA0uh7s6v2hPV0u93XmX1xzH4ROwzbhkTj7pV+7QQrN7wQsUHBtQw9HW1hZWcG6aAMMmLcMK1as4PxbOt4JZQtZwUrUAWsjdbx1p53FspVXMt4q2HA/dCpsj0aud5ARmwmFz6JNCGPNWLRcLkwzuqMvKSZkC37u5a5sEWQT9mO4k6u+U+hYviHAIMRnMHqtepBZ18EiYddYOM2/zNlDSWqqyts4g5DV3eFQvBe2fpItXPx5cgZPEQUgwLe8JEhNVRmxyIRidbtyKN5rs3bfuN7XmQh4d66Cxi43VK4t7SY/5VBJSBBWzVqOU1E6nutgkXhmKfp2H4g1dz5kohLfhteU+dj9OMUs6PJIcKUhJjoJxmkWFklXlqNjWTtYWxVCqVZ/4GycLsBaGKbfh0ujUrDWI7hST6zCqhtZBcJGwsvpM9jWn407sv+BfbMFbltCjfRdiz9cgrhemFxsmTgO+9wTbZrOwd2sLlg2biu61Rpn4lTJvDAEGDxf3gVNXW4pBVecT1/UGn/WOPNpNzCjQUW0Xnwdik5GowylxiI6WVdrtFEWzXSSwDzN5PWnm4yw5ZV21QUNynwDt1v/aUfK+b7OIHR1dxRpkPkM0m7sUw5lEBO0CD/0ccG5WEXrYk4ebNJZ/F6zOKxtKmFUYJoyAvvuKhb2+A5j9z4z+VjTPBFcTJg3OjWZhdsq46KUuee4kXrXCz0qOcDayhpFG43BkQjdoNVNsoj2HwhHW10tXO9xfOlq3FIOiGcR6d0bRUT18MfNNLz0WoqtOhW0ekqC7XG+MAVL0WhDJLiMRpcPThTwgcMm4dwUJ3w7+wwSjHuzyuLBIMyzF5rMuZElAvMBJs4uCMiTc5oU0XgCwpUXmxSMqW06YNa5WN0v5wbc18V7hqB4+d9wUjE+zPhMFrAzWfx73gVfN/gV+3X1WGXkOBlnxjdHYVtrWGkILvlhNv4URtWuhZ+2vzTpfSZvBFeoF5waTMN1pagxrg58eOKPX74omiG6HL4chB0vslqlcjMnuYFpDTtr71JMOYmlHjfVmm7Zt1vRpagDvpy2A2vc/BHN6wGSm3NajhtwYWo526xBJLjMilvgxIR64EjweOMYDFp+GUm8rxX5231PNJie2cUvcIZNbE4oniZ2k8xnERCovD4+hc/wwVh+9V/dYkueogH39Q/7h6NE+eEkuDTqKhu5H/0ql0WXja/1TmJLOTcTLTtPxKimJbQKLsi7G4+OxeclWsHtbnbrl0ZyvHctWnDJcy8NOYjf6pTKEF22n/8ArwfvOUBhkfjiKSIlOQchJh9agdV3NQb4sjHw7VoRNuVqYvi2t/ovIg6pGxzFgAvTYNsCn0CCS2CgZjUnxAOHQfhBVzh730Zqlu/SywdxMJRrC7RmhklwaRKhfVMREKD+MxE4NHsKvO8qxgRJcHnfIe0OG3BfJ8GlBSEbj339a8G24nCcTM35LFee8f4SprbsAo9HD7CkeWkdggsA8xDzG5dC0W+W4TGP3jdlulo2LF5wyfPEvD0F5yZlUcjKGjblnbDsWi5vFlpAZASxUdg+Y6mWljcW0X4/oVjxnthiyHgxXekYGm7AhWmoaaHjk+ASmqg57fF94LBIOLcIA8euw/GgIATJf6ePYvWImTiQpueGqDeLJLj04qGDAhLgWf/ZBJxzGYKxG45m1v2gIJw+sgYjZuzX7qMB93XJiXGoUGogDlGXopKl9I4bGtnaoPTA/dAxSg5AKi5N64CO7n9DKnuuX3BBhrsu38C20Gf49VC8Mh0hNwqE4JIDYeMuYm7riihkZYVCpVph1l/RBrREpeHujvkY2bkOiheuhR6T/HBLQzGzsbswYuQunuNRjCw6LhdmWggu7PSGp9dh/JNjgLG8Re8unsRntzKwSY9xdOte3EwQdjCyUIJLHB2Fd3q6o6TRt7BveyBe8+yWNrJEtJ5miT6rZ4TfA4d9tQXdy9hlzCCWzyJW/GybuOKh0W+MfASXGG8u7IaXpxcOP0zMcT9gE1/hzpO47DEbbDIeHfXHnltx6liM3uPHUzNZJvEJAgM2Ys267TgfovsRo3leXuxbkq/ZfPiUF4NXPn1RRj4DXqXuW1nZosn8v7OTUN3icl/Pis88XYWvC7fFKqNbilUTLgjbH3BmTAPYWDugq1+0zgylXXFFq46L8UDem5Wr4AI+nBiHcoWsUaSLN6L0PH90JpjLgQIjuOT5ZJNuYplTVdhYW8G6WGP8fiRUb79uNhsGEvFHyBgWYLO2sw/m/VZuF2baLawcORUB/7zFtdnfoEzn9XijoqPYxGP49bOiaDhPMftMiitTm0JkJUK92dcFzZ8QgouJ2IexY7ciXGeFf489P1WFtXUJ9AlIENR/Y41Zos8588rngZPTmjAhxgquNNxwH4spAfcRc20+GpXpDC/l+kjym0UiDg76EnYN5ypn1KZfmYNaImuIdK2bZHCGBOLJpuCe7yi0bNEfq8+9QlzkdXiNc8byhT+jSqVB2J9ibOuhwRnK/QRL8jVHbgQqrxx2dQTkdl9XPY2JxJ5BjVF/2C48N7q1WNWghW9Lz2Ns5SKwKlQdE4N1jLkS38Sc1h2w6H7WHGkOgot9vhqtbAvB2qEb/GINWP2AI84CJbgy8pz6EBt61YKtdSGU+MaMn9/hCNyoaHovTCnuLxkFl6vysWsSXHRuDNtyw3BCpek5Zf9wONqUxoADScrkxQ/WopOjA6qO/0sZJsQGb8HFRGDbL99jwX19EyBYJFxwQ7syDvh66WOOojo7dyzDQCaTGfZjmBwtJEqLZvBZmZZJN8z8wOGUF+MEV/r9VRg27xLkt2LpxZn4wrYChp9UjCoDkHIE/R3t4Thgb3Z3RNpDrHKqDNuqQi1jIgRPMe6690C5Mt3g/TJ7jScm3AdODjawqTYOF7SMRc0dLQuGMfAakMnAyF9Kdf6ZyledCQp8QIjyMsAlvfd1LXbYOFxYMgBNG7TDAOe1CP4k17bL5MI8WYkWtoVgJWqPNRHahJEYN1w6oe3861B+zZKD4ELaYfxS3BZWhcph2HGV+4WW4jAmyGSCSxw4C81q1kD16tVz/qqURWG7Uqis7Vj1GqhRpw+8X2d3fxmUMSYKR8e0QPlmkxGYF+OtDHKWY2R9F6b0MqYPcMcz5n+Zs15ql4D9tx4IUbZwSXBmTD3Y2HeFrxoPCYInNEP71a85OsEtGl/BlRY0Fa2G7MM71eTYGASt2YjgRGWm5CP3ELrmB3zj9k92l5DqOTq2JWf+QL1yZVG6dGnDfmXKoubwvUjUYtfUPmtJ0kRBZn7gKHMhRuDktqhZQ8u9onp1VClTBHalKuW8j8jvHzVqoM6PXnglr//KPwkuTBsC9+dygSLFjZnNIbL7FqtVumOkZyajsk0RdPWLUhPSkuAZqN1+ldISvw3+PNOuuqKhvT2azL+nXs/FpzC0rEPG+BXDHwsSnJncAuXKGHgNlC6NMmVrYtgB7eNbTOMrvxIw7Gz+5WVQevru65qGZM/g06chmozai5fUwgXJ4VEoJe/JEvXEtv9Ur/1McB9uLUGb1nNwXXV1fi6CS3oR46oUgbwruK3HK81S4L1vMsEF9iOS4+MQGxub4xdzdwXa1vkdpyJjchyLjY1D3LtU9ZsL12wyMTj+e0tUaOqMUyZoDuTqhuDx9F2Ysrd48ixzEVlJ8EzUEBWF04aQ7IcI8wCujUpB1GIxnqo9lBg8WzYYky9oNseySLjshekue/DMiHE3/ARXMg782h5TL6u3bonPTEZVW/XF6uSMJSec8f0yw1u4hC0fS/RZFwEzP3BU3GA/piA+Lue9IjY2BnfdOqPO+BOI1HIviY2Lw7tUzZczGSKePEOyvDFGchnONYqhiNNalS5qGe67toGtqAWWPM1uNZK7wz7zRL8pmq2+xl4TPHky4fD+rhKsRa2xQqV1S+5n+g1X1BYVRbdN6oJRBal5Ny3JV51keJaXTrs6Dui7r2ucktHd7dAR66O1teZoRP4EdpO3/gJ7+ddmivfDflVRJc+75B4Wtm6KsUdfISYmJvsXdQ1zm5SClU1FDNkXgpiYWCSmafBMv4nptYtnCK76c28KTtJ0gkuPq4xA63CpJcHE4MT4VqjQZCL+jNGAqBbRAnc4XZhiBI6qB1HRbvBTyT8b6YdO9nao7nxebW0x4D0OTnTGwRxvB9L/s3ce4E1V7x9v2qbsUYagFQVkiLJRWWqZyhBBRKQIsvdWBAHZGwTZWxDZe1P4gWzZw0JZMltmEUqhg4Tm/j//J51pmqQJTdq0ffs8eXpz77nnvO/nvbn55pz3nMvRQVXIlq8Zyy1lrZvBmCzBpfGl4wfd2JNgiCSCrW1L4Or6Nt2MxGHY8rbUm5bCq/4b+50WbTb2Ie59Cn/hxLVraePVhhRjawzf2RMv9xx8Pj8w/keIcocZNV/DvUgP9htNuni29ge6r4sfeo+u51U/E8njqbsxk0883FCXG8I/CX786Lg6oQ5qt48YcyWhYIz1O6X/pyVbzbNJXrzM12vmiFX39ehzI9a0JXfeVmwySBUxU2sG2K3waF4TPPSCK2tTVhgJrpdHBlPcXWU0ecF4MoP+vZqqE68k5PXyDD+/l1MEV0IqRu90D9jWowqvle3KFmf+BRBygfUzJjJqyEB+mfgHh+7GjS4bOWT01poPpvYwvYpkJ1PNaQkWZg1b2w5Pt9x8s9roS0TzFwP7Ljc5RKYfhnnxwnD4zsgeC2+TI7iUi5P59Mv5CYcTI88zvLwnqmwNWZggZ0HLsQF1aL3emnXXLBiczENOa7PuCacXDGCsry18UvgLxyr2yRFcGg70Koe7R01mGN4XwjbRwjMzub5ZEZ+/FWWLht0Df2TFE1N5Sq/ymUgez6i1l1RuvNFxe8JHjiiP+L2hF+7F+nDYSDBahdQBhZzNVt3jsyz8YSy+Ng2/JS9eNmO15r4eU6msw5WQbvjqNuRQ6Z+J3IBFIQk/r8qVlfT9zocWLVokfH3biPJ53XFRZaF4rW9o0aIVQ7cYzXDUHqZ30exRgqvKBCMxltCEV3qX9nu4lIfs6FWV18p0ZtNd46EFM0x0/zK5ZkOTK82HbOlFhdbLiV22zkwNtu9+doSpg+dy7LG+9y2Cy3924F2v2kw5Z8VT5qz4YOofl/Sp2oMSCVbk1nJyUBXcTSQWhu8awU/r/rPdjyTOSI7genl4EBVbrkr43D3tIXoUzoHnV38kXJJDc5QfKn7JAoO8NIfFzoLPTmdz5CXWjhnOsGGdqO6ZlfqLbIlxCn/hWOAafygZgkt3mymf5MO9RMKnWrw8OYL33TPx6W8GQ+/6BsP3MvinNTyNbzyZW8nhGfMrXpWJOnPvJ7QjfAdtXsuCZ4vVUYvL6vzWsfJU7DB8CFs6VaPVqgRZkAnPt/u7V7UV7P2Z1V3YwJhhwxjW4VPyqOuzMGpc2VqHkxMva9swKGfFfT22tAiuWBLR/3VRn2H9Y3qqM/mWlSNa1uRwaXxpXyAzLq558HHAj/m0LbiUIHb2qU6B9zuy0VqxpZ+gtL0nhTxMPUtRw84O71Fm0LFXyyFLeE0YvNNxY2ozKrdfwvnYLmEliHmfvU7ORosMypnZtOKDqTs/nkpqDyqPv2wwa0/Djg7v4m48zq0EsqjPCA7G2mKm2VfZnRzBpVz9jY8rDOaM4fCJ9hA9i5Wi90HDXLMwToysy3vtNhkIY0fFzjIFp7VZe4Bub+XK2IIr0p8RFT1xrzw2QVK9ZkdPXnfLTfM1hr1/CgEL+zM8wXVmOfZJH03eF7hmW3cKuHnSYp1hWnz0I0i83DLhPf02ClqO/9KFybGTjDT/o2Ohcvx80uhpGUkbm6wSr2QrjvvMavf2422P9CO4wpZ9R/aCbdmWIN0iWSFL2yeH7+D7/HphZGFZCGMPrRBcyv0F1PZwQ6X+hCnWCjnjdiy8T7uCSwliV7+PKfBeB9Zb/eBq/eS2a0z5tAAqdxOCSz9+W6YEXfcYfrnH04u858feXTEraMeupG3i/669p4weGxTJ+dE1yZKtJtPi1gLS4NuxFB7WrPljheAiYj/dC+egUOedcT1EuhtLaFetFHnUlRkXl3SrI2D1QPouu2EgzOJ9TO5WcgQXkRcY+UFhak4+GTWdX3l6lnnff8YH777NJ6P+JqrnOPwaG/rX4e33OrHFoHeLJGKXXL/Mnu+sNovgiupJ3tu9DOpCndgdm+ehu8mCtt6UzJOZyuMvxn0GdAHr6dd3KbdebSTdzOWRPMFF2H56vONJlQnxdoaeW0jXJlXxUr9B+x1hEHGcIe0m4B8zIeblyeGUKdLFKA/SjHn23P0KtjryM5u+BFd0zl7WRLl89gxgWqsrhLXfFsVVlYV6C4x6gM25YoXg0u7/iSJurnhUm5DgR5q5Km3dnzqC69YsapX5kWOvmn+gBLG7/8fkyvY+bab+yapVq6x+LZ/QnEJuKlwMBZcugJ3TRjOsVz0K5SxHi8HDGDljZyKW4f7bmTdrJjNnWn7Nmrues4kWI9QQGmqQ4Kq7ya8f5yfHFwsStZNohzWCC4Xgv2fSskoVmg6azoLZo+nRZSIHn9xiS/96VKjRkfHzFjBz3DCGzT9scRX3RO3bsCNZgks/wcR/Ec2K5SNf4RIUL1WLHzbeIOziIr4u6kkur6K8mc+Liq0ms/9+zPCxlbGzwQWbizqlzelIcN2a8gVl+h8xmvRhXZiUJ8f4zedjKjcdyMwFsxnVoxuTDj7i9pbB1KpQg07j57Jg5niGDpvHkcd2VVtRS5dcHleXCoNjFxxWeDjnK4p1222d8fre+KO/8WXlz+g5ZQ4zRvSlyy+ruf7iJstaf8AHrccwrnsnxh56gu7WbqaNHEbvOkXJWe5bBg8fyQzfW1a3Y4+C1tpKCnxm05Xg0l1hQlUvKo89Z+eRF3tEPfXqCNvTj8JubhRstzl+rS1L5iQpuPQ/kGqhds1FvXlG6QaW6rXhWKoILiJvsf9/F6J6MWywNbqo/nlVP31CrkSPUDA1C8HCPkPBFWPEkz98yOM9hVsJc/BsNtGaE8IOD+b9vFUZedyKR3RYJbhiW9Xw5PYVLt/6L8FFqIQ95PrVAJ5aOdwdW1v0fwXFSibJFVzR7WkIuvc4YaKwNoTAGwEEG2hWQxtTMnaG7cZv29fmkH1TaNfSBx8fS6+WfD98c7wJhlvpRnCB7sYh/udvxefE0H+jbc2TAC5fvsVjw2F0JZwH168S8NTK3E+jOpN+m8werrgGInkaeJN7IYZ2RhJyL4CHsT13UWWf8MeXhfH+7Xr8jMy4OlJqw1pbwfxnNoR9EzrR0uK174NPyzYM33rXpGPpRnA9v8yqXl9Qp9cqrhumWpj0OoPt1N1gZm0v3N/qwh7Dz/WrYlACmV7jNdQl+nAwwefqVStMfF7qCK7Edli9R3d7GyN7dKNr167Je/X4lb+CDRdMi2B7u1KUHXLS/K+IsCBuXrvK1auWX9duPCDMgkBRgvfRt5o3A/Y8sO7GaJPgshplooJP9y9m2T+xybexhzXs/6ES+WpMjd1h8b99BJfFJkwctCJ2Js5K3V0OtjkdCa7UjZP+kWEnmDNkCL8uWMbSWQuYPa4X4/cZ5n+Zs9Begstc/Ub7I3bR/s3yDD6TsvlbRlZY+dax1396EFwhF3ayaO4f+F5J/BxQKyGn+2Ivz0+nhmdBmi67Y913qQUi2pOjKJu1OF19bZloZKFCE4fSnOAy4YN9dr08xYD336HTbtP5W/pGnh39g6GDfubnn5N4DZnNAXPDEy8uMqfNd4w7/J/1F0hKCK6wIwzvZ/D8Qq0GTYxoDL8wn8YfdbeKc6oILitiZ5XxKVnI0TaL4LJPNJ8dYUj1j+l/KGbecvBqmuYuTJf/mb9PxDecsoLr5fFhvP9WR3anhcRqB1//6UFwxV9HsmWegI7bK9pTrHgbNhrm9Jo/wfSRyGvMrv8e1YYfNFoqxnTxV90rgiuGnH4xVu+8X7EsahpxKBfP33hVpubP0wWwbmAfZp2KXXRCw8FV68yXjz3icMGl8PCPH/jJN8YuJYhVLSrTYXvsl4qGTT8PibXG4v/UEFwpEjuLXtt+0OE2i+CyPSiJztByckg1cnpP4WZMepd++RXvAs1ZnWjB4EQn2yWHy1StpvfpuDmlPnm/Whq9rMXzy5w3eJSR6XNSb6+jr38RXKkX25RvWcOVZd35tMEo/k6UO22FNbqH+P7QkM+H7ibIwsiUFTUlWUQEVwwizabOvP7p5Kj8rYhzfzB1s+ncgCSJmiugzz0b3IrOMzbiGzOzcceGqbT7cbW5M+L3O1xwhbK2V182x4xbKw+X0iDHm3T0jRVcwSztPyzeHgtbuoDVdO8wj8uxjxEK3s5P302xcEbyDzk8dsk3MVENDrdZ+xdd3szF5wseJWrb/A4dAcv70mFB/Ky44M2D+W7qKfOnpOcjUY/58IxajTo2nT54aUteqzuTB1bdmFOSp4ZNrUrw6RR9/lYE5xZOZ7MTP97M0de/dncfCnl8zvxgqwIVcxWnZLz0z2c6Qf/SNa1fRyo9f9aS7ZtC8Mk/GNhzPLtt6el64cfvfXsyctPVhDnDybbHdAUiuGK4KFcW0LDuj2zYtoTJc/fw0JbPqWm2Bnt1/DvnK/ImSvRXU37oWYNyZjYd/cHU3WJaz1GcjUnKjJpaXrAFa2IWDVQerad7rzVmjEv93Y6NnWP8c5jNUTPARjK4++e8pXbD84PvGDhsNCsT5eY5xq90VWv4Gr7KVtjgkVIatrd/j0ojzqENvsLFu680A8VBiHRcmd2Muv3Xsm2FPVAhAAAgAElEQVTxFObuvWd9yoKDLLJUraOu/6jZmsOH0KPOO6hdPfmg9U8MG7WCf151RrwlJ5J7zNH39eTalxbPV7RobflYKlo0tpRPJhMRXAYAdc/vcePu07i1eQwOpe6mwz+YwSxt04rFMb+Ig7f1onrnbdGzHCMDWNO5Gb8cju3tSl0U5lp32tiZM1g/4OSQ6y2SF2EviDT4waDThBFuZnanBfPk0Msj9Cn5EcPPRyehK/fW8q1XIdpte0bQihksDkjBO7VV0dDx/O5N7oY4m12mjXfI9R/5grAXkQZiU4cmLPyVlhQxbbUd9zr8vm5HW6UquxAQwWUXjA6uJAU+mM8OjqJ+7e/o2aMjXcbOZeTXtfi6Wy++b/QlPVdccs4bloOxS/UZnYCOG8t70fLnFezcsIgpM5czp0MNfH5bxuSpW60cVszoDMV/swRS4L5utm05kCoERHClCnYbG9V/MEu9Q42Ofejb9ycWHHdMb5Pu+UPux65JpHvG3RuBPJWeERuDJcXTGwFdyAPuBceugRXBw9uWl31Jb/6LP/YloDzcz9Qf+9G393d8WOBTyeGyL16nrk0El1OHJ8Y43TlG1yhBoUKFKFSoGG1W2+/xumnBfbFRCAgBIZBeCCj/zqNR0bei7+dFv2JeYNoYAk4v/FPTDxFcqUlf2hYCQkAICAEhIAQyBAERXBkizOKkEBACQkAICAEhkJoERHClJn1pWwgIASEgBISAEMgQBERwZYgwi5NCQAgIASEgBIRAahIQwZWa9KVtISAEhIAQEAJCIEMQEMGVIcIsTgoBISAEhIAQEAKpSUAEV2rSl7aFgBAQAkJACAiBDEFABFeGCLM4KQSEgBAQAkJACKQmARFcqUlf2hYCQkAICAEhIAQyBAERXBkizOKkEBACQkAICAEhkJoERHClJn1pWwgIASEgBISAEMgQBERwZYgwi5NCQAgIASEgBIRAahIQwZWa9KVtISAEhIAQEAJCIEMQEMGVIcIsTgoBISAEhIAQEAKpSUAEV2rSl7aFgBAQAkJACAiBDEFABFeGCLM4KQSEgBAQAkJACKQmARFcqUlf2hYCQkAICAEhIAQyBAERXBkizOKkEBACQkAICAEhkJoERHClJn1pWwgIASEgBISAEMgQBERwZYgwi5NCQAgIASEgBIRAahIQwZWa9KVtISAEhIAQEAJCIEMQEMGVIcIsTgoBISAEhIAQEAKpSUAEV2rSl7aFgBAQAkJACAiBDEFABFeGCLM4KQSEgBAQAkJACKQmgTQluMLuXSfg+f9ZxUt5/oB7T19aVVYKCQEhIASEgBAQAkLAkQScX3Apz7i6YxZ9GpUnr8cbdNgZliQP3cXZ1M6bCfcCX7PsfmSS5aWAEBACQkAICAEhIAQcScDJBZeOgL1L+G1YM4q6u+LiZp3genlsGKXUrqiyfMqv16WXy5EXkNQtBISAEBACQkAIJE3AyQVXjAMvj/NjiRxWCy7Q8fj8Pnadu48uaQbJLhFxaB6zjkTYXk/EUWbOOoTW9jPlDCEgBISAEBACQiANEUgbgivyAsMreNoguFIwAsodfm9ciY5WDHUmtEoh8HcfSnfchibhAXknBISAEBACQkAIpDMCaURwXWJUJWcUXJHcXNKS19XWDXUaXjuRN5fR9PWsvN5BBJchF9kWAkJACAgBIZAeCThQcIUTcHIXqxYvZtXOY9wMieDGWT8ehwfz4P597ke9HhAUEt+/owt7En/swWNCY/PdIy8zulIegx4uhaeX97N66Up2nLzFc1PjhpoHnNywlkMmk+bDCTi+gxWLF7Nyx1GuPo63wTjIutA7nPtrPUuXrmPP2TuExxbQPeLYzNaUyKLPLXudVqtuRPn04HFYEsOYOh4dm0uLErlQubhRsPVybutZPHhMWAI/FJ7fPMH2VUtYtHQte/weyNBjLHv5LwSEgBAQAkIgjRFwjOAKPcvMZpWp2LgXoyaMZmCbmhTKkZms5QZzJvAM25aN46siWaMEh2EPT9i1g/z5cz0KuLng4l6eof/ECCFDwbX9X3YMqMNraldcXFxwUblTwHswu+9HJ8eH3TrEokEt+cgrGyq3d+h9MGFuVYT/MjrX/ITGPYcyov/3fPp2DtxylaPt/BOEGAZPCeb49NZ8VKUJvYeNZWT3z3jTIxtF6g9jz0MNfnO70LDuJ5TI7Y6LKjNvflCbunXrUq/XCu4qhhUl3Nb5LaJdw8/4uEReXF1UZC5UiTp161K3Xk9W3Y1WmErwSX779iNKVW5Kz6HD+bH1p7zpkYk3vPuy7tqLhBXKOyEgBISAEBACQsDpCThAcEVyflQNslceyxVd7JpZOgKWteat8oM5G6nfF8npIVVRu7glHlLT7KRN/symBZdrXqrUqcFHjboxcvoMRnevT5HMeuGlImulXzjxIpJ7fkc5umUgFT3ccDESXLqAlXxTtBx99z2JC4zu3hqav5EZlbsXLdfeJUorKf+xs8eH5K/8C8dDY314yoqmb6NycSX/N8t5pC9oKARtyuGK5OJobzP++zH+4zfIXfNXLmpj29Zyc2UHiri74lH0e9aZ7LWLc0k2hIAQEAJCQAgIAScjYH/BpQQxp85rqEv/zKk4waAXJxcY3XZEnOAyKzi0B+hWKKtpwaXKTtWRR3keB1HHnU09KKHv7XLNS7OVQdFHtIfoUTibkeB6xtZ2pcj5xUIexZ2v39CwtU3xqN6mTB9P4roOwvf/RDH1a/ise2xQUuH2nCbkVKlQl/+Ff/TC0e6CK5KLkz4ju1tB2mx5ZtA2oDzkz68K4+rixpvtNifsjUtYUt4JASEgBISAEBACTkbA/oKLMFY1ewuVKivv+vzG4Qex62ApPLh6jeCoLiQLPTyWBJepdbiUR/z51du4urhSoN1mogbcXp7kp3dzJhRc4dtolTcz2Ut40+Srr/gq7tWEmiU8cXVxwTVXC9a/CGVLmxK4utdg+r3YJLKYqOmCOL11PXsuxww+2ltwxS5/4V6TGSZ6sULXdySfqwuqHF+x7KmFcUsnu8jEHCEgBISAEBACGZ2AAwQXPPtrIKVihvrcchSnwQ8LOPrQULzYUXChcGf6F3i4uKCuMyu69+rlGQa9nyuB4NKdH0cFtTtvt1uGn78//iZeFy8FEKKNXoJCpf6CxXHDiWYuEzsLLuXKFCrrF2zN3IRl4bHDifFtKwFz8PbQJ+kXp9+rrPsVX5VsCQEhIASEgBAQAilIwCGCS7/w6IP9U2lRJj9uKpeoHCt1vo/oufYa0bLLnoILIla3IYfKBfVns4kaBDQhuF4e+pli7m54+qyJn2loCvTLv+lbTL/IahXGX4vtnTNV0P45XNE2qnBxr89CUz1YERv4JocaF7c36bQ76UccmbFadgsBISAEhIAQEAIpTMBBgivGC90jTiz6kZpvZkPl4oIqcwV+OaFfWEHHxdE1TCeN2zqkCIQv+44sKlcKttsSvYioCcGlOzOasmoV7kW6s+9F4t4jvcW60OeE6c4zvLwnLqocNFh4JzqJ3igoyqMzHL+qtXsOl+78eCrq89HcyzDolImlKjTb+M4zEy7uHzDqoqxPbxQWeSsEhIAQEAJCwGkJOEBwPcPv7JUEa0Ypj48xuoYXri7uFO93EC06/p1YF7V+xl+bTdF5V7GI4gRXGYacNbEsRKLZgJH4j/JG7ZqHZqv+i67FhODi2Xq+ya3GxdWTWtPOx/S0xTaqT0oPYkW/YfylCWW9T9HoJRvKD+ZEInGm4eSwrkzQCx47Dymi2UMnr6xRy0x8OvVaYrH3dDlfZHHHvUQ//jackGDghmwKASEgBISAEBACzkfA/oJLd5tpPt3YZpT/9PLgQN5xV/NO731RYuzJ79+QRaXCo9YMHhjkfz87MY7qOfRLOpSIz1OyJGx0/zKhan4ylxvEcU1Mz5UpwUUw61rqZyO6oPIoRINx+wiKXWhUF8yJKd9Qvff/ooYbQzZ34Q03VZTwKdVuGVdi86mUEPyWdKZSncnRS17o/mVc5TxRMyS/2xhqQ3R1XBlXO0pw5vlunYHg1HJicFU89FzKD+FUrD8xNb88OICi6lx4T/VPYnFVG0yRokJACAgBISAEhIDDCThEcE35pCDFvl/OjbheGIVHq9rymkdJ+h6Mzj3S+U/mIw83VOoStJq/j/P/HGLtxK4069SFhm9kwkWVibJdf2fTpkPc0lyKXmlelZXyPTZwO67eUE7/+iVveDVg5oW4NeDBpOAC3c1lfO2lX3BVv2CqCo/cb1O+SmXKFMqNx5st4hYeRRfA0q+Lo47JP8uUvwQfVa9M2bfzoM5WgUGHY5dseMLihl6oXNwp0uZPTp/eycTBc/GLWmvMcuyeLG5ONpUL7kVas/z0aXZM/IW5fhp4doRBlfKjUmWh7A+7Y2Z1Ai+uMveLouT9dDxnjYSY5ZbkqBAQAkJACAgBIZDaBBwiuKbW8CJ3Dg9yFa/N973681PXr6hQshpdl/rF9+YowRwYVod87qqoFeNV6gJU67OWG2H7otbhUnu+R8OeU9l66QkKOp6cXs3QZpXIq1aTr2w9WvfsQ4fGH1P9m3Hsi1llPg5mnOAqlmilee3t7fz0SaEYMRW9Un2+Kj1Zddmoh0p7i419a5JfHW2fi4srOUo2Zfxfdwx6lxQebuxOsUzRi6+qC3gz4uB/iYcC4wyL31AebqVDsZzRuW3qAtQYsS9OXOnu72N049LkVOekcPWmdOndha+rV+KTDnM589x0/ll8zbIlBISAEBACQkAIOBsB+wsuwrl+8SYvdGHcu3CEXZs3sm3/WQJDY8fvDBHoeHzxINt9/+b605gZgUoQp3Yd4rrRkGTsWZEhd7hw2Jdte05w/YmJxHJ9wVjB5V6GwaaSz9ERcvsce7dsZtfxGzw3GNKMbSf2f+TTm5z4307+OnuLEMOVLWIL6JP2755hz85DXH1qykeDgsab4fc4tceXw1eDTYg0/bMUT7Fn60a27j3K5SB5pI8xPnkvBISAEBACQiCtEHCA4HIC11+eZmCpnKg8PmNukBmV5ARmiglCQAgIASEgBIRAxiCQTgXXUfoVz4FH5TFcinueY8YIqHgpBISAEBACQkAIOB+BdCG4Xp6agnfBPBRuOJET+qHIkDU09SxMq/UxD6N2Pu5ikRAQAkJACAgBIZCBCKQPwXVyHJWyu+GicqdAte/o2PwrOsw7jVEafAYKq7gqBISAEBACQkAIOBOBdCG49EA19/zYs3kDm3Yd5+ZzG5PXnSkiYosQEAJCQAgIASGQ7gikG8GV7iIjDgkBISAEhIAQEALphoAIrnQTSnFECAgBISAEhIAQcFYCIricNTJilxAQAkJACAgBIZBuCIjgSjehFEeEgBAQAkJACAgBZyUggstZIyN2CQEhIASEgBAQAumGgAiudBNKcUQICAEhIASEgBBwVgIiuJw1MmKXEBACQkAICAEhkG4IiOBKN6EUR4SAEBACQkAICAFnJSCCy1kjI3YJASEgBISAEBAC6YaACK50E0pxRAgIASEgBISAEHBWAiK4nDUyYpcQEAJCQAgIASGQbgiI4Eo3oRRHhIAQEAJCQAgIAWclIILLWSMjdgkBISAEhIAQEALphoAIrnQTSnFECAgBISAEhIAQcFYCIricNTJilxAQAkJACAgBIZBuCIjgSjehFEeEgBAQAkJACAgBZyUggstZIyN2CQEhIASEgBAQAumGgAiudBNKcUQICAEhIASEgBBwVgIiuJw1MmKXEBACQkAICAEhkG4IiOBKN6EUR4SAEBACQkAICAFnJSCCy1kjI3YJASEgBISAEBAC6YaACK4UDaWG62snMvPgExtb1XFr3WSmHQhCsfFMKS4EhIAQEAJCQAikPgERXCkWAx03l3Wmfu8tPHwV1fTCn2lff8nQQ7aKtRRzUBoSAkJACAgBISAEzBAQwWUGjL13R5wYRw3vIRx/8X+vXLVyZxUtPvyOVfciX7kOOVEICAEhIASEgBBIeQIiuFKCufYswytXoNf+58lsTcftuV9TymcFD16llyyZrcvpQkAICAEhIARSjoCGm9unMmDcVu4afeeFn9/KnJkzmDHD4DVrCfsDX1pvXvgJZvYZyvILIdafk4ySIriSAc+6UxXuLPoWrxpTuKGz7gyLpcIP0LNEafodCrNYTA4KASEgBISAEEizBHQP8B3clMZDdvPA+LtTF8Dsul6oXFxwMXi5ebVj+3PbRpGUx4cZXr82nVdeQuNgWCK4HAyYyMuM+ciLevMDk054V56wb1wHOs09i/lBw0hOD6lGweYrkGwuRwdP6hcCQkAICIEUJ6D8x94fP+X9lisIMOrZ0tui+XsIFUt607RZM5rFvZrTbZGfhe9O814oQdvpUKIYTZdcfaXzzdec8IgIroQ87P5Od3o0ZbN6My3QvISKbVS5v4i6WTJRrN9BtLE7Tfx/eWQwJXM2ZOHDpOs0cbrsEgJCQAgIASHgpAQUApe3xitXXWbdMjE8qASxrFkVOu4ItqP9Ck82dubNnJUZecpxo0ciuOwYssRV6fh3Yl2ylh7EmcikuzlD17Yjj1t+Wm1KYjw5bBMtPPPTfI09L7jE1sseISAEhIAQEAIpSUAJWs+3BbPyettNhJpoWOc3geqfjMFfl/R3qonTze/S+TG0bG6yVR3LBSu+r81XZP6ICC7zbOxwJIQ/G79JtsZ/kHS6vIYDvcrhnq0Rix+b6EM1tCbyIiMr5aVor78s9oQZniLbQkAICAEhIAScm4CGk4OronbNS4t1pjoUQtjc5l3cXLOQv8RHfNl1DCtP3cc4xcvQRyXkJke2rGDR/EX8uW43/zx4YXjYYDuSU1FtF6TluiCD/fbbdLzg0j3h3IZ5TJ40jcU7zhMcpSW0BJ3fzZLpv7Fw0xmCLNGywtfQ2+c4fPAABw7Y+Dp4kKOXHiY9ZvuqPujOMaS0J0V67jUrjJ4HXsLPzw+/czv4oVwu3Ev3Yss5P/z8/AkIMQfmGX829iJTvXmSx2XF9SFFhIAQEAJCIA0QiNhL50JZUak/Y25Q4o4H5d9Z1MjmniBRXuWeh4rtF+IXZtzjpeHiki6Uy+fFxx1/YdzIPnxZMjeuHm9Qd+LfJnvPIrZ0Jb+riqx1ZyWaFWkPeo4VXM9PM6N7DyZvO8/DoIss+qY0pbqvY9foVrSduo+blzfQuXQB3htwyKwgSdpJDYfGNKd2rVrUeoXX551+519LXZPJ8UHjS7vXslNx5D+mFbjyhN1jOtDSx4cWjSqRz9UVz3L1aeHjg0/L9kw9/MyM+xp2dngXjwrDOO+grk8zDctuISAEhIAQEAIOIaDd1RsvNxVuhbuzT2MsoABFy/OgW5w/vI3FE/rRpGwB1CoXXFRu5Ks5iXMG61y+PD2OCpndyd5oEY9jrFWu/Eb1zG6oMtdihom8auXyr1RWu6LK/DnzHtg/R9pxgkt5xJZ+7Zl0Nn4wLWLV92RXZ6NY5408RcelMTVRq9wt9gA5JKrWVppcHyLW83W2rFSdeMW04DKwI2x9R/K65abZqthLw+Bgos3o4UePkj9yTGviokxUXnYIASEgBISAEHBmApH4j/JG7eKC+tMp3E7cwZXYeN0jjvzanMIerrioMlNp5JmYESuFh3Ma4+HiymttNhE3iPjyKH2L5cDF7R16HYhIXF/YeprlUOPimp/vN5vKIEt8ii17HCa4dP5TaDVwX7yjKNyeWh+169t03Rs9C0B59A/bt58iyP5C0hYGZssm24eIjTTPkYUPxlxIQnDF5G9lqsVMq1aR17C/Z1k8Sg3ghPRwmY2fHBACQkAICIG0QkDDep8iqFxUqBsutCLvOdYvLZdmNiGfqwtub3Vlb0zPmC5wO8PadmLqYYNODM0pBpXJjYubFx19TcxG1O6na6GsuLioqT7539gG7PbfYYJLeXCZiwmSs8JY71MUt9zfsiY0bfTKJNsHzW46vp6d9wYds5wnpk+Cr+iJusJwK2dHaNjWtgTqSiPsP1PDbpeWVCQEhIAQEAJCwFoCT1lUvyAuLipyNF9JuLWn6ctFXmT0B3lQuVVlwvXES0mE3zrIgoE+1PiwIsU83XFxe4MOO00IrpfH+KFEjijBpf/etvefwwRXIkNfHqHPOznwqDWNe9Z0FSaqwNwODUd/bUOjhg1o0MDGV8OGfNX7T66by003btJWH2JmE77d/X8WV7BV7i2gdmYPG2YdBrOo/utkafQ7T41tlPdCQAgIASEgBNIaAeUR8+oWiBJcWZsus01wEcmFkZ+idq/ISP/4VSx1D/5mRocalCjTmCF/HuNB+EVGV8pjQXCd4ef3cqZ9waXzn8gHag/KDj1lubfH5otEIfjyEXb5+uJr82sXe08HWBRDhubY7kMYa5sXJmsSwih0TVs83fLRckMS62/FGvPyFANK5aZk/yPJmGwQW5n8FwJCQAgIASGQ2gTCWd3srajH9agbLMDKb8MYoxWC5jYhU/Ym/Pk0ukdHe+l3mr6VHU/vURwLiRlVi7xsWXBpD9O7aPYowVVlwhW7A0mhHi6F+3OakCVRN144R5etxj9N5CG9ig8Kd2Y2IluxPhw2m9yuYV/Psrhnrsf8uJXjtfgtX8EJM+coQX9QP7sXbbeZm8Vo9+tEKhQCQkAICAEh4EACkZwcVAV3Fxfcq0/ipk0jYVr+/vED8jdZQtRqEspDFjV8E5VrITrtNkh+T0pwaXxpXyAzLq558Flv/+9XBwmuCC6tH0OvvvM5pV8bQ3nE0iZv4ZqpAQufxFPU3V5Cp76bSbS8WcgOOldozcqQ+LIOjLKZqpPpQ0ytyuWpVMlWKUE3Z4IGdVcZ+1Ee3D8czaWY5SmUO6vo3GNl9IWToHD0m7BNnSmQ71tWxyh5E0VklxAQAkJACAiBNEUgfHMX8uuT380tC6EL4d7d4ESjZErgKpqVqM7oszEzD18epV9x/WzE12ln2DERcYKf9EOGrgVou81AiMVQUu4voLaHGyr1J0y5Zf/ZfI4RXGHr+DqHGlWOesy7G4nm3DRa1/qQ13J8zYrYhHntTVb068+KgMQJbpqdvShUZiAnU7PnK5k+xF3lyh3mflaIymPNzFSM9GdERc/4JEHNJWa17czSm4m5RNcZxpY271K4i6+NY9xxFsmGEBACQkAICAHnIxCyiRb5MqHKVI/5j4w7XEJY06Iobm65KN1iLNuvPUOnfcqNvdP5tnwl2qy8Fr8agHKHWbUKRs14zF6xGyuO/8OxzTPo8ll1ShVQRy0hUX3kX+ydPx/fuJEl0O7/iSJurnhUm2B5fc5XJOcYwaW7ydLW1ajWdgILpg+n+w8LuRAeyMbe9ajVfjzzZo/np24D+MPf1DwELSd/rkqRrruszq16Rd8tn5YsHxJWHbKjJ8Xe/5GjphZyQ8et5R0pWbIRw2dMZEDH7vz2938YX2qxNSoPV/N1oY8Zb5AYGHtM/gsBISAEhIAQSLsEwtjTtQxurvqeKeMeKB1X5n+Ll9o1eqV5lRvqzJ4Ur9Od+SceJfrOfHZ4HN6vZYrKCXNRqXmtag9WXn7IljYlcXVR4ZarIj023YoXaei4PK4Watdc1Jt3I1F99mDqGMEVZZlC2MObXAsMTpDYrQ2+ww2jfdGO6Li9YyYjh/WmbiFPyvn8zPCRM/ANNNfTYw/3k6rDVh/M1KfcYWnTCnwx/7pBcBOWVV78x+1bQYSbU1pRxTWcHFqLigMOYGJCa8IK5Z0QEAJCQAgIgTRGQLk+nzq5M/FW110G63jGOqHw/OYJfDeuY5PvQfzuWv4mjHx8lYM7d3LQ/358Xc+vcXDXEW48N1qeQAlkeo3XUJfow8Fwxyxd5UDBFQvIxv9PVtI4Tw2m3rb/+KmNlti1uHJnPa0rt2CZiccJWNtQxOkJ1PYewpFEz4yytgYpJwSEgBAQAkLAmQloOT+5Pp75m/KnAx6vY85z7clRlM1anK6+/5krkuz9Tie4Irb34M2ygziTmvlbycZquoLQY7/SpPEojsbmsZkuZnKvcm8LXT9rw583UrPHz6RpslMICAEhIASEgP0I6AJY4VOG4m3W8dDiqI+dmoy8xuz671Ft+EEbVri3vW0nE1xajg+ozFuddqZu/pbtHK0+I9x/MxtPxj9f0roTdQT4rmDHrfgF3aw7T0oJASEgBISAEEiDBF5cZVmH2jQYc8jGNbls9FX3EN8fGvL50N1mVwawsUazxZ1LcOluMeXTt/hqeXSXXujFC9wwGmY164kcEAJCQAgIASEgBNIPASWYU4uG0HO8r2N6ul748XvfnozcdDVFOnmcS3BpttO6oDe/6vO3wv1YOHUTD1KiOzH9XJ7iiRAQAkJACAiBdEVA0WoTrb1lFwcVLZoUTBd3LsGl+5fZDevRf8NWFk+ey16D9THsAlcqEQJCQAgIASEgBIRAKhBwLsGlB6AL5e6Nu4TIUGIqXA7SpBAQAkJACAgBIeAIAs4nuBzhpdQpBISAEBACQkAICIFUJCCCKxXhS9NCQAgIASEgBIRAxiAggitjxFm8FAJCQAgIASEgBFKRgAiuVIQvTQsBISAEhIAQEAIZg4AIrowRZ/FSCAgBISAEhIAQSEUCIrhSEb40LQSEgBAQAkJACGQMAiK4MkacxUshIASEgBAQAkIgFQmI4EpF+NK0EBACQkAICAEhkDEIiODKGHEWL4WAEBACQkAICIFUJCCCKxXhS9NCQAgIASEgBIRAxiAggitjxFm8FAJCQAgIASEgBFKRgAiuVIQvTQsBISAEhIAQEAIZg4AIrowRZ/FSCAgBISAEhIAQSEUCIrhSEb40LQSEgBAQAkJACGQMAiK4MkacxUshIASEgBAQAkIgFQmI4EpF+PZvWsP1tROZefCJ/atOUzXquLVuMtMOBKGkKbvTtrE6/4W0qlkDb29vvGsPYEfY/6Vth8R6kwR0AavoUismzrV6sPpBpF6boDcAACAASURBVMlyslMICIGEBERwJeSRht/puLmsM/V7b+GhqAx44c+0r79k6KGMLj5T7pJ+efQX3q/Yi42Hj3Dk6EWCdCnXtrSUggTC7+F39AhHDi6mVTFvJt8SwZWC9KWpNExABFcaDp6h6REnxlHDewjHX0ivQiwX5c4qWnz4HavuyRdCLBNH/tcLrtLek7gpgt+RmJ2n7pcn6F+6pggu54mIWJKAQDj3rgXwPMG+1H0jgit1+VvZukLwxb2sXPwHG48HojE+S3uW4ZUr0Gu/M11axkamxnsdt+d+TSmfFTwQEeDwAIjgcjhi52pABJdzxSO9WaO5xY5JPzNue4BRakg4FzbNY+aMGcwweM36Y18UASXkX3ZO70ej0q/h8Xp7dmgsdEKEn2Bmn6EsvxCSIvREcKUI5uQ0Esa5aV9Ttv5Y9h9eSsfypWi9PsigQoU7i77Fq8YUbsgQjgGXmM3wA/QsUZp+h8ISH3PCPcrT82xbe4S7tsRSCeafrZs5kcpjeCK4nPCCcqRJIrgcSTdD1627/z+GNPqKIXvuYnwr1N1eyGc53XFxcTF4ueHVfgvoAvlr0TSGN3kXd5ULbkkJLkB5fJjh9WvTeeWlxJ0Zdo6CCC47A7V3dZq/f+HdTCXod/gB633ewVWVhZozbsQ3E3mZMR95UW9+oNGvgPgiGXsrktNDqlGw+QrSRDaX9ij93i1L/6MRVodNd3M2td5px7ZQC7/kjGpTnl5h54JR9G7vw1dfNKRBgwZJvr5oMYmjWvNtWBRcyhP2jetAp7lnkQFeo2DEvFWeHGR8m87M/SdRH7bpE1J7rwiu1I5Aumxf+W8//T8sS8vVt0x8p2n4+8ePKVHjK5o1axb/at6NRRfiPzcv/x5CCXeVVYJLD1EJ2k6HEsVouuSqQ+9PIric+pJ9yppvi6Iu3J39Gg1X1o3mx5FruWyQp6U7PZqyWb2ZFihfY+ZC+fLIYErmbMjCh2mBUSR+I2pQrIsv4eYcSrA/kvMja1Cq734rf51FErBlMN4lyvHVz9NY4Xucy7cDCQxM+nX33hNeJGg74RtLgku5v4i6WTJRrN9BtAlPk3dRBBTuz2lMFrfi9DtivdhOVXgiuFIVf7psXLnD8mYlyF13BjeNu7b0wujhar6p2JEdz83/8NNz0fmNo4LaesEFCk82dubNnJUZecpxoyEiuJz5qn26nuZ5MvN6+61mvuh0/DuxLllLD+JMpOUL0JnddLhtYZto4Zmf5muCHd6UPRqI6rEq3Ir1IVbEVHuc/mUqM8wv/tedeRsUHm3rywdVurL6iv3z/SwJrtC17cjjlp9Wm1ImV8I8A2c9Esrab4vglvc7NqaV5TREcDnrxZRG7VIIWtWWguo3aLv1qQkfIvEbWZdPxvklGmY0Lqzzn8gHalere7iiztf5MbRsbrJVHcsFB32fiuAyjpQTvQ/b0JF8brlpuuI/M1aF8GfjN8nW+A+nmolhxtjU2x15kZGV8lK0119po3dFCWJJ41I0XnrPRJd6Qozhvr0pUdPK/L2QXXQq/wVzbr5MWImd3pkXXBoO9CqHe7ZGLH4ssxdM4tYepleR7GRvtIjHJgs44U4RXE4YlDRskvY0g8vkxtXzW9aa6sEK2U5bryy4ZslHicqN6DJuBSfNjFroLk5KKLiUEC7/tZalK7dz8vYzM4ItklODq6J2LUjLdYZ50vZj6njBpXvCuQ3zmDxpGot3nCc46n6rJej8bpZM/42Fm86kkfV6wrh99ggHDxzggI2vgwePcinI1i85Dft6lsVN7c1vAWaGwnTnGFLakyI99yYtJJwwDi9uHmbF7GnMXHOcRya+h5Wwpzy1y/jTM/5s7EWmevPSRh4XELKxM+/Umc5tE1ziP/7BrGlRlsZL7iYpzPRd5vfmNaNc77+sHHqMb8XaLWPB9TzwEn5+fvid28EP5XLhXroXW8754efnT0CIifECaxtKN+VCCbyo5+HHue0DKaf2oHSfTZzTM/O/TYjF2DsBBBFcThCE9GNCxK7eFHJzxeOz2SSWOzr+ndqAbCrDRHkV7nkq0v73cxgPAhoKru03djLw40KoY85VuRfA+xdf7pu4BUVs6Up+VxVZ687irgM+f44VXM9PM6N7DyZvO8/DoIss+qY0pbqvY9foVrSduo+blzfQuXQB3htwKGnBkNrXleZvxjapS61atV7h9TmdllyxzoPwg/xSpyqVK1egcE43VFneoMxHlalcuSY/7TBK+9b40u617FQc+Y8ZxR7TpBPGIeLkDDr2+Z1TAacY8WFBPhprlEwdvJnWb2Sn/LAzdkhi1LCzw7t4VBjGeQd1FVsXXBtKaQ7S893qjDj1gMePH5t8PboynwbFrRx6JIJ1Pu/RYu0zG4ywrWgCwaU8YfeYDrT08aFFo0rkc3XFs1x9Wvj44NOyPVMPO84O26xOvdLKk72MbfMdPj4taFShIK6unpRt+C0+Pj60bD+Fw84+tCiCK/UunnTXsoZdnUrh5uJG4R57TP4oVLShBN28wOGtfzChz9eUzZsJlYsLKrd81Pz1dIK0m1jB5Zr3I+rUqMwXPUYwfcYYetQtQWa98FJlpdKwownO0SNVLv9KZbUrqsyfM88BT1BwnOBSHrGlX3smnY3PFYlY9T3Z1dko1nkjT9FxaUxN1Cp363po0t0FZtkh5fZsamTyoGT/I+bFaMR6vs6WlaoTr5gXXM4Yh8hLTGozkH36WXWRFxlR0ROPhgsTDIuGbexEPrecNP7T3HCqZX4Jj0YPaXmU/JFjFmbZJTwntd9Fz67MUbI+nbp2pWuiVxe+qfQGRbv/L9FNw6TlShBz63rhVf6T6Efv6B+/Y+Or5pejOGyBXwLBZWBE2PqO5HXLTbNVKT1YpuXpw0eEW/qlGhlKUNBzM6I+kudBQTw308Fs4GIyN8NY37IobjmbsdLpu7UMXBXBZQBDNpNFIPISoyp54uLiwae/3bCixx50QUf5tXFJPFQuqDJXYoTB7N5YwaXKXpURJwzywXR32dShfFRvl2ueZqx4YnRzCFtPsxxqXFzz8/3m0GS5ZOpkhwkunf8UWg3cZ/BloHB7an3Urm/TdW90B6Dy6B+2bz9FkMNvaKZcd+Z9CkGLviG725t02m3cWWpgd8RGmufIwgdjLpgVXM4Yh5eHhtFi7D9RX3LRs0kyUXHkOYMvvZjhVPfqTLph61CsAZ+4TQ37e5bFo9QATqSVHi79r62r0/B+txt/GcxKjXNJd4Vx1T9i8ClrkuX1Z4Wzstn7fLfmPiEhIa/0ev78hUGM4iyJ2zAtuGLytzLVYmaKrvgfwYH+lcmqciOP9yT8TMU98iKTP3kDV9fslBu0z2hWaCR+Ez8nt6srOcr9xH5H9jbF5G9lrjWde0b3/zi4zrghgssZo5I2bdJsoWVuD1xUmWi42IbJTdorzPzsLVxd3Hir2+4432MFl6l1uJRHq2iqb8u1IO22GYkq7X66FsqKi4ua6pP/javPXhsOE1zKg8tcTLAQYxjrfYrilvtb1tiwXpC9HE1b9TxjTfMiuOVuzmpTyYOxzmh20/H17Lw36JjZL0JnjIMu8CIXn+gH0LUc++lD3D2qM/G6gbCKPM/w8p6oywy20+xLDdvalkBdaQT+Oitm/sXyTe3/yn0WNCzN95sS34B0p0ZS6dMJXLHaHx1XxtfDe/JVs+I8ue6aFFz6CQsVPVFXGO6wmT8m7VaCmP/561FDDq65mrPGlGDS7KRN/sy4uKjI8tlso6cRRLChZVFc9UMWmWsyw4HLruguTKCS2oMKI6N/hJj0xxl3iuByxqikTZue/kmDTG64qHLRfI1t6Qa6C5P40MMN96rj43y3JLhQ7jK9Rn5cXDJRZ+79uHOiNl4e44cSOaIEl/571d5/DhNciQx9eYQ+7+TAo9Y0K37FKbwI+Y/HoU7U9aU9wRSfxjS0YoFI40UkGzb8it7LbVDLEf+jo1dWstSba/lB1DGz797u/j+TY96JYqDf4Uxx0Byg+9vZyPTJ5ASr5CuBc6mVyYPCPcxNBrD1+ghmUf3XydLodww6l03icbadwWvaU7zpEqNJBfoewKo0nG/8yAvL1utuzqP+p0M5a2FY0HINlo+aElzKvQXUzuyRKjNEw/03Mn7wMGb/dceMyIzk9s4ZDBkymS3XEq96FnlrN1OHDGHylisGPfWWGdh+VOHerEZkdnuHXgfSyPpbsU6K4IolIf+TSUB5tJjPPPSCKztNV9omuPRpKVE/6iqOiLPCouAigtXN3kLlkonP5j2MOydq4+UZfn4vZ9oXXNHrYnhQdugps70xUQ7r7rBzfAc+ypeFKhMum7lRJmRk+zsdT04v5oexOxLNbjBbl/KUy4d24+vra/tr115OB1paMjJhqy8PD6KYeyaqTbKQmxV1Shhrmxcmqw1CwpnioN33I4Xd1HxoNCT6bNX35HZ7je83m/jgvcr18fIUA0rltpwPlzAEzvMufC9dStVjtmEPS+gO2pf1YVX0lF8bbI3g5PCG1Bi8F+PUBRsqMVvUlOAKXdMWT7d8tNxgYf0t3RNOLxjAWF8T8TbbWno5EMqa5oVxy+PDelO9cHFuKtz/awEjB3xD2TyevFZrMpcNejd1F9YysFll3shfnBrf92PGPqNf7nH1WLNh5f1RBJc1MKWMNQTCN/CNPnfKJRMNfrcx11Ofn1qnADma/BHXkmXBFc6yJl6oXF+n3XajlB3tYXoXzR4luKpMsHKiW1yrSW+kUA+XfhXlJmRxe4MOOw0dDOfostX4G+dXaPfS+e33bFpxWRe4jVmrLyUh0CLxXzOBYcOG0bFaQTzqz3fCHo9I/hn+MWr3sgw5m1R+jsKdmY3IVqyPxWTm+MvAQXEIvcSmqROZt++WZTEdb4h+LWBuTYnO6esWk9MXfVjLoT7lcc9Uj/n6tSJ0AWxefTBBQj02Xh9K0B/Uz+5F220mvtBfyfYEjjj4jZbjAz7m4wn+Mde2wn/Lv6d85+3W/1gwtDAygLUdqvH+F8PYcvmx+QkZhudYuZ1YcEXn4rlnrsf8uPVytPgtX8EJfS9b5CXWjhnOsGGdqO6ZlfqLEk+QCPPfwtQJ8/grwC7rg1jpiT2KhXFx43QmzNuLuVVdolrRHqJn4ewJe7O1F1i+7LjJ2ETsnUzP5tXIrK7ESP+ETHQ35tJr9CmT51nnkY33RxFc1mGVUkkT0J1h0Pu5onOnfr1mVdJ8XKUvj/NjyTdo8ue9uF0WBVdMgr6rZzNWPjVKmtT40r5AZlxc8+Cz3sT3RVwLr7bhIMEVwaX1Y+jVdz6n9L/alEcsbfIWrpkasNDgp7Xu9hI69d2McYaK7swYKhT8jg0Wf/EldFi7bwCfdPO1cmhNw95upcnkjIJLd4PJ1fPhXrwff1sx9KNcnkqVbIlvvtF0UiIOCnf0QyL6mSKZKjI8SZEYG7dI/hn2MWq3yoy7avDFobvG+Mp54vK3lDu/0/Xn/Qm+RGy9PsI2daZAvm9Zbfzh4lVtj/UhZf4rF3+leqWYfDblLnMbVOOnY8kZfgrFf81ovq9dkRIly1CxUiUqWfH6sPYQDmjM58AlEly6q4z9KA/uH47mUkxvjHJnFZ17rCTI8D6nPUC3t3IlFlzKXWbVKoDKRUXmisM4a/zDLGXwv1Iryh39UKo7LqrMVBxhvlc/ehq6Bx+OjZ34onDnz170WG1q0dtwdo+fxL4rM6mRORMVRhhONNFxe95oZttpkolV90cRXK90bchJpgiEs7l1sajkd3PLQuie3ufuU4Nc36hqFAL/bEWJqqMSpEpYElzKld+oljkr5Yb8nUgvKPcXUNvDDZX6E6bcsn9Kk2MEV9g6vs6hRpWjHvPuRqI5N43WtT7ktRxfsyI2YV57kxX9+rMiwATAGV+Q+/M5lvOXjGKWXgSX8mAxn2fNZP1SGcod5n5WiMpxN2wDMCkUh/BDo/goX07yvv0O3/1hLJ8N7DHafLq2PfnU5fklbjqvhiuLu1HhNQ8yNV5CGDpuTO/GgP2G+TUKgTZdH2FsafMuhc08m/BVbTdyxbFvlUBmff4BvQ+ER81crPnJKKdM/k8kuCL9o5b8yNF8ZfQMQM0lZrXtzFLjle7NCS7COfRLDfJlz8vbRVuyxNIEEsdGwPbaw//ml4+8yJ73LYp+tzhhD61Bbbrz46mkzh2XKKz1n0/bTksS5DTGFQ/fw7iJB9DobjOtxmuoyw3hXKwI1d1i7oh53DQUsnEn2rph5Q9SEVy2gpXyFgiErG1HPlcVmevN5ZFxuZCN+OTLjFuu0rQYv5VroZFog2/w19RWlK/YhpVG95RYwaXKWp7um2/E/2B/fpZf6xbFq+F0zpv48ajd/xNF9IuvVpvAvwZD9sbmvOp7xwgu3U2Wtq5GtbYTWDB9ON1/WMiF8EA29q5HrfbjmTd7PD91G8Af/oZfpLEuPGNVs6J8MPo8OkLw2/QnKxaNoGmdXmyzkLOSXgTX0xWtyO2uXw7CaLpqLB4T/0N29KTY+z9y1PgCSuE4vPx7LENsmWGiC2B9jxqUrt2TaQsXMnPsIIYuO8fNLf35oGxjhk0eRLdhm41mj9l2fegfdvp1oY8ZbzT8YozRZtuNK3Do++hhxDId1nNkaG0+n2XdOjUONclE5YkEl37YeHlHSpZsxPAZExnQsTu//f1f4uECs4IrthEtfw8byupw871rsSWd7v/L4wwbstpoyQkDK3W3Wd6qHCW/HMqMiQPp2G0qfwebWAIbCNs+iYlRD7ZWuD3jC7Lo0w7ORKcd6G4sYsT864nZGjRl/aYILutZSUm7EQjbR7fC2XAt2Jatxkvh6P5l/pfF4leLd1OTOU9x6vSYy/HHJj4vuiecWTGCb8oVQK3OR5n6rejZpyONq1Xnmwl7Ta4yr09zuTyuFmrXXNSb55h7rGMEV1QEFMIe3uRaYHC8utQvBBB8hxtG+xIETHuA7kVK0nP/PU4sm8fWa+EELWmJV8kubDYYjkxwjr7edDGkGMbGVsVQF+vNQWPxZOyw4XvlDkubVuCL+ddN5LClVBwUHv0xlFEnkso7MzQ8elsX9ojbgQnziZSwhwQ8NMz3iznPputDw8mhtag44EAS+U6vbntibxy0J9SXju+XoUzZZvz5yP5d3fawOrHgiq5VefEft28FmV+ANCnBpU9J+HlMmlpDLZan8mglP482v2xLDCFePArg1qMwC4IplK1jJ3M0Js1ACZhPrayZYpaE0XF99hgWGE6siDXglf6L4HolbHJSMgnouD7zS3K7vU3XPSY6HJRQbh7bxcZ1m/A99A93rfoBFklIoD+Hd25jz8lrPDHIXklkrBLIdH3PcYk+HLSq7kQ1JLnDgYIrybZNFtAvhFkp54d0nvEH+2+bpqM88GVk1CMxfKIeg6F/FEaLz8vyxru1+Vb/6JDYV8vWDFp7w4QIsfKGYtJC++/UhIZGi1LNHjp55aayFU9DN7ZCubOe1pVbsMxON11r4pDABt0NZvceE50MneCAfd/YYlfE6QnU9h7CkaRyAVPI9uSR0HJ++SgGLzqahHhMXivJOduc4EqyziQEl3J9Ab3HHEvwwy3JOp2igI7rs35g9Ink5NvFOPJsO2MmH41noNxhVu2CqN/tz7EX/zJz5O8Gz34LYd+ETlGPVYq7F8beEw3/t2zD8K13TZCy8v4oQ4om2MmuZBHQ+jPZ24v8Tf8wGtlIVq1Wnaw9OYqyWYvT1Tfx5B2rKrCikJMJLoV7sxuTr3o3fh3VG58WP7H2umnRZeybcm8RbXuntaR5LafG16dAplw0WfYfodt78tbbbdn29NWGTkKP/UqTxqM4GpsnZwzJ6ve2xkGD/+x+DNnxwMIvdKsbt1DQeruUe1vo+lkb/kwyiTilbLfgVjo5pBdc75fvwrKdvvj+7wz3TPT0m3TVkuB6cYk5PX9hh5P26pn0J2anxn8hPYdsM1pDzdIZ5o+FbJjA5ATCTeHOnMZkcy9Jv2W/MXKxbWuymW9JfyQJwRV2i2P/88V3+yyaF/VmsgOSiy3bJ0fTMwHd7TW0LFaSNhtNTRxxkOeR15hd/z2qDTeaEW/n5pxMcIWy9tvifDJFPy00klODq+LVbgsafS7IeX8STTIzgJEmBZfygJm1vPCq3IWVV04yppY3P+wJSpZoCfffzMaT8c+vNEBkw6aNcdBexnfnJQcuDhlrurV26QjwXcGOW1aI9RSzPdaH9Ptfd/kPOjVqSNTCv42H8j9ru+UtCK6X/v9jxxVTuZ7OzlHLRd+dXDbORXkls5+yfvQUTsUmyMfUodz7nc+zeZC/6PcssuuDdi0LLiVwPf2+jInzl/3ZELfkxys5JycJgUQENFdW0fHThoz5+0miY3bfoXuI7w8N+Xzo7oSzp+3eEDiX4NKvSVOsND8e1XfB69cfqkKJPvvRao8zZ9Zhi1/otgqu3Z3fI9PncxMtSeEAxhaqVHi4dyq9ew1g8M+DmbL7lonhTwunO+pQMuLgKJOi6nVWuxzqdAaoXPsXXd7MxecLEs1NygDOJ+2icmc5P44+HD+cGHuKcp95n79BjobzbZrRHXu6+f8anOP+aN5COZL+CShPzvD7wF6M3+3Anq4XfvzetycjN11NtESEIwg7leDS3ZyJ99vt2RHzyzh4R3/qtp/Npvmz2JTE0JB1gkvH7R0zGT64B3XfyoKr5we0GjiUUSvPJr6ZOYJ2GqkzOXFwpIvOapcjfU7XdesC2DltJIO7f85bajc8P/iOgcNGs/IfO+Q8pQdwoWdYOqgjdd7JTZZi9ei14CgJU4kVHizuSvsV95PVKx6PSu6P8SxkyzkIKGi1DpwkpGjROLB6Y4ZOJbhQwngaknBdrvCgQB6EJZ0MojxcycDRBkmlxp7GvI98EcaLSIPFanQawsKtGHoyU1+63J2MODiUh7Pa5VCn03PlkbwIe0HCj2MY8nGMiblOQ/iLSHQKKDHbjr4a5P7oaMJSf0Ym4FyCKyNHQnwXAkJACAgBISAE0i0BEVzpNrTimBAQAkJACAgBIeAsBERwOUskxA4hIASEgBAQAkIg3RIQwZVuQyuOCQEhIASEgBAQAs5CQASXs0RC7BACQkAICAEhIATSLQERXOk2tOKYEBACQkAICAEh4CwERHA5SyTEDiEgBISAEBACQiDdEhDBlW5DK44JASEgBISAEBACzkJABJezRELsEAJCQAgIASEgBNItARFc6Ta04pgQEAJCQAgIASHgLAREcDlLJMQOISAEhIAQEAJCIN0SEMGVbkMrjgkBISAEhIAQEALOQkAEl7NEQuwQAkJACAgBISAE0i0BEVzpNrTimBAQAkJACAgBIeAsBERwOUskxA4hIASEgBAQAkIg3RIQwZVuQyuOCQEhIASEgBAQAs5CQASXs0RC7BACaZ5AJP5z2lPT2xtvb29qD9yW5j1Kqw7oAlbRpVaNqDh41+rB6geRadUVsVsIpBsCIrjSTSjFESGQ2gS0HO1fmYp91nH4yBGOXnqY2gZl3PbD7+F39AhHDi6mVTFvJt8SwZVxLwbx3FkIiOBylkiIHUIgzRPQC64qeP96DSXN+5JOHHh5gv6la4rgSifhFDfSNgERXGk7fmK9EHAiAiK4nCgY0aaI4HK6kIhBthDQcHP7VAaM28pdo19x4ee3MmfmDGbMMHjNWsL+wJfWNxB+gpl9hrL8Qoj15ySjpAiuZMCTU4WAIwgoT8+zbe0R7upsqF0J5p+tmzkRZMtJNtRvVVERXFZhSslCIrhSkra0ZU8Cugf4Dm5K4yG7eWB8W9MFMLuuFyoXF1wMXm5e7dj+/P9sskJ5fJjh9WvTeeUlNDadaXthEVxWMHtx9zhrt5/jhRVl02qRjOBjmomN9ij93i1L/6MRVpusuzmbWu+0Y1uotTcbhaeXdrNgRF/at2jKFw0b0KBBUq8vaPHrEQs2JSG4lCfsG9eBTnPPIhlFpjEqTw4yvk1n5v5jp1u/CC7ToGWvcxNQ/mPvj5/yfssVBBj1bOkN1/w9hIolvWnarBnN4l7N6bbI75XuLUrQdjqUKEbTJVdf6XxrYYrgMkdKCeHyjjn0+6oKpSrUo9vsQzw2EXhzp6eJ/RnBxzQRCGMjI/EbUYNiXXwJNz5k8n0k50fWoFTf/db9QosMZEv/zyhRtgk/z1iO74lL3A4MJDDJ113uPbEkAi0LLuX+IupmyUSxfgfRmvQjo+9UuD+nMVncitPviCXONnASwWUDLCnqHAQUApe3xitXXWbdMjE8qASxrFkVOu4ItqO5Ck82dubNnJUZeSrMjvUmrEoEV0IeaO6dYMWoTtQqW5qPvxvEwv3XcRx+o8ZT6G1G8DGFUDqsmageq8KtWB9iRY+V9jj9y1RmmJ8VvSLKI7Z1/Zgq3VZyOcyKum3y0LLgCl3bjjxu+Wm1KWXyJWwy3SkKh7L22yK45f2OjfaKjQgup4isGGE9ASVoPd8WzMrrbTcRauI0nd8Eqn8yBn+dne9fOj+Gls1NtqpjuRBp57pj/BDBpQehPOPqzrn0b1qd0h98QY8pG/B7nM4GPTKCjyY+nGl2lxLEksalaLz0XpIz/sJ9e1Oi5hRuGOc5mHA+ZHsvKjScbVVZE6cnscuS4NJwoFc53LM1YnG66ypOAou1h7WH6VUkO9kbLeKxteckVU4EV1KE5LhTEdBwcnBV1K55abHOVA9WCJvbvIubaxbyl/iIL7uOYeWp+yR169OF3uHcX+tZunQde87eMTNyEMmpqLYL0nJdkEOoOF5w6Z5wbsM8Jk+axuId5wmOGpbTEnR+N0um/8bCTWdIrTxfzf2TrBrTmToVylGjzS8sOXTTTCBejb3u8T9smPMrk6b9znb/x9FfnNpHnPddyvTfFrDx3IMkL5RXazn+rIzgY7y36WsrZGNn3qkzndsWh7KDWdOiLI2X3E1SmKHcZ16DD+h9wLqBSttpJhZcd+c9NQAAIABJREFUzwMv4efnh9+5HfxQLhfupXux5Zwffn7+BIQkdZu03YK0d0YogRf1PPw4t30g5dQelO6ziXN6Zv63CbEYeyu8FcFlBSQp4jQEIvbSuVBWVOrPmBuU+OJX/p1FjWzuCRLlVe55qNh+IX6meoWVYI5Pb81HVZrQe9hYRnb/jDc9slGk/jD2PEzcqRKxpSv5XVVkrTsr0axIezByrOB6fpoZ3Xswedt5HgZdZNE3pSnVfR27Rrei7dR93Ly8gc6lC/DegEMpl9Oh7+nxncdPX39CuSpN6DN9C/7BicEnF27oyTl07zaJrf4PCLr4B82Llabbxp2M+bYdUw9e58q6npT2fJ+f/rZTroahwRnBR0N/0+u25iA9363OiFMPePz4scnXoyvzaVDcyqHHiM20fKsFa8Id010ORoJLecLuMR1o6eNDi0aVyOfqime5+rTw8cGnZXumHn6WXiNntV/Kk72MbfMdPj4taFShIK6unpRt+C0+Pj60bD+Fw6a+RKyuHRDBZQstKZvKBLS7euPlpsKtcHf2aUzcpxQtz4Nucf7wNhZP6EeTsgVQq1xwUbmRr+Ykzr0wOEf5j509PiR/5V84HjeZ6Ckrmr6NysWV/N8s55GRplMu/0pltSuqzJ8zzwFPZ3Cc4FIesaVfeyadfR4XwohV35NdnY1inTfyFB2XxtRErXKnSM+9KSC4IrnjO5ovS+TFs2wbZh8OdNisQ+XRDvq1mcTZuC+2CFZ9XQh11uJ02vIf6K4w5sM8qNyK0nO/PXsbMoKPcZdTBtiI5PSQauQoWZ9OXbvSNdGrC99UeoOi3f9n1bWsBP3OZ7m8KP9p9KN39I/fse1Vky/HHLTA3UhwGZQMW9+RvG65abbKboNlBrVb2tTy9OEjwo1urAnOiAwlKOi5mdlJkTwPCuK5/X+TJTABwljfsihuOZuxMtndWgZVi+AygCGbzk0gEv9R3qhdXFB/OiWJnv0YT3SPOPJrcwp7uOKiykylkWfiPsfh+3+imPo1fNYZ3nMUbs9pQk6Viv9v7zygojrePkwXYzdqjP4Tu6aJhRg1JiqgUTFGkxgjamxRY43GGI2i2BVFTURRwN7F3onG3o2xoGAvgBWiggLCuvd+z3cW2GV3WWCBXaQM5+zh3rvT3mfm3vubmXdmbeuO5aK+r1bsJjoWs8XCqizdtxnyIMseQbMJLil4Nt1GHdR6EciEzmmDrVUl+u9PckOXIy+ya9dZIsz+MFNDUhIZtJO5v7rh1NiJjsNns/n8QxOLPSXB03ox8oiWq70cxpzPy2D97k/sT1TtMpHn97Dr30eaxqEuYfb/FwQbs08pr6QgX/+TZu8N4IB2z01deOka05p8wpizRjjLq+LEbeK7yl0JiIwiOjo6C58XvIhP72ZNS3Al+28Vcmbeg/Tiqw0z1f+XHB7RkDcsrSndbCZB+g9XVTbKELw+r4CVVVHqjD6o51KgJGhGK0paWVGszm8cyu5oU3pmJftv2TvP5UF64jC9NAx9JwSXISriWq4kkMAmtypYWlhi23YRKUM1GRVWwZV5HShjZYH1u/2T37FxbO9REyub5szVf+ZIEfy7YxN/XzWweEdxiP7vvIGFhS1NvG5klHGmvzeb4JIfXSVExzkrlk1uVbEu+T0BmuG9TJfXdBGkKK7s9mWUmwsNmrSj/7RVHA/XEklZzknmUUgIOtPPsdvpUtqeUp3XGVx1keWsMopYEGzMiEFe/15+iH/bj+i+NbUDqXR2Io5NPblm7God6QbTmzoz87aBpdYm4ZSG4FKGMLF+KWzrjTfb6h+DxZcj8Gv1duLmiFYlOhFgSDAl7KFHWXssLCwp/IUPj3TEzks2d6mKlYUFlvZOeIebTyxKlz1xtLWj3sSLpu2ECcFlsGmIi7mRQBSL25RPvBeLdVqr1/nJoLzKECZ/rJo1aoznrVegvMz4eqWwtP2SpZnRG69OMbxmsUTB9cHoUxlkmvmvzSa4UhXl1XGGViuGnfOfpu3Bpcoo8xfk6Bv87e/BDy6f0OCLHoxbvI+bL0zn0PvqyCiq2djjPC/MCMfmeKIjnxBjuuwTgeQqGzNfRQU6xrOA3tT4Zpmev0ECBwc3pq2fEW1KQ0/ijve3NB1/1sSjuuoMDAsu+YE/LvZ2VB1ywEz5qvNP/T8ueAvTx3jgc+BeGgtUlITu8cbd3YvtN1NP7yvv7mWOuzte269pjdanzid7V2QezG+HvXU1hhw2sU+nEFzZqxoRO+cIyJH4tnwrUXC98c2qzAkulFye2BRbm/pMDFbAqxMMq14MC+tGTL+ZiQ7mq3P8/kHxvC+4pOAZfGxrh8O4s6btwZm0OcjE3D7MMo8+tHSsS7POv+K94yLZ2yEieV7axoGx59Of+pHC9uLZowllbDPZSDLF4PXaqC6q/OgIPmP64lSzPGXKtcc/DQdF6fpaun5YjrK1v2LoWE+2XCuAW2bG7een91vjoz3CErOb3g5urEta9qvGmvH/uH+Z4OLM6EORGYv/jFPTC2FYcMUE9KSUdRm6bDYwhK9KIfoym7xnMMl9FGNnLOfo/fz8mw56yBJPYwjoVBnr0m5sMjQKp4ki8/CAPxNHfodD6VKUc/biqtbopnR5A6M6NqRC2Ro07/4L3gcfCqd5DTtxkPsJxLG+47uJI9K2rv6k8bRIwwyZiIUdKFS0AyujZFBeYnzdUlhYFsN10T2Dzzo58hynr+u9TxTH+Llq0UTB1cjzWhp5Zf1yDo1wqXZQ7kBh6wr8uEd72i6Ok6vWE2zItyLrNpko5kvCjq5hcp+2ONZuSIcJgbrThMbmIj9iQcvyWL/dm93aqy7izrBq3eVU4lO1SqNSrWEcV2ittjA2r0yHez02aor58hBTf/qaeoU/ZpKqV6L/F3eZdXMG0rTEO/TaqZ5SiyVky1w8ffcTZr4ZHv2SvOZzBadHfsZnnsHJozQy/63uTt1+u7K0Ka8ydAt9HB34csJWrj5LvxOQOcMNCS7VSJwDNvat8dMsw1YQtHoNZ1Rt/Plx5oxZyKnEXs1Lrq78kfcqujD7QspoU2zwduZ4+nIgzEAbyVwBczi0kW1VcZTBlYtSuPVCHqunNBWXWb3qtMERwZf7vRjc6VPsbR2TevNaVkm3FzJkstYIphjh0qIjDnM3ASX/jG6EjYUFNk1mckd9LxhVaAUnfv2Ysh2WJb+nk1yYrCwssa87hjOpfGAT+MejP54hes+UhEB6v2WPhVVp3DaZfhW1mQTXS65smsKQYX6cVfXY5EhWdHgXq0KuLHqaQlEKXUbfYdtQv0qN4vo6AsU/4GLw/TSmJPQKFHeVzROGMsz/TOLLUI5cy9cl7bB39eOpJqhEqN8ghu34T3Ml6UDJuXGfUb7rxiy9SPUSy9xpjtmYUqy4fXOYsWE2ToU/ZNQZ/Rf/c86sXsOeuV9T4p2+7E2+YeR7qukpm8QVKfUn5ObR0hQ7TXEkh8yiieMYzqk6J/J9Frp+ym+nsjH99CKEDeN74VK3FrVq18fR0dGITwNcxh1IxxwDgku6ztRPSmPTYDJXkkdj5Hvr6DdoLRGyxO05HWnYexmX1A9EOQLfL96meLvFSfnI95nv/FaiI619fQ/O58rOmWEkxrbVpKXodjSYelkjqO+tHMKg9YY2vY1j7/SZHLw2j+b2hag34YJWp00i1HcyPto+ekJwGa4ccTVXEojb9hNlVc7vaW0LIUXz4P4zrTafZIYcvo6ONZsw+XzKMzF6209UsLZMfFe832sV19S7BsjRBC3rh2MLr1T+r/JDf1zsrLG0/ZzZd03fozeP4IrdyLfFbLEs1hrf+0oSLvzJD84NKFfsW9aoHdgUd1jzywjWhKWeX02RZCqYMrLuBWT9C7mo6cSu/YFilpYUa72A+3I8F2b0xtmxPMW/XaVxmFfcDuCX4asI1ffTku/h7fQ/WvkZsYnla7Q5WzZqyh1HoOcsjkWu5MvC1fS2x5D57/Aq1l+8jV/r//Fu/79S/GfiTjD2k4oUffNdqnZdmomVLJqM8+aBHM78VkmblqpWLjp9Psn0P22RbTIGBJcymAn1S6Fxgk24wvye/VhxR3XfK7k02YnCRZz4UyMSEgjs8z527/+WXJo4jo5tTpmib1KpaheWvciJkd9sg0hKwMi2Kl2ajqNtSToFJPWoFcF+9Oy7zPCvAcT9zbQZh0mQQvmzeTls67hzQS1CpbssnOCrOzIgBJeJKlMkkyMEorfSuUwhLAu1xk9/kyyiCehcFWvrEnzUeSq7bj5HUkRxe/9cvq/rSI+1N3UHRaQwVnxbI2mfLgtLCpWtySdNGuJQqTS2Reox2sA+gIpDv1HF2gq7Tz25oTVdbyrbzSO4pDus+OFTPu3pif/c8QwcvojLceFs+bk1zr2n4+sznd8GjGR5cMq0QaJB8edZ4TWPGT92ZNTuc+z2nc+ydQEsGelGp9mnuH8qgIWLVrB6xXR6fzOGvU/0FUt6WBScndGRT4zqyRvo7TceyrZ0/SuS8pZvr6H7x03oOdOPuR6DGb44iLjw7Qx1bkHvGQvxmTaSASOXcVndo9cu8vNNfFemAZNUw5xRl9i6Yg2LPTrR4uft2qHSOc4DNqpLH7uX6V7HULzcwvclK9JrV8pUsxT+N0u2XCXhwVJaFa/KwAMp36mj8+o0Hu7rM+lYqYmdBw+SphFr/7iJ4+NcaDX/tkG/hNdrmAHBhcTd1X2oVasd471nMLLPQP448Z9W2ROIidEa1pfuMOuzshT70l/PFAUnPMaxXt1L1fs2V59m1FalUFZ3q0Otr8bhPWMUfQbM4cQzw8+22F0zmZH4w9Yyod5fUtjGAfdzSaPD0u3FTPC7pcVWbHyaq9uFKJwBArH83b821lZv02un/j5YEtf8vqeirVXSTvOW1tjal6JGi4H4nUnDJ1Vxly3DnChra5m8O70VxWp9w3SDi2gkrk5zxtaqBK19zfN8NY/gSsQoE/v4DjfDn+n4ISie3eO23jU19edb5+ITHJe42WPJukPYnexILV2cSr3yjRkaEELio0W+j7dTZb7fqF8h6pRe8385jse3bxIepT1NpuBZ+B29a7rlVOwfTpXqgzj0+B9WLdzBjfgIlnWoQa0Bm3UD5oazLNqoLnrMDi+8VFNiCXvpU6EsnTYkz5crb7N18W5CJZl7qg3qqhjecVg1Vfv75FOphpbV6efL/zGB9PmwNrUdOrIy0vTD3dlnZkhwJaUqx/9H6N2I9DcgBWKPjeHDNxsz8bTeLjwqt4Tfp3BGPZqT/cLmWArGtVWZ+Mgw7kbG6gomnVLGsGOqFyeT/TvlMD+c3yiEavm6EolbPlPw115YoYorRrh0CIqT3E9AvuVHi5KFdGc2NMWWeXHnDIFbNrI18AhB9w10xjVhUw6UUXc4s28PB87fJTqtR6cczlzVqHHNoRwxU8fOjIIrxVjjjiQenD7FbcVDFrR4h5YLUpa7x2zoRbk67in+GwmH6F+lFoNNvYTauIKaKZSSoPFNKd6gL94rDmKG6WMzlTsryT5n+9TZnFa9OBKX75bmy2VRQAKX1i/jgGonXPkePi0qUG3IgSSRrZONxK35w5l8JmW+XufrfHui4NLqSYxZfDLnffyMYpq24DImuvzsIMM+bcbIvx+lEh3yLX9+nnJKp/NmTJqvP4wJ2+rzXUzxOpnCQL7HfJfy2L43glPxN5g3cUnq338Tguv1NwFRgkwSUHDJqw2lyn7DyjRWr2cyQaOCK/6ZhMMbNegfqO9bbVR0owLlIsGVXN6Ybbi91YgpmuX/CRwaXJcqA/ZpXryvTrhT6+1ubFH7gxllai4PJD/Ep0UlmgyayaTBXek8cj0382Bv3ijK0TuYMut00uiUdIFxDmVw9rnH8zNrWH486WcYVL13l6I1GXo0tahKCF7EYPedevtSGZWzCGRWAirB1ZC6/ZezJzCQfefvG59bfAgLenRl2jHt6cbk6PFXWDB4LLtz5ahe+iaasq1Gb/bES6eToRoFbk8Rm1r8suoPJi5N6aQSe5dT+wIJ3DWfTlWb4ZW/e3DpV4L4Nu8RkMJY41abGj02pqzcNacVypv4tPmAT8cfMatfcK4TXIrDI6n5nta2CCqnW8d36BSgXsuoWv7ZgLe7beSF9IgrV5+k6g2bs17MlnbMVjq/1ZRZqgejdJ4xtask+TVJYVwKTlnfaLb8czDhqI2ezFL/HI10kxmNy9HIfQWLV/+b7JOV5J9SrIZWO9CUT0FI4B6uGvKB04QRB6+HgJKriwfRztUVV1dX2nv8ZVwxpDA2jhrK/LPqnXcSOLJuoybuq+B97L6m5++p+TY3H5iyrUaxafJszup1wuQHS2hVxI6yVbuzWGs0QA7fxC9ftU2sB9evRrBZsyVHbuYlyiYIaBGIv86qH11wnXI0k3tyaaVhzKH0mMDhbWk1bm/Wtn4yJo/kMLlMcEmETHbm7R82a5yh5cdLaVXCJeU32KQLjK1blV47o1GcW4L3PtVUVN7/UxwaQfX3hyf5Z7w6y8iPPkgc3VEc92f+cePmqfMEBfkRK36bwgn1PmNyBAtcylPBdT6X1dcSV2CVp+aIoynTJ3nCOFHITBOQI/l7TDf6eW8hMDAw8bN78xx6/bo+00nl5wjyvdX8OvlY6vtBfohvqwoUa+uXMyMB+RmysC33EZCfcXaxO4OnB5qnfccHsWTYYCZuva6ZQTMnhFwmuGJY9XUN2i9/qLFZsWcIlRtP1ezhg/yQVZ1aMnD5KmbN2Z56awVNzLx0IHFnVhsq9d6RLDSfsXuwK719N+M3bwu3DC9YyksGqn45mbNL3enbtjYlC1ej9WBfTiVOCcexcWhPlqi2BZAjOOI7kZE/OlHRxoYqrYYwbuU/GvGdxwwWxc2QgMSNBV/zppVF8goi9X9b6o47n2HsAhEg5hwrRvehRbWSFK7emiH+JzXbyyTZL/NoaX96r3mYP0b6C0SlCiMzS0BWKMyzQEpWkJCWE31mC2lE+FwmuCA2MoIX2vtuSdE80d8NW4rh/t1HxGqHM8LY3BxEjonSWz3xkoiw/GSjTEJsDPEKCVmWSIiLN3ADKYmPS0jZS0VWEBefg3dDbm4gomwFk4CUkHgPSDLIyccFE4SwWhDI+wRyneDK+0iFBYKAICAICAKCgCAgCOgSEIJLl4c4EwQEAUFAEBAEBAFBwOQEhOAyOVKRoCAgCAgCgoAgIAgIAroEhODS5SHOBAFBQBAQBAQBQUAQMDkBIbhMjlQkKAgIAoKAICAICAKCgC4BIbh0eYgzQUAQEAQEAUFAEBAETE5ACC6TIxUJCgKCgCAgCAgCgoAgoEtACC5dHuJMEBAEBAFBQBAQBAQBkxMQgsvkSEWCgoAgIAgIAoKAICAI6BIQgkuXhzgTBAQBQUAQEAQEAUHA5ASE4DI5UpGgICAICAKCgCAgCAgCugSE4NLlIc4EAUFAEBAEBAFBQBAwOQEhuEyOVCQoCAgCgoAgIAgIAoKALgEhuHR5iDNBQBAQBAQBQUAQEARMTkAILpMjFQkKAoKAICAICAKCgCCgS0AILl0e4kwQEAQEAUFAEBAEBAGTExCCy+RIRYKCQEEloCR4QW+cmjWjWbNmuIzaWVBB5Hu7pbB1/OTcPLGemzkPYv0jZb63WRgoCGSXgBBc2SUo4gsCgkAyAQUnRzSk/tCNHDt+nJNXHgsy+ZVA3AOCTh7n+JGldKveDK+7QnDl16oWdpmOgBBcpmMpUhIECjgBleBqRLNZN5ELOIkCY/6rM4z4yEkIrgJT4fnDUGXkHe4+k3LcGCG4chy5yFAQyK8EhODKrzWbpl1CcKWJRnyRTQIJd9k983em7QrT68DFcXmrL/O8vfHW+sxffjCDDGWir+xiVt+WVClajK/XPIe4M8wbOo7Vl6MziGuar4XgMg1HkYogYDICctQldm44zv3MdMDkZ1zcsY0zEZmJZLIiJyckBJepieb69ITgyvVVlBcLKD3ch3u7r3H/+z76TzQpdBFfFLfBwsJC62NNxd7b0zVVfnCcFTP7Ub+INRaWRZIEFyA/Ocb4Ni70W3uFhHRTyP6XQnAZwTD+/mk27LpAvBFh82qQgmBjnqkbxUl+ec+BESdfGl1k6Y4PztV6sTPm/4yMIxN1ZS/+E4bRu/M3fNnWFVfXjD5f0nnW8XTSz0BwyU85OO1H+i48j/D4MYxRfnqE6T36sfCiuR/9hvPP9FUhuDKNTERIn4D83yFGNHCgy/q7eiNbqngJnPj1M2o2/5qOHTumfDoNYPFlI+4Z6Saejd7UEVyqVOWIXfxYszrfLLtu1meTEFxp1b0czdXdC/jl60a8X681A3yO8iS/OaYUBBvTqt9cfV1J0ITmVP8pkDijyqnk0sTmvD/skHE9NGU420d8QU2HDvzuvZrAM1cIDQ8nPMPPfR48TU8Epi+45IeLaVm4ENV/OYLCKLsKWiCZhwvaU9i6Br8cT49zLuIiBFcuqox8UBT5Hqs71qRkS2/u6A9tqYTR4/V8V78Pu18Y27HUYyI/ZJ5TuVSCC2SebunH/4o3ZOLZWL1IpjsVgkuPZcKDM6yZ1Bdnh4/4rOtoFh26hfnw62WeQ6cFwcYcQmm2bBJHrCp3Y1O0EQ8WxWlG1G6IR5ARPTw5kp39P6PRgLVcjTUi7UxZmL7gitnQi9LWZem2NWf8JTJV9FwROIYN31fB+s2ubDF53ZjJQCG4zAS2ICYrE7GuJ+VtK9BzR5QBAEqCJrbk82lBqaYZDQQ2fEl+jI+LIcEFSEGMcyhJkcZTuaw09bMxqThCcKk4yM+5vmchI75pwkcff8mg2ZsJepLPJj0Kgo2Gb7G8eVWOYFn792m/4oGBYXVdk+ICf6am02xuG+gR6oaE6F1DqNfWx6iw+nEzPk9PcCVweEgdbIq0Y2m+GyrOmIxRIRTHGFKlKEXbLeaJURFyQSAhuHJBJeSTIij+ZUztkliV+p4NhkawonfRs2JhrAqXoWbDdvw0bQ3/PM7oPS0Tff0YW1YuZdX249yOepC24ELJ2TGNsbUqT5eNEWaBal7BFR/KkTUL+WPees5EGngbyHE8izKiV24W0yHh4T+sm9KPFvXq0LzHWJYdvWPkFE7GBYq/c4w1Pn8yL+A0kQamIuXYKKJyYF6lINiYcW3kzRDRW/pRrcVcQg20nxSLnhHQ2YH2y+5nKMyQH+Lr+jE/HzZuojIlD2OPUguuF+FXCAoKIujCbobXKYHNR0PYfiGIoKBgwqINPBOMzSrfhIshPETFI4gLu0ZRx9aOj4Zu5YKKWXAo0enWfS6AIARXLqiE/FGEl3/9zDvWVth94UNquSNxY44rRSy1HeUtsSldn95LLhiehXoRhP8PDShfzZl+7uP5rbsTNd9rRpNq9gamFJMYvtzen7JWlrzRcj73zXDvmU9wxf3L7D7DWHr2LmcnNKfkJ5MJ0hmme8ambrUoVHcsF3Wum7nxqEZ6An357dvPqdOoA0Pnbif4WUYqOXNlevmPN32GLuFs2FkmNCjPJ1P1nISfbeOHCkWp63HOPA56BcHGzFVJ3gydcITB7zVhwtlHPHnyxOAn8pofrjWMnHp8uY0u73YmIM48w+WgJ7jkp+yd8iNd3Nzo3M6RMlZWlKrThs5ubrh16c2cY8/zZr2YsNTy0/1M7dEVN7fOtKtXHiurUji0/R43Nze69J7Nsdw+tSgElwlbQ0FOKoG/+r6PtYU1lQf9bdAXVVbEEHHnMsd2LMdz6Lc4vFkISwsLLK3L4DTrX91FbdJdln1dg0JVurP5watksBIP1vWkorVlmoJLvjqLhrZWWNq3wtcMv55gJsGlJHhGH0YeVPlqKLk8oSl2tm1Zoj1MGLuTbmXsKdp+GYZma03f9JTcC5zMVzXfpJRDD3yOhetWkKkyVF5hZo9RHFStFlOGMKF+KezaLuKFVvqxW/pSxro47Vf+p3XVFIcFwUZTcMoraSj51/1TitVqQ9/+/emf6vMT3zlWoOrAfUa1ZTliCV+UqEjdpkk/vaP6+Z3MfZz4asqRdODpCS6tkLGb+vCmdUk6rsvpyTIFUY8jiUuvt6qMISLiRRqdHyUvIiJ4Ydo+mRYZ9WEsm7pUxbp4R9bm+mEtdZkBIbi0YIjDLBNQXmGSYyksLOxo+sftjEfrVS5XESeZ1b4WdpYWWNo7MkGzslfm0eofKGddjJYL7uim9eokv1QvlqbgInYTHYvZYmFVlu7bYrJsTloRzSO4Xp1gVOcpSY5nysuMr1cKu/rjuaQ1kqU4OILK1nY08bqedQe4tKxK87qSyKCdzP3VDafGTnQcPpvN5x+adMXUq6MedJ56MfHhLQVNo55tIepPvKD1ME/g4GAHrG2aMPO2WnmnWeAsfFEQbMwCljwaRb7+J83eG8CBeAOjUtI1pjX5hDFnjZyWj9vEd5W7EhAZRXR0dBY+L3gRn57ySEtwJftvFXJm3oP04pu6kl5yeERD3rC0pnSzmXoj7Ml5KUPw+rwCVlZFqTP6oJ5LgZKgGa0oaWVFsTq/ccico03J/lv2znN5kJ44NDWi7KYnBFd2CYr4KgIJ2+lS0g4Ly0K0XfrMeCaKa8z74l2sLKx5d8DepHjSdaY3KoOldUOmXdfz25EfMd85Dad5VWzFIfq/8wYWFrY08bphfDmMDGkewSXdJzjkSaKyfHVqHO/ZFKbJzGtawkrJxfGfYWvjgPs5I18WRhpkdDApiiu7fRnl5kKDJu3oP20Vx8Ozvx5RCg8h5KnKN0XBqd8aYGPXhBm3tISV8hLj65bCtvYYzmkJUKPLnZmABcHGzPDIi2Hlh/i3/YjuW1M/hKSzE3Fs6sk1yYAYM2SrdIPpTZ3NJPRVGaYhuJQhTKxfCtt64822+seQucgR+LV6O3HawapEJwIMCaaEPfQoa4+FhSWFv/DhkY7YecnmLlWxUk1b2DvhHW4+sShd9sTR1o56E5Nv3lkPAAARWUlEQVQ6awbtyY0XheDKjbWS98oUtRLXQqoNSUvQKSBzrgbS5Zk0sLPGpvH0RLvlB4toYW+DlV17Vujf8+mtUlTFfnWK4TWLJQquD0afMjlH8wguTTET2D+wNtZ2nzPrjpbokO8x16kcNpUHckhh5MtCk6bpD+ToG/zt78EPLp/Q4IsejFu8j5svsunQm3CYgZWKUOhzL50VYXL4QpwL2VF50H7DI2tyPNGRT4jJZvb6lHKVjfqFE+fpEngW0Jsa3yzTW3yhGiltTFs//Z+9SC8piTve39J0/FnDbS+9qEZ9Z1hwyQ/8cbG3o+qQA2bKN+3CxQVvYfoYD3wO3NPq8GmHVxK6xxt3dy+230y9mEB5dy9z3N3x2n7NqGlb7ZSNP5Z5ML8d9tbVGHI4j+y/pTZOCC41CfE/GwTkyKV8YacSXEX5Zm3mBJfKdSexQ1d/QmIJXp0cS00bSyzt2rFcfyPoDAXXOX7/oHgeFVyKowyqXASbBpO4ot0Lf76J70oWomz3zXpD+NmoMZNElYm5fZhlHn1o6ViXZp1/xXvHRbKyQ4Ti4K9UtralwZTLOg/65+u6U9K6HN23pW5UUthePHs0oYxtI6bf1BKoJrFNncjrtVFTikdH8BnTF6ea5SlTrj3+aTgoStfX0vXDcpSt/RVDx3qy5ZreELE6wfz8P24/P73fGh/tEZaY3fR2cGPdM50hmYwpxP3LBBdnRh+K1PVtyDimESEMC66YgJ6Usi5Dl83p7L8lPeVf/5FMDUx9XxiRcR4PEkNAp8pYl3Zjk36PXMcymYcH/Jk48jscSpeinLMXV7Weq9LlDYzq2JAKZWvQvPsveB98qBM7cycST/9dyvCpuw2vAFMnJgSXmoT4nx0CcZv5TuU7ZVEI1yWZ9POUI1jY4i2KdVieWIJXpz14z8YSC5uPmXxV732RkeBSHOPnqkUTBVcjz2vZschgXLOOcEl359PU1jZxblV74vDV0VFUs3mD1v6qB4JE6LYAjmg71Bssak5ffEnY0TVM7tMWx9oN6TAhkAij320Sd2e3wdaqEgP2a09TKjg6tC42hVrjp9orQgpj2/ojOg71ir9+plKtYRzPkZG/12OjpiZfHmLqT19Tr/DHTArWuzFUgeIus27OQJqWeIdeO9VTarGEbJmLp+9+wsw3w6MpYu44UHB65Gd85hmcLN5l/lvdnbr9dqX/Mkyj8MrQLfRxdODLCVu5+kz7zkwjgtGXDQmuJJ9FG/vW+Gn2zFEQtHoNZ1RtXHmFDVPG4+HRlyal3qDN4tQLSWKDtzPH05cDYQbaiNFlex0BjWyriqMMrlyUwq0X8lj9jFFcZvWq0wZHBF/u92Jwp0+xt3Vkot59I91eyJDJ2RnBVBIc4ImHhwd9Pi2PXRu/9Bc1CcH1OhpW/stTOsfoD0sk+U7Nupm5zuCr0/xaqwIdVj5I5CJHLKfNGzZYWL6By3w9B3yN4CpM+9UGOncJgfR+yx4Lq9K4bTLwfTbJm1dwXZyauK9Mw+khWqM8Etenu6T4b8n3Wdh/NEdzRGBkkVb8Ay4Gp/4RzbRTU3LR4zNs9Z32pJtMb1ha478l31tC/98PaT1UlZwb9xnlu27M0os07fIY8U2O2ZhSlrh9c5ixYTZOhT9k1Bn9F/9zzqxew565X1Pinb7sTXYal++ppqdUN5M99Sec1VqMkJJufjySQ2bRxDHZ7091z7h+ym+nsjH99CKEDeN74VK3FrVq18fR0dGITwNcxh1IB68BwSVdZ+onpbFpMFkzyi3fW0e/QWt1OzCKwwx4t0RqwSXfZ77zW1haWGJf34Pz5vZ7TMe6zH5lbFtNWopuR4Op6tFwmXsrhzBovaFNb+PYO30mB6/No7l9IepN0F6QIxHqOxkfkyzGSWD/gI8oJARXZqtdhM8SgTi2/VA90fk9rW0hpKiH3I/Sn/mRCV/ZjZqNJ3FerSHke/i2qpj4zLCt2pOt2rMn0l1mfVYm0TnfUOdOfuiPi501lrafM/uu6Xv0ZhVcRG3FrUwR6oxN2W9KcW0lfepVwLZQkkObdNuXH0ft19l3Q93JS6o3GVn3ArL+hSxVsHkjRW3oTRnbuozVLFVN4NrSAdQrZ0eh9suIReL23AGMPKTlNyLfw9vpf7TyM2ITS/MW36jUs2SjJuU4Aj1ncSxyJV8WrsZgbQ7I/Hd4Fesv3sav9f94t/9fKf4zcScY+0lFir75LlW7LtUZHdQknR8P5HDmt0ratFS1ctHp80kEa00n5Q6TDQguZXDi1ijFOq1Nch9IuML8nv1Yoe3TqSp8WoKLOI6ObU6Zom9SqWoXluW6kfB0yBvZVqVL03G0LalxFlYE+9Gz7zId309NLnF/M23GYRKkUP5sXg7bOu5cUItQ6S4LJ/hyR+95qYmbqQMhuDKFSwTONoHoDb0oY2WJfeuFROqnFr0FtzL2WJf4iM7Td3AzRoni2W0OzOlG3fo9WKv3PHl5dgafFrdJWgzz3vfM2HyUC2f2MO/HFlQqaY2FhTUVv5nN9kNBPNW6XxSHfqOKavPVTz25YYbnq3kFl2q6cNNwGn/kwpA//Vk0bxq/j1vJpTs7+fnjenTwmMnvAzzYoVag8edZ4TWPGT92ZNTuc+z2nc+ydQEsGelGp9mnuH8qgIWLVrB6xXR6fzOGvU8y41mu4OyMjnxiVE/eQG+/8VC2petfoddCpDA2DWrORy6D+XPRIuZNHc24VRe4s30EHzu0x8NrNAM8tumuilL5tpVpwKQQBURdYuuKNSz26ESLn7frJZ7WaR6wUV302L1M9zqG4uUWvi9ZkV67UqZepfC/WbLlKgkPltKqeFUGHkj5Th2dV6fxcF+fy3wANaUzw0HSNGLtHzdxfJwLrfSHys2QY+aTNCC4kLi7ug+1arVjvPcMRvYZyB8n/ks9ZZCm4FKXQsEJj3GsN9umrep8zPA/o7YqhbK6Wx1qfTUO7xmj6DNgDieeGX62xe6ayYzEH7aWCfX+ksJaK72l24uZ4HcrNdssmSQEV5awiUhZJxB7kAGVi2BVvic79LfBkW7g91V1bJN3mre0tsW+dA1aDFrIaYM6QCbq9Dy+qVY8cZWyahWydbH3+G7+bmY5l8W6ZE3aDPHm7zvae21JXJ3mjK1VCVr76k1FZt0qnZhmFlzJeUlxRISG81TbBUOO41HYY50X5vOtc/EJjkvc7LFk3SHsThZi0sWp1CvfmKEBIUkjYfJ9vJ0q8/1GbVg6duWaEyk2ktDwJ1rThiDHPibscWoRodg/nCrVB3Ho8T+sWriDG/ERLOtQg1oDNucaewwVJDM2quPH7PDCSzUllrCXPhXK0mlD8ny58jZbF+8mVJK5t6ADxasM5GBC6pWscuRafp98qsBMKSZyiwmkz4e1qe3QkZWRph/uVtdN1v8bElxJqcnx/xF6NyLtDUgzElxyJCt+n8IZ9WhO1guZ4zGNa6sy8ZFh3I2MTUcwxbBjqhcnk6dO5DA/nN8ohGr5uhKJWz5T8FcvrIg+woxeqh3s3dL9dOmu1eHVISMElw4OcZIDBCRuzfuKktaV6P+3gXe7HMOdU3+xZeNWAo9e5L4xnS85lrB/DxJ4+BKPE0VcAjePHuDyUwPPTzmcuapR45pDOWJM2lkgkjOCy6iCSTw4fYrbiocsaPEOLRekLHeP2dCLcnXcU/w3Eg7Rv0otBue1JdTpclASNL4pxRv0xXvFQcwwfZxu7jn75XO2T53NadWL49UJhlUvzZfLVL83kMCl9cs4EKEE+R4+LSpQbcgBnenmpHJK3Jo/nMlnsuHDlLMGmyg3BZdWT2LM4pM57+NnlAVpC64Mo2cguORb/vw85ZROxyXDNHNFABO21ee7mOJ1MoWBfI/5LuWxfW8Ep+JvMG/iEhP+/psQXLmi+RS0QiiC8WpWkbLfLNed/ckBDop/JuHwRg36B6ZeuGOq7HOR4Eo2KWYbbm81Yopm+X8ChwbXpcqAfZoX76sT7tR6uxtb9PfYMBWV15GO/BCfFpVoMmgmkwZ3pfPI9dzMg715o9BF72DKrNNJo1PSBcY5lMHZ5x7Pz6xh+fGkJcGq3rtL0ZoMPZpaVCUEL2Kw+069famMylkEMisBleBqSN3+y9kTGMi+8/eNzy09wRV/hQWDx7I7V47qpW+iKdtq9GZPvHQ6GapR4PYUsanFL6v+YOLSlE5q+qUy5tsMBFfsXU7tCyRw13w6VW2GV/7uIRoDTIQxEQEpNIAu1WvRY4uhRSMmykQ/GeVNfNp8wKfjdXcN0A+W3fNcJ7gUh0dS8z2tbRFUTreO79ApQL0tgIITvzbg7W4beSE94srVpB3tswvitceP2Urnt5oyS/Xgks4zpnaVJL8mKYxLwU9fe/FMWYCojZ7MUv8cjXSTGY3L0ch9BYtX/5s8xZzkn1KshlY70BRAQUjgHq7qz/FrvhcHr4+AkquLB9HO1RVXV1fae/xlfFHSEVyvgvex+5rW4hLjU33NIU3ZVqPYNHk2Z/U6YfKDJbQqYkfZqt1ZrPaFNYnV6QsuOXwTv3zVNrGeXb8awWbNlh8myVwkUsAJJFxbR5+mbZlyIgfefdJjAoe3pdW4vborp81QB7lMcEmETHbm7R9SNkSVHy+lVQmXlN9gky4wtm5Veu2MRnFuCd77cuanr83AXidJxaERVH9/eJJ/xquzjPzog8TRHcVxf+YfT+3vpRM5L53Ij1jx2xROaJbwRrDApTwVXOdzWX0tcQVWeWqOOJoyfZKXbBRlzTwBxQF++l8JWvmnWp+U+bTyYQz53mp+nXws9f0gP8S3VQWKtfVL2cPLJPYnsLffBxRqtRB1V9ckyYpEBAEjCchPz7Fk1BCm7zXjSFd8EEuGDWbi1uuaGTQji5elYLlMcMWw6usatF+eskOyYs8QKjeeqtnDB/khqzq1ZODyVcyas51Qw4t5sgTj9UWSuDOrDZV670ge4XnG7sGu9PbdjN+8LdzKFzbGcXapO33b1qZk4Wq0HuzLqcQp4Tg2Du3JEtXeQXIER3wnMvJHJyra2FCl1RDGrfxHZ2HF66sjkbNZCEhh7PlzImMGtuJdW2tKfdyVUR6TWXsx9VSyWfLP7YnGnGPF6D60qFaSwtVbM8T/JLruxDKPlvan95qH6TjbZ8ZIidDd8xg/ZhAt3y2MVamP6TZqHJPWnk8t9jKTrAgrCGSJgIxCYcDBPUtpGYgkK0gwY/L6OeYywQWxkRG80NoXAymaJ/q7YUsx3L/7iFjtcPqW5bFzOSaKaJ2Kf0lEWH6yUSYhNoZ4hYQsSyTExRtYYagkPi4hZZNcWUFcvA6UPFarorgZE1ASHxuPUutelhJiidNe0ZxxIvk3hJSQeA9IMsjJx+Y2VhkfS7xuhRArKsTc2EX6BYBArhNcBYC5MFEQEAQEAUFAEBAEChgBIbgKWIULcwUBQUAQEAQEAUEg5wkIwZXzzEWOgoAgIAgIAoKAIFDACAjBVcAqXJgrCAgCgoAgIAgIAjlPQAiunGcuchQEBAFBQBAQBASBAkZACK4CVuHCXEFAEBAEBAFBQBDIeQJCcOU8c5GjICAICAKCgCAgCBQwAkJwFbAKF+YKAoKAICAICAKCQM4TEIIr55mLHAUBQUAQEAQEAUGggBEQgquAVbgwVxAQBAQBQUAQEARynoAQXDnPXOQoCAgCgoAgIAgIAgWMgBBcBazChbmCgCAgCAgCgoAgkPMEhODKeeYiR0FAEBAEBAFBQBAoYASE4CpgFS7MFQQEAUFAEBAEBIGcJyAEV84zFzkKAoKAICAICAKCQAEjIARXAatwYa4gIAgIAoKAICAI5DwBIbhynrnIURAQBAQBQUAQEAQKGAEhuApYhQtzBQFBQBAQBAQBQSDnCQjBlfPMRY6CgCAgCAgCgoAgUMAICMFVwCpcmCsICAKCgCAgCAgCOU/g/wH77PM9VCAAxQAAAABJRU5ErkJggg==;imageBorder=default;" vertex="1" parent="1">
          <mxGeometry x="1080" y="299.49" width="424.31" height="310.51" as="geometry" />
        </mxCell>
      </root>
    </mxGraphModel>
  </diagram>
</mxfile>
